<?xml version="1.0" standalone="no"?>
<!DOCTYPE svg PUBLIC "-//W3C//DTD SVG 1.1//EN" "http://www.w3.org/Graphics/SVG/1.1/DTD/svg11.dtd" >
<svg xmlns="http://www.w3.org/2000/svg" xmlns:xlink="http://www.w3.org/1999/xlink" version="1.1">
<metadata></metadata>
<defs>
<font id="changaextrabold" horiz-adv-x="1218" >
<font-face units-per-em="2048" ascent="1638" descent="-410" />
<missing-glyph horiz-adv-x="409" />
<glyph unicode="&#xfb01;" horiz-adv-x="1347" d="M61 0zM61 760v264h103q6 135 43 213t115.5 111.5t216.5 33.5q96 0 225 -20l-23 -248l-168 16v-106h123v-264h-123v-760h-409v760h-103zM824 1325q0 125 46 172t171 47q123 0 169 -47t46 -172q0 -84 -19.5 -130t-64.5 -65.5t-131 -19.5t-132.5 18.5t-65.5 64.5t-19 132z M835 0v973l410 51v-1024h-410z" />
<glyph unicode="&#xfb02;" horiz-adv-x="1366" d="M61 0zM61 760v264h103q6 135 43 213t115.5 111.5t216.5 33.5q96 0 225 -20l-23 -248l-168 16v-106h123v-264h-123v-760h-409v760h-103zM835 193v1138l410 31v-1069q53 -10 100 -14l-18 -277q-131 -33 -227 -33q-135 0 -200 54.5t-65 169.5z" />
<glyph unicode="&#xfb03;" horiz-adv-x="2080" d="M61 0zM61 760v264h103q6 135 43 213t115.5 111.5t216.5 33.5q96 0 225 -20l-23 -248l-168 16v-106h123v-264h-123v-760h-409v760h-103zM794 760v264h103q6 135 43 213t115.5 111.5t216.5 33.5q96 0 225 -20l-23 -248l-168 16v-106h123v-264h-123v-760h-409v760h-103z M1557 1325q0 125 46 172t171 47q123 0 169 -47t46 -172q0 -84 -19.5 -130t-64.5 -65.5t-131 -19.5t-132.5 18.5t-65.5 64.5t-19 132zM1568 0v973l410 51v-1024h-410z" />
<glyph unicode="&#xfb04;" horiz-adv-x="2099" d="M61 0zM61 760v264h103q6 135 43 213t115.5 111.5t216.5 33.5q96 0 225 -20l-23 -248l-168 16v-106h123v-264h-123v-760h-409v760h-103zM794 760v264h103q6 135 43 213t115.5 111.5t216.5 33.5q96 0 225 -20l-23 -248l-168 16v-106h123v-264h-123v-760h-409v760h-103z M1568 193v1138l410 31v-1069q53 -10 100 -14l-18 -277q-131 -33 -227 -33q-135 0 -200 54.5t-65 169.5z" />
<glyph horiz-adv-x="0" />
<glyph unicode="&#xd;" horiz-adv-x="307" />
<glyph unicode=" "  horiz-adv-x="409" />
<glyph unicode="&#x09;" horiz-adv-x="409" />
<glyph unicode="&#xa0;" horiz-adv-x="409" />
<glyph unicode="!" horiz-adv-x="608" d="M90 1266q0 55 76 55h278q76 0 76 -55l-82 -795h-266zM111 174q0 105 39.5 148t154.5 43q113 0 153 -43t40 -148q0 -104 -40 -145t-153 -41q-115 0 -154.5 41t-39.5 145z" />
<glyph unicode="&#x22;" horiz-adv-x="1085" d="M92 1096v180q0 55 76 55h238q76 0 75 -55v-180l-102 -420h-184zM604 1096v180q0 55 76 55h238q76 0 75 -55v-180l-102 -420h-184z" />
<glyph unicode="#" horiz-adv-x="1669" d="M41 246l72 178q14 37 32.5 50t47.5 13h159l119 299h-213l72 179q14 37 32.5 50t47.5 13h155l113 283q12 29 29.5 40t58.5 11h207l-131 -334h295l112 283q12 29 29.5 40t58.5 11h207l-131 -334h215l-72 -178q-14 -37 -32.5 -50.5t-46.5 -13.5h-160l-119 -299h213l-72 -178 q-14 -37 -32.5 -50t-46.5 -13h-158l-109 -277q-12 -29 -29.5 -40t-58.5 -11h-207l129 328h-297l-108 -277q-12 -29 -29.5 -40t-58.5 -11h-207l129 328h-215zM627 487h297l118 299h-297z" />
<glyph unicode="$" horiz-adv-x="1191" d="M82 72l53 321q193 -61 397 -61q94 0 158 8v109l-176 14q-225 23 -320.5 108.5t-95.5 270.5q0 156 42 248t135.5 137t252.5 51l25 268h246l-25 -276q139 -16 268 -49l-49 -314q-98 23 -167.5 31t-147.5 8q-94 0 -160 -8v-107l141 -12q238 -25 344.5 -120t106.5 -281 q0 -201 -108.5 -301.5t-337.5 -112.5l-25 -268h-246l25 272q-184 16 -336 64z" />
<glyph unicode="%" horiz-adv-x="2603" d="M119 0zM119 874q0 173 35.5 266t123 132t248.5 39q164 0 250 -39t122 -131t36 -267q0 -174 -35 -266t-122 -131t-251 -39t-251 39t-121.5 132t-34.5 265zM381 721q0 -43 20.5 -56.5t83.5 -13.5h185v377q0 41 -22.5 55.5t-88.5 14.5h-178v-377zM930 -82l551 1393 q16 29 32.5 40t55.5 11h105l-551 -1393q-17 -28 -33.5 -39.5t-54.5 -11.5h-105zM1669 416q0 172 35.5 265t123 132t248.5 39q164 0 250 -39t122 -131t36 -266t-35 -266.5t-122 -131t-251 -38.5t-251 38.5t-121.5 132t-34.5 265.5zM1931 262q0 -43 20.5 -56t83.5 -13h185v376 q0 41 -22.5 55.5t-88.5 14.5h-178v-377z" />
<glyph unicode="&#x26;" horiz-adv-x="1359" d="M61 369q0 338 285 374v9l-192 61q16 180 77.5 288.5t177 159t300.5 50.5q102 0 216.5 -16.5t164.5 -37.5l-52 -323q-55 16 -129.5 27.5t-128.5 11.5q-111 0 -151.5 -31t-40.5 -113v-47h710l-45 -297h-102v-690l-252 -31l-51 281q-260 -76 -397 -76q-193 0 -291.5 100.5 t-98.5 299.5zM502 371q0 -66 36.5 -100.5t108.5 -34.5q90 0 164 12l-43 237h-266v-114z" />
<glyph unicode="'" horiz-adv-x="573" d="M92 1096v180q0 55 76 55h238q76 0 75 -55v-180l-102 -420h-184z" />
<glyph unicode="(" horiz-adv-x="684" d="M41 641q0 412 139 654.5t402 312.5l41 -316q-113 -53 -163 -206.5t-50 -444.5t50 -444.5t163 -206.5l-41 -316q-263 70 -402 312.5t-139 654.5z" />
<glyph unicode=")" horiz-adv-x="684" d="M61 -10q113 53 163 206.5t50 444.5t-50 444.5t-163 206.5l41 316q262 -70 401.5 -312.5t139.5 -654.5t-139 -654.5t-402 -312.5z" />
<glyph unicode="*" horiz-adv-x="1097" d="M51 1081l94 293l136 -43l159 -98l-45 178v143h307v-143l-45 -178l160 98l135 43l95 -293l-136 -43l-186 -14l141 -121l86 -115l-250 -180l-84 115l-69 172l-70 -172l-84 -115l-250 180l86 115l142 121l-187 14z" />
<glyph unicode="+" horiz-adv-x="1085" d="M102 492v294h293v293h295v-293h293v-294h-293v-293h-295v293h-293z" />
<glyph unicode="," horiz-adv-x="567" d="M61 203q0 125 48.5 172t175.5 47t174 -47t47 -172q-4 -84 -14.5 -116t-53.5 -118l-139 -278l-182 59l67 254q-68 14 -95.5 58t-27.5 141z" />
<glyph unicode="-" horiz-adv-x="716" d="M51 410v221q0 55 34 70.5t108 15.5h473v-221q0 -55 -34 -70.5t-108 -15.5h-473z" />
<glyph unicode="." horiz-adv-x="567" d="M61 203q0 82 18.5 128t67 68.5t138.5 22.5t137 -22.5t65.5 -68.5t18.5 -128t-18.5 -127t-65.5 -66.5t-137 -21.5t-138.5 21.5t-67 66.5t-18.5 127z" />
<glyph unicode="/" horiz-adv-x="827" d="M0 -82l635 1393q14 31 32.5 41t55.5 10h104l-634 -1393q-15 -30 -33.5 -40.5t-55.5 -10.5h-104z" />
<glyph unicode="0" horiz-adv-x="1382" d="M82 639q0 260 56.5 403.5t187.5 206t366 62.5q236 0 366 -61.5t186 -206t56 -404.5t-56 -403.5t-186 -205t-366 -61.5t-366.5 61.5t-187 206t-56.5 402.5zM522 428q0 -66 24.5 -87.5t104.5 -21.5h209v533q0 66 -28.5 87.5t-112.5 21.5h-197v-533z" />
<glyph unicode="1" horiz-adv-x="1095" d="M31 881v368l774 62v-973h250v-338h-1004v338h344v571z" />
<glyph unicode="2" d="M72 0v307q0 113 53 193t185 155.5t386 175.5v115q-59 14 -190 15q-172 0 -356 -39l-56 323q129 31 264.5 48.5t249.5 17.5q270 0 399.5 -90.5t129.5 -278.5q0 -133 -48.5 -213t-185.5 -155.5t-442 -196.5v-39h655v-338h-1044z" />
<glyph unicode="3" horiz-adv-x="1138" d="M20 37l56 323q176 -39 362 -38q133 0 199 14v141l-352 55v216l352 61v137q-59 14 -188 15q-184 0 -357 -39l-55 323q289 66 514 66q268 0 397 -80t129 -248q0 -238 -203 -338v-10q203 -80 203 -301q0 -186 -130 -274.5t-404 -88.5q-111 0 -248 17.5t-275 48.5z" />
<glyph unicode="4" horiz-adv-x="1284" d="M20 219v244l336 817h727v-723h140v-338h-140v-219h-409v219h-654zM446 557h228v416h-58z" />
<glyph unicode="5" horiz-adv-x="1206" d="M82 35l55 323q201 -39 336 -39q158 0 232 15v110l-154 17q-174 18 -265 48t-128 84t-37 150l20 537h926l-31 -338h-485v-135l121 -14q252 -29 362.5 -126.5t110.5 -287.5q0 -211 -129 -310.5t-400 -99.5q-288 0 -534 66z" />
<glyph unicode="6" horiz-adv-x="1259" d="M72 639q0 254 63.5 398.5t205.5 209t392 64.5q80 0 211 -21.5t195 -44.5l-56 -323q-78 16 -171 27.5t-158 11.5q-176 0 -242 -19v-125h111q299 0 432 -96t133 -311q0 -232 -132 -336.5t-427 -104.5q-205 0 -326 66.5t-176 212t-55 391.5zM512 291h152q51 0 67.5 17.5 t16.5 68.5v149h-152q-51 0 -67.5 -17t-16.5 -69v-149z" />
<glyph unicode="7" horiz-adv-x="1024" d="M10 1280h973v-256l-395 -1024h-420l367 942h-494z" />
<glyph unicode="8" horiz-adv-x="1261" d="M72 350q0 86 40 164t103 117v14q-45 47 -71.5 125t-26.5 170q0 186 127 278.5t387 92.5t387 -92.5t127 -278.5q0 -94 -26.5 -172t-74.5 -123v-14q63 -39 104.5 -117t41.5 -164q0 -201 -132 -291t-427 -90t-427 90.5t-132 290.5zM512 291h150q53 0 70.5 13t17.5 52v56 l-172 67q-31 13 -43 13q-23 0 -23 -35v-166zM512 866l162 -69q23 -9 33 -9q18 0 29.5 10.5t11.5 26.5v164h-146q-51 0 -68.5 -12t-19.5 -53z" />
<glyph unicode="9" horiz-adv-x="1259" d="M72 870q0 232 132 336.5t427 104.5q205 0 325.5 -66.5t176 -212t55.5 -391.5q0 -254 -63.5 -398.5t-206 -209t-392.5 -64.5q-84 0 -222 21.5t-204 44.5l56 323q82 -16 181 -27.5t169 -11.5q178 0 242 19v125h-111q-299 0 -432 96t-133 311zM512 840q0 -51 16.5 -68.5 t67.5 -17.5h152v149q0 51 -16.5 68.5t-67.5 17.5h-152v-149z" />
<glyph unicode=":" horiz-adv-x="567" d="M61 0zM61 203q0 82 18.5 128t67 68.5t138.5 22.5t137 -22.5t65.5 -68.5t18.5 -128t-18.5 -127t-65.5 -66.5t-137 -21.5t-138.5 21.5t-67 66.5t-18.5 127zM61 815q0 82 18.5 128t67 68.5t138.5 22.5t137 -22.5t65.5 -68.5t18.5 -128t-18.5 -127t-65.5 -66.5t-137 -21.5 t-138.5 21.5t-67 66.5t-18.5 127z" />
<glyph unicode=";" horiz-adv-x="567" d="M61 0zM61 203q0 125 48.5 172t175.5 47t174 -47t47 -172q-4 -84 -14.5 -116t-53.5 -118l-139 -278l-182 59l67 254q-68 14 -95.5 58t-27.5 141zM61 815q0 82 18.5 128t67 68.5t138.5 22.5t137 -22.5t65.5 -68.5t18.5 -128t-18.5 -127t-65.5 -66.5t-137 -21.5t-138.5 21.5 t-67 66.5t-18.5 127z" />
<glyph unicode="&#x3c;" horiz-adv-x="1085" d="M102 455v368l881 287v-328l-463 -143l463 -143v-328z" />
<glyph unicode="=" horiz-adv-x="1085" d="M102 246v294h881v-294h-881zM102 246zM102 738v294h881v-294h-881z" />
<glyph unicode="&#x3e;" horiz-adv-x="1085" d="M102 168v328l463 143l-463 143v328l881 -287v-368z" />
<glyph unicode="?" horiz-adv-x="1081" d="M76 1243q227 68 432 68q182 0 288.5 -32t154.5 -101.5t48 -188.5q0 -98 -39.5 -161.5t-136 -112.5t-276.5 -97l-12 -147h-267l-30 272q0 41 27.5 63.5t105.5 45.5l188 55v84q-66 10 -129 10q-78 0 -161 -12t-138 -28zM205 174q0 105 40 148t154 43q113 0 153 -43t40 -148 q0 -104 -40 -145t-153 -41q-115 0 -154.5 41t-39.5 145z" />
<glyph unicode="@" horiz-adv-x="1744" d="M61 360v170q0 385 228.5 542t628.5 157q382 0 558.5 -96.5t176.5 -298.5l-2 -834h-205l-103 102q-78 -66 -167 -99.5t-181 -33.5q-186 0 -272 84t-86 264q0 125 53 199t171 106.5t319 32.5h63v211q-47 8 -132 14.5t-165 6.5q-141 0 -232 -17.5t-151.5 -81t-60.5 -194.5 v-404q0 -150 60.5 -222t151.5 -91.5t232 -19.5h385v-193q-215 -43 -413 -43q-399 0 -628 166t-229 573zM1014 246h86q80 0 110.5 16.5t30.5 61.5v127h-86q-80 0 -110.5 -18.5t-30.5 -67.5v-119z" />
<glyph unicode="A" horiz-adv-x="1312" d="M10 0l328 1280h637l328 -1280h-410l-51 203h-371l-51 -203h-410zM549 500h215l-98 387h-19z" />
<glyph unicode="B" horiz-adv-x="1212" d="M102 0v1280h582q223 0 323.5 -80t100.5 -258q0 -90 -40 -170t-103 -117v-12q88 -20 147 -101t59 -182q0 -174 -107.5 -267t-307.5 -93h-654zM512 297h147q52 0 71.5 22.5t19.5 81.5t-18.5 82t-69.5 23h-150v-209zM512 793h100q51 0 68.5 19t17.5 77q0 57 -17 75.5 t-69 18.5h-100v-190z" />
<glyph unicode="C" horiz-adv-x="1044" d="M61 639q0 260 55.5 403.5t184.5 206t363 62.5q88 0 191 -16.5t149 -37.5l-52 -323q-59 16 -134 27.5t-124 11.5q-111 0 -151.5 -31t-40.5 -113v-495q92 -16 162 -17q84 0 166.5 13.5t142.5 36.5l31 -344q-80 -29 -169.5 -41.5t-211.5 -12.5q-217 0 -337 61.5t-172.5 206 t-52.5 402.5z" />
<glyph unicode="D" horiz-adv-x="1341" d="M102 0v1280h572q242 0 371 -56.5t182 -192.5t53 -392t-53 -391t-182.5 -191.5t-370.5 -56.5h-572zM512 319h168q90 0 125 28t35 102v382q0 74 -35 102t-125 28h-168v-642z" />
<glyph unicode="E" horiz-adv-x="1064" d="M102 0v1280h902l-52 -338h-440v-154h410v-296h-410v-154h481v-338h-891z" />
<glyph unicode="F" horiz-adv-x="962" d="M102 0v1280h840l-51 -338h-379v-194h348v-297h-348v-451h-410z" />
<glyph unicode="G" horiz-adv-x="1177" d="M61 639q0 266 53.5 408.5t182.5 203t367 60.5q104 0 226 -16.5t175 -37.5l-51 -323q-74 16 -165 27.5t-155 11.5q-111 0 -151.5 -31t-40.5 -113v-530h235v170h-104v297h493v-705q-104 -49 -228 -70.5t-296 -21.5q-215 0 -329.5 59.5t-163 202t-48.5 408.5z" />
<glyph unicode="H" horiz-adv-x="1331" d="M102 0v1280h410v-492h307v492h410v-1280h-410v492h-307v-492h-410z" />
<glyph unicode="I" horiz-adv-x="614" d="M102 0v1280h410v-1280h-410z" />
<glyph unicode="J" horiz-adv-x="800" d="M20 338h170q49 0 74 11t25 50v543h-205v338h614v-942q0 -166 -81.5 -252t-235.5 -86h-320z" />
<glyph unicode="K" horiz-adv-x="1265" d="M102 0v1280h410v-473h96q0 59 51 164l152 309h434l-301 -623l311 -657h-434l-162 344q-51 104 -51 164h-96v-508h-410z" />
<glyph unicode="L" horiz-adv-x="911" d="M102 0v1280h410v-942h389v-338h-799z" />
<glyph unicode="M" horiz-adv-x="1660" d="M72 0l78 1280h514l159 -651h15l159 651h514l78 -1280h-407l-33 621h-14l-148 -621h-313l-150 621h-12l-33 -621h-407z" />
<glyph unicode="N" horiz-adv-x="1382" d="M113 0v1280h405l279 -449q51 -86 51 -145h12v594h410v-1280h-406l-278 449q-51 86 -51 145h-13v-594h-409z" />
<glyph unicode="O" horiz-adv-x="1351" d="M61 639q0 258 57.5 402.5t189.5 207t368 62.5t368 -62.5t189 -207t57 -402.5t-57 -401.5t-189.5 -206t-367.5 -62.5q-236 0 -368 62.5t-189.5 206t-57.5 401.5zM502 319h186q92 0 127 24t35 85v533h-188q-90 0 -125 -24t-35 -85v-533z" />
<glyph unicode="P" horiz-adv-x="1208" d="M102 0v1280h584q262 0 377 -110.5t115 -362.5q0 -254 -113 -376t-348 -122h-205v-309h-410zM512 606h156q45 0 62.5 18.5t17.5 67.5v164q0 49 -17.5 67.5t-62.5 18.5h-156v-336z" />
<glyph unicode="Q" horiz-adv-x="1331" d="M61 639q0 252 58.5 397.5t188.5 210t358 64.5q227 0 357 -64.5t188.5 -210t58.5 -397.5q0 -174 -30 -287.5t-97 -185.5l145 -90l-106 -236l-394 129v117l-122 -117q-227 0 -357.5 64.5t-189 209t-58.5 396.5zM502 319h170q90 0 124.5 24t34.5 85v533h-172 q-90 0 -123.5 -24t-33.5 -85v-533z" />
<glyph unicode="R" horiz-adv-x="1280" d="M102 0v1280h594q262 0 377 -110.5t115 -362.5q0 -264 -158 -365l209 -442h-444l-174 371h-109v-371h-410zM512 668h166q45 0 62.5 18.5t17.5 67.5v102q0 49 -17.5 67.5t-62.5 18.5h-166v-274z" />
<glyph unicode="S" horiz-adv-x="1181" d="M51 43l58 338q204 -66 415 -66q104 0 166 11v112l-184 17q-160 14 -255 58t-138 126t-43 213q0 172 49 271.5t158.5 143.5t302.5 44q252 0 481 -62l-51 -327q-106 23 -180 32t-152 9q-104 0 -168 -11v-110l147 -15q250 -25 361.5 -124t111.5 -295q0 -227 -131 -333 t-413 -106q-291 0 -535 74z" />
<glyph unicode="T" horiz-adv-x="1003" d="M10 942v338h983v-338h-286v-942h-410v942h-287z" />
<glyph unicode="U" horiz-adv-x="1298" d="M82 479v801h410v-961h163q92 0 122 21.5t30 87.5v852h410v-801q0 -205 -49.5 -313.5t-170 -152.5t-350.5 -44q-229 0 -348 44t-168 151.5t-49 314.5z" />
<glyph unicode="V" horiz-adv-x="1271" d="M10 1280h410l207 -887h18l207 887h410l-308 -1280h-637z" />
<glyph unicode="W" horiz-adv-x="1902" d="M51 1280h410l108 -887h19l141 887h445l141 -887h18l109 887h409l-170 -1280h-610l-119 772l-121 -772h-610z" />
<glyph unicode="X" horiz-adv-x="1290" d="M10 0l393 674l-378 606h454l176 -283l166 283h445l-379 -651l393 -629h-455l-190 305l-180 -305h-445z" />
<glyph unicode="Y" horiz-adv-x="1187" d="M10 1280h430l154 -426l154 426h430l-379 -870v-410h-410v410z" />
<glyph unicode="Z" horiz-adv-x="1206" d="M51 0v266l524 664l-6 12h-430l-37 338h1045v-266l-518 -664l6 -12h520v-338h-1104z" />
<glyph unicode="[" horiz-adv-x="694" d="M102 -121v1522q0 80 50.5 127t161 67.5t300.5 20.5l19 -301l-170 -15v-1320l170 -15l-19 -301q-190 0 -300.5 20.5t-161 67.5t-50.5 127z" />
<glyph unicode="\" horiz-adv-x="1030" d="M41 1362h63q39 0 55.5 -11.5t33.5 -39.5l796 -1393h-63q-39 0 -55.5 11.5t-32.5 39.5z" />
<glyph unicode="]" horiz-adv-x="694" d="M61 -35l170 15v1320l-170 15l19 301q190 0 301 -20.5t161 -67.5t50 -127v-1522q0 -80 -50 -127t-161 -67.5t-301 -20.5z" />
<glyph unicode="^" horiz-adv-x="1085" d="M72 246l286 786h369l287 -786h-328l-143 444l-144 -444h-327z" />
<glyph unicode="_" d="M51 -55q0 55 34 70.5t108 15.5h974v-221q0 -55 -33.5 -70.5t-107.5 -15.5h-975v221z" />
<glyph unicode="`" horiz-adv-x="1228" d="M80 1104zM80 1305q0 14 19 34l129 152q12 14 19 18t18 4q12 0 22 -8l387 -284l-84 -117l-356 72q-31 6 -53 24l-78 68q-23 20 -23 37z" />
<glyph unicode="a" horiz-adv-x="1157" d="M51 317q0 125 53.5 199t171 106.5t318.5 32.5h61v93q-31 8 -102 8q-190 0 -406 -54l-49 283q229 70 496 70q244 0 357.5 -86t113.5 -273v-696h-205l-102 102q-78 -66 -167 -99.5t-181 -33.5q-186 0 -272.5 84t-86.5 264zM428 246h86q80 0 110.5 16.5t30.5 61.5v127h-86 q-80 0 -110.5 -18.5t-30.5 -67.5v-119z" />
<glyph unicode="b" d="M102 51v1280l410 31v-342q88 35 205 35q229 0 334.5 -130t105.5 -413t-125 -413t-397 -130q-160 0 -284 18.5t-249 63.5zM512 276h125q45 0 62.5 12.5t17.5 45.5v414h-125q-45 0 -62.5 -12.5t-17.5 -45.5v-414z" />
<glyph unicode="c" horiz-adv-x="919" d="M61 512q0 281 113 412t354 131q90 0 196.5 -13.5t154.5 -29.5l-35 -283q-88 27 -203 27q-76 0 -107.5 -34t-31.5 -116v-330q33 -8 104 -8q143 0 258 54l35 -283q-170 -70 -371 -70q-241 0 -354 131t-113 412z" />
<glyph unicode="d" d="M61 512q0 283 105.5 413t335.5 130q117 0 205 -35v311l409 31v-1362h-205l-75 102q-106 -133 -334 -133q-229 0 -335 130t-106 413zM502 276h125q45 0 62.5 12.5t17.5 45.5v414h-125q-45 0 -62.5 -12.5t-17.5 -45.5v-414z" />
<glyph unicode="e" horiz-adv-x="1167" d="M61 512q0 281 131.5 412t411.5 131q188 0 290.5 -32t146.5 -106.5t44 -209.5q0 -125 -57 -199t-183 -106.5t-343 -32.5v-93q43 -8 143 -8q170 1 365 54l49 -283q-211 -70 -455 -70q-279 0 -411 132t-132 411zM502 573h73q80 0 111 18.5t31 67.5v99h-74 q-80 0 -110.5 -16.5t-30.5 -61.5v-107z" />
<glyph unicode="f" horiz-adv-x="733" d="M61 760v264h103q6 135 43 213t115.5 111.5t216.5 33.5q96 0 225 -20l-23 -248l-168 16v-106h123v-264h-123v-760h-409v760h-103z" />
<glyph unicode="g" horiz-adv-x="1122" d="M51 674q0 197 117 289t369 92q104 0 196 -17l185 142l194 -187l-115 -149q29 -66 29 -170q0 -176 -90 -267.5t-287 -109.5l-4 -51q156 -23 239 -55.5t118.5 -87t35.5 -144.5q0 -164 -113.5 -240.5t-357.5 -76.5q-260 0 -495 69l49 283q188 -53 364 -53q82 0 185 10v74 q-193 14 -276 37.5t-83 62.5l60 180q-164 27 -242 117t-78 252zM440 502h127q39 0 54.5 15t15.5 50v279h-131q-37 0 -51.5 -13.5t-14.5 -52.5v-278z" />
<glyph unicode="h" d="M102 0v1331l402 31v-375q129 68 315 68q143 0 225 -62.5t82 -173.5v-819h-409v717h-64q-80 0 -110.5 -18.5t-30.5 -67.5v-631h-410z" />
<glyph unicode="i" horiz-adv-x="614" d="M90 0zM91 1325q0 125 46 172t171 47q123 0 169 -47t46 -172q0 -84 -19.5 -130t-64.5 -65.5t-131 -19.5t-132.5 18.5t-65.5 64.5t-19 132zM102 0v973l410 51v-1024h-410z" />
<glyph unicode="j" horiz-adv-x="614" d="M-100 -336l18 256q109 0 146.5 26.5t37.5 104.5v922l410 51v-1047q0 -178 -84 -262t-262 -84q-141 0 -266 33zM0 0zM91 1325q0 125 46 172t171 47q123 0 169 -47t46 -172q0 -84 -19.5 -130t-64.5 -65.5t-131 -19.5t-132.5 18.5t-65.5 64.5t-19 132z" />
<glyph unicode="k" horiz-adv-x="1177" d="M102 0v1331l410 31v-694h66l147 356h432l-237 -487l247 -537h-428l-157 424h-70v-424h-410z" />
<glyph unicode="l" horiz-adv-x="632" d="M102 193v1138l410 31v-1069q53 -10 100 -14l-18 -277q-131 -33 -227 -33q-135 0 -200 54.5t-65 169.5z" />
<glyph unicode="m" horiz-adv-x="1792" d="M102 0v1024h205l103 -102q184 133 389 133q90 0 156.5 -24.5t103.5 -72.5q158 96 334 97q143 0 225 -62.5t82 -173.5v-819h-410v717h-104q-43 0 -61.5 -13.5t-18.5 -44.5v-659h-410v717h-104q-43 0 -61.5 -13.5t-18.5 -44.5v-659h-410z" />
<glyph unicode="n" d="M102 0v1024h205l103 -102q180 133 409 133q143 0 225 -62.5t82 -173.5v-819h-409v717h-125q-43 0 -61.5 -13.5t-18.5 -44.5v-659h-410z" />
<glyph unicode="o" horiz-adv-x="1208" d="M61 512q0 281 131.5 412t411.5 131q281 0 412 -131t131 -412t-131 -412t-412 -131q-278 0 -410.5 132t-132.5 411zM502 276h125q45 0 62.5 12.5t17.5 45.5v414h-125q-45 0 -62.5 -12.5t-17.5 -45.5v-414z" />
<glyph unicode="p" d="M102 -338v1362h205l76 -102q106 133 334 133q229 0 334.5 -130t105.5 -413t-105.5 -413t-334.5 -130q-117 0 -205 35v-311zM512 276h125q45 0 62.5 12.5t17.5 45.5v414h-125q-45 0 -62.5 -12.5t-17.5 -45.5v-414z" />
<glyph unicode="q" d="M61 512q0 283 105.5 413t335.5 130q227 0 334 -133l75 102h205v-1331l-409 -31v342q-88 -35 -205 -35q-229 0 -335 130t-106 413zM502 276h125q45 0 62.5 12.5t17.5 45.5v414h-125q-45 0 -62.5 -12.5t-17.5 -45.5v-414z" />
<glyph unicode="r" horiz-adv-x="757" d="M102 0v1024h205l113 -135q121 127 303 166l25 -398q-47 -4 -125 -31.5t-111 -50.5v-575h-410z" />
<glyph unicode="s" horiz-adv-x="1067" d="M51 39l51 295q145 -63 328 -64q51 0 145 17v80q-203 20 -311 56t-153 102.5t-45 183.5q0 178 110.5 262t345.5 84q236 0 443 -45l-47 -283q-98 27 -240 27q-106 0 -172 -21v-74q190 -20 301 -59t160 -106.5t49 -174.5q0 -182 -124 -266t-392 -84q-119 0 -239 18.5 t-210 51.5z" />
<glyph unicode="t" horiz-adv-x="745" d="M41 760v264h102v164l410 102v-266h141v-264h-141v-467q59 -10 121 -14l-19 -277q-137 -33 -247 -33q-135 0 -200 54.5t-65 169.5v567h-102z" />
<glyph unicode="u" d="M92 266v758h410v-778h125q43 0 61.5 13t18.5 44v721h409v-1024h-205l-102 102q-180 -133 -410 -133q-160 0 -233.5 71t-73.5 226z" />
<glyph unicode="v" horiz-adv-x="1093" d="M6 1024h400l131 -666h20l131 666h399l-233 -1024h-614z" />
<glyph unicode="w" horiz-adv-x="1638" d="M6 1024h400l100 -666h20l121 666h344l121 -666h21l100 666h399l-192 -1024h-543l-78 393l-78 -393h-542z" />
<glyph unicode="x" horiz-adv-x="1150" d="M6 0l326 535l-326 489h455l135 -203l111 203h438l-326 -535l326 -489h-455l-135 203l-111 -203h-438z" />
<glyph unicode="y" horiz-adv-x="1073" d="M6 1024h400l120 -563h21l121 563h399l-223 -922q-43 -180 -108.5 -281.5t-171 -145.5t-275.5 -44q-137 0 -246 33l18 215l246 31q57 8 86 23.5t44.5 48t27.5 100.5l4 20h-240z" />
<glyph unicode="z" horiz-adv-x="1085" d="M72 0v225l411 492l-6 12h-348l-27 295h897v-225l-411 -492l6 -12h420v-295h-942z" />
<glyph unicode="{" horiz-adv-x="735" d="M41 516v242l133 35l-31 596q-4 102 63.5 151t174 62.5t274.5 13.5l19 -297l-170 -14l31 -390q2 -12 2 -36q0 -156 -117 -230v-24q117 -74 117 -230q0 -25 -2 -37l-31 -383l170 -14l-19 -297q-168 0 -274.5 13.5t-175 62.5t-62.5 151l31 590z" />
<glyph unicode="|" horiz-adv-x="532" d="M143 -369v1811h246v-1811h-246z" />
<glyph unicode="}" horiz-adv-x="735" d="M61 -39l170 14l-30 383q-2 12 -2 37q0 156 116 230v24q-117 74 -116 230q0 25 2 36l30 390l-170 14l19 297q168 0 274.5 -13.5t174 -62.5t63.5 -151l-31 -596l133 -35v-242l-133 -35l31 -590q6 -102 -62.5 -151t-175 -62.5t-274.5 -13.5z" />
<glyph unicode="~" horiz-adv-x="1085" d="M102 516v272q84 68 187 68q57 0 115.5 -20.5t138.5 -59.5q88 -41 142 -60.5t110 -19.5q102 0 188 72v-272q-86 -72 -188 -72q-55 0 -109.5 19.5t-142.5 60.5q-80 39 -138.5 59.5t-115.5 20.5q-102 0 -187 -68z" />
<glyph unicode="&#xa1;" horiz-adv-x="608" d="M90 -223l82 794h266l82 -794q0 -55 -76 -56h-278q-76 0 -76 56zM113 868q0 104 40 145.5t152 41.5q115 0 155 -41t40 -146q0 -104 -40 -147t-155 -43q-113 0 -152.5 43t-39.5 147z" />
<glyph unicode="&#xa2;" horiz-adv-x="919" d="M61 645q0 256 91.5 387t287.5 152l33 362h246l-33 -366q135 -14 193 -35l-35 -283q-88 27 -203 27q-76 0 -107.5 -34t-31.5 -116v-329q33 -8 104 -9q143 0 258 54l35 -283q-143 -58 -307 -68l-33 -368h-246l35 389q-147 43 -217 170t-70 350z" />
<glyph unicode="&#xa3;" horiz-adv-x="1220" d="M102 0v205l86 65l21 267h-107v219h125l2 28q16 193 76 307.5t173.5 167t299.5 52.5q98 0 205 -15.5t172 -38.5l-80 -323q-49 16 -122.5 27.5t-133.5 11.5q-78 0 -108.5 -30t-34.5 -114l-6 -73h313l-20 -219h-312l-16 -199h452l52 -338h-1037z" />
<glyph unicode="&#xa4;" horiz-adv-x="1372" d="M76 102l207 287q-41 51 -59.5 128t-18.5 185q0 215 78 314l-207 287l213 129l217 -302q76 12 180 13q100 0 180 -13l215 302l213 -129l-204 -285q78 -98 77 -316q0 -110 -18.5 -187t-61.5 -128l207 -285l-215 -129l-215 303q-80 -12 -178 -12q-100 0 -178 12l-217 -303z M535 606q0 -47 21.5 -61.5t90.5 -14.5h187v269q0 45 -25 60t-94 15h-180v-268z" />
<glyph unicode="&#xa5;" horiz-adv-x="1187" d="M10 1280h430l154 -426l154 426h430l-211 -483h118v-219h-213l-45 -103h258v-219h-286v-256h-410v256h-287v219h258l-45 103h-213v219h119z" />
<glyph unicode="&#xa6;" horiz-adv-x="532" d="M143 319h246v-688h-246v688zM143 754v688h246v-688h-246z" />
<glyph unicode="&#xa7;" horiz-adv-x="1067" d="M51 -178l51 295q145 -63 328 -64q57 0 145 17v80q-203 20 -311 56t-153 102.5t-45 183.5q0 154 81 237q-43 31 -62 78t-19 113q0 178 110.5 262t345.5 84q244 0 443 -45l-47 -283q-104 27 -240 27q-106 0 -172 -21v-74q190 -20 301 -59t160 -106.5t49 -174.5 q0 -156 -92 -241q49 -33 70.5 -78t21.5 -109q0 -182 -124 -266t-392 -84q-123 0 -242 18.5t-207 51.5zM465 401l41 -4q74 -8 110 -14v235q-70 4 -151 17v-234z" />
<glyph unicode="&#xa8;" horiz-adv-x="1228" d="M53 1130zM54 1298q0 94 35.5 133t138.5 39q100 0 136 -38.5t36 -133.5q0 -94 -35 -131t-137 -37q-103 0 -138.5 37t-35.5 131zM482 1298q0 94 35.5 133t138.5 39q100 0 136 -38.5t36 -133.5q0 -94 -35 -131t-137 -37q-103 0 -138.5 37t-35.5 131z" />
<glyph unicode="&#xa9;" horiz-adv-x="1153" d="M61 883q0 266 125 390t392 124q266 0 390 -124t124 -390t-124 -391t-390 -125q-267 0 -392 124.5t-125 391.5zM164 883q0 -158 40 -249t130 -132t244 -41q153 0 242 41t129 132t40 249q0 156 -40 247t-129 132t-242 41q-154 0 -244 -41t-130 -131.5t-40 -247.5zM313 883 q0 176 65.5 248.5t223.5 72.5q41 0 91 -9t77 -19l-31 -160q-61 14 -123 14q-45 0 -63 -8t-18 -31v-246q14 -2 31.5 -4t35.5 -2q88 0 152 29l16 -178q-72 -29 -168 -29q-158 0 -223.5 73t-65.5 249z" />
<glyph unicode="&#xaa;" horiz-adv-x="886" d="M27 969q0 129 98 186t319 57h54v74q-27 6 -68 6q-145 0 -324 -43l-40 236q186 55 397 55q194 0 285.5 -69.5t91.5 -217.5v-536h-172l-84 80q-61 -51 -131 -78t-140 -27q-147 0 -216.5 67.5t-69.5 209.5zM55 299v168q0 68 29 93.5t102 25.5h635v-168q0 -66 -29.5 -92.5 t-103.5 -26.5h-633zM344 922h45q62 0 85.5 12t23.5 45v86h-47q-61 0 -84 -13.5t-23 -47.5v-82z" />
<glyph unicode="&#xab;" horiz-adv-x="1177" d="M51 410v204l398 359l165 -105l-204 -356l204 -356l-165 -105zM563 410v204l398 359l165 -105l-204 -356l204 -356l-165 -105z" />
<glyph unicode="&#xac;" horiz-adv-x="1085" d="M102 492v294h881v-581h-270v287h-611z" />
<glyph unicode="&#xad;" horiz-adv-x="716" d="M51 410v221q0 55 34 70.5t108 15.5h473v-221q0 -55 -34 -70.5t-108 -15.5h-473z" />
<glyph unicode="&#xae;" horiz-adv-x="1153" d="M61 883q0 266 125 390t392 124q266 0 390 -124t124 -390t-124 -391t-390 -125t-391.5 124.5t-125.5 391.5zM164 883q0 -158 40 -249t130 -132t244 -41t242.5 41t128.5 132t40 249q0 156 -40 247t-129 132t-242 41q-154 0 -244 -41t-130 -131.5t-40 -247.5zM328 575v615 h309q215 0 215 -217q0 -143 -88 -195l106 -203h-229l-80 179h-24v-179h-209zM537 918h51q23 0 32 7t9 23v41q0 16 -9.5 23.5t-31.5 7.5h-51v-102z" />
<glyph unicode="&#xaf;" horiz-adv-x="1228" d="M102 1163zM102 1294v129h506q49 0 71.5 -11t29 -36.5t6.5 -81.5v-131h-504q-49 0 -71.5 11.5t-30 38t-7.5 81.5z" />
<glyph unicode="&#xb0;" horiz-adv-x="833" d="M61 1087q0 181 84 268t273 87q186 0 270 -88t84 -267q0 -180 -84 -268t-270 -88q-188 0 -272.5 88t-84.5 268zM287 944h129q68 0 97.5 13.5t29.5 66.5v205h-117q-76 0 -107.5 -13.5t-31.5 -64.5v-207z" />
<glyph unicode="&#xb1;" horiz-adv-x="1085" d="M102 0v294h881v-294h-881zM102 0zM102 676v294h293v293h295v-293h293v-294h-293v-293h-295v293h-293z" />
<glyph unicode="&#xb2;" horiz-adv-x="942" d="M113 664v188q0 78 35.5 130.5t129 102.5t281.5 118v92q-39 8 -133 8q-133 0 -262 -25l-33 197q184 41 340 41q182 0 267 -57.5t85 -178.5q0 -88 -32.5 -139t-129 -100t-315.5 -129v-43h463v-205h-696zM113 664z" />
<glyph unicode="&#xb3;" horiz-adv-x="890" d="M84 645zM84 687l33 196q133 -27 260 -26q88 0 143 10v114l-248 35v129l248 41v109q-39 8 -129 8q-139 0 -258 -25l-33 197q184 41 340 41q174 0 259 -53.5t85 -161.5q0 -152 -133 -217v-6q133 -51 133 -197q0 -123 -84 -179t-276 -56q-170 0 -340 41z" />
<glyph unicode="&#xb4;" horiz-adv-x="1228" d="M205 1104zM205 1221l387 284q10 8 23 8q10 0 17 -4t20 -18l129 -152q18 -20 18 -34q0 -16 -22 -37l-78 -68q-23 -18 -53 -24l-357 -72z" />
<glyph unicode="&#xb5;" horiz-adv-x="1228" d="M102 -338v1362h410v-778h63q74 0 108 15t34 71v692h409v-1024h-204l-88 88q-76 -88 -252 -88h-148l-65 -338h-267z" />
<glyph unicode="&#xb6;" horiz-adv-x="1236" d="M61 856q0 424 441 424h653v-338h-102v-942h-400v942h-61v-942h-449v102l236 74v270q-156 23 -237 126.5t-81 283.5z" />
<glyph unicode="&#xb7;" horiz-adv-x="567" d="M61 510q0 82 18.5 128t67 68.5t138.5 22.5t137 -22.5t65.5 -68.5t18.5 -128t-18.5 -127t-65.5 -66.5t-137 -21.5t-138.5 21.5t-67 66.5t-18.5 127z" />
<glyph unicode="&#xb8;" horiz-adv-x="1228" d="M0 0zM0 -328l22 181h47q55 0 71.5 15t16.5 71v104h123q72 -27 117 -84t45 -125q0 -92 -62.5 -146.5t-166.5 -54.5q-115 0 -213 39z" />
<glyph unicode="&#xb9;" horiz-adv-x="845" d="M86 664zM86 1254v223l494 39v-647h174v-205h-654v205h234v403z" />
<glyph unicode="&#xba;" horiz-adv-x="1087" d="M86 1147q0 223 110.5 328.5t346.5 105.5q238 0 348 -105.5t110 -328.5t-110.5 -328.5t-347.5 -105.5q-236 0 -346.5 106.5t-110.5 327.5zM125 307v168q0 68 31.5 93.5t113.5 25.5h691v-168q0 -66 -32 -92.5t-114 -26.5h-690zM453 969h112q41 0 55.5 9t14.5 36v311h-115 q-39 0 -53 -9t-14 -36v-311z" />
<glyph unicode="&#xbb;" horiz-adv-x="1177" d="M51 156l205 356l-205 356l166 105l397 -359v-204l-397 -359zM563 156l205 356l-205 356l166 105l397 -359v-204l-397 -359z" />
<glyph unicode="&#xbc;" horiz-adv-x="2254" d="M86 0zM86 1049v223l494 39v-647h174v-205h-654v205h234v403zM723 -82l551 1393q16 29 32.5 40t55.5 11h105l-551 -1393q-17 -28 -33.5 -39.5t-54.5 -11.5h-105zM1346 147v148l260 536h447v-479h96v-205h-96v-147h-246v147h-461zM1606 352h201v293h-45z" />
<glyph unicode="&#xbd;" horiz-adv-x="2285" d="M86 0zM86 1049v223l494 39v-647h174v-205h-654v205h234v403zM723 -82l551 1393q16 29 32.5 40t55.5 11h105l-551 -1393q-17 -28 -33.5 -39.5t-54.5 -11.5h-105zM1456 0v188q0 78 35.5 130.5t129 102.5t281.5 118v92q-39 8 -133 8q-133 0 -262 -25l-33 197q184 41 340 41 q182 0 267 -57.5t85 -178.5q0 -88 -32.5 -139t-129 -100t-315.5 -129v-43h463v-205h-696z" />
<glyph unicode="&#xbe;" horiz-adv-x="2299" d="M84 0zM84 481l33 197q133 -27 260 -27q88 0 143 11v114l-248 35v129l248 41v109q-39 8 -129 8q-139 0 -258 -25l-33 197q184 41 340 41q174 0 259 -53.5t85 -161.5q0 -152 -133 -217v-7q133 -51 133 -196q0 -123 -84 -179.5t-276 -56.5q-170 0 -340 41zM768 -82l551 1393 q16 29 32.5 40t55.5 11h105l-551 -1393q-17 -28 -33.5 -39.5t-54.5 -11.5h-105zM1391 147v148l260 536h447v-479h96v-205h-96v-147h-246v147h-461zM1651 352h201v293h-45z" />
<glyph unicode="&#xbf;" horiz-adv-x="1081" d="M82 53q0 98 40 162t136 113t277 96l12 147h266l31 -272q0 -41 -28 -63.5t-105 -45.5l-189 -55v-84q66 -10 129 -10q78 0 161 12.5t138 28.5l56 -283q-227 -68 -433 -67q-182 0 -288.5 31.5t-154.5 101t-48 188.5zM489 868q0 104 40 145.5t153 41.5q115 0 155 -41t40 -146 q0 -104 -40 -147t-155 -43q-113 0 -153 43t-40 147z" />
<glyph unicode="&#xc0;" horiz-adv-x="1312" d="M10 0l328 1280h637l328 -1280h-410l-51 203h-371l-51 -203h-410zM10 0zM360 1561q0 14 19 34l129 152q12 14 19 18t18 4q12 0 22 -8l387 -284l-84 -117l-356 72q-31 6 -53 24l-78 68q-23 20 -23 37zM549 500h215l-98 387h-19z" />
<glyph unicode="&#xc1;" horiz-adv-x="1312" d="M10 0l328 1280h637l328 -1280h-410l-51 203h-371l-51 -203h-410zM10 0zM422 1477l387 284q10 8 23 8q10 0 17 -4t20 -18l129 -152q18 -20 18 -34q0 -16 -22 -37l-78 -68q-23 -18 -53 -24l-357 -72zM549 500h215l-98 387h-19z" />
<glyph unicode="&#xc2;" horiz-adv-x="1312" d="M10 0l328 1280h637l328 -1280h-410l-51 203h-371l-51 -203h-410zM10 0zM365 1456l211 277q12 18 33 18h98q20 0 33 -18l211 -277l-103 -100l-190 149l-191 -149zM549 500h215l-98 387h-19z" />
<glyph unicode="&#xc3;" horiz-adv-x="1312" d="M10 0l328 1280h637l328 -1280h-410l-51 203h-371l-51 -203h-410zM10 0zM278 1524q113 80 187.5 130t107.5 64.5t59 14.5q43 0 75 -19.5t75 -73.5l168 82l86 -145q-113 -80 -187.5 -130t-107.5 -64.5t-59 -14.5q-41 0 -74 20.5t-76 71.5l-168 -82zM549 500h215l-98 387 h-19z" />
<glyph unicode="&#xc4;" horiz-adv-x="1312" d="M10 0l328 1280h637l328 -1280h-410l-51 203h-371l-51 -203h-410zM10 0zM271 1554q0 94 35.5 133t138.5 39q100 0 136 -38.5t36 -133.5q0 -94 -35 -131t-137 -37q-103 0 -138.5 37t-35.5 131zM549 500h215l-98 387h-19zM699 1554q0 94 35.5 133t138.5 39q100 0 136 -38.5 t36 -133.5q0 -94 -35 -131t-137 -37q-103 0 -138.5 37t-35.5 131z" />
<glyph unicode="&#xc5;" horiz-adv-x="1312" d="M10 0l328 1280h637l328 -1280h-410l-51 203h-371l-51 -203h-410zM10 0zM420 1573q0 119 55.5 177t182.5 58q125 0 180 -58t55 -177q0 -121 -55 -179.5t-180 -58.5q-127 0 -182.5 58.5t-55.5 179.5zM549 500h215l-98 387h-19zM580 1487h65q45 0 65.5 9t20.5 44v117h-59 q-49 0 -70.5 -9.5t-21.5 -41.5v-119z" />
<glyph unicode="&#xc6;" horiz-adv-x="1716" d="M10 0l332 1280h1208l-51 -328h-440l45 -172h364v-297h-286l39 -155h434v-328h-781l-47 203h-338l-47 -203h-432zM563 528h189l-82 359h-23z" />
<glyph unicode="&#xc7;" horiz-adv-x="1044" d="M61 639q0 260 55.5 403.5t184.5 206t363 62.5q88 0 191 -16.5t149 -37.5l-52 -323q-59 16 -134 27.5t-124 11.5q-111 0 -151.5 -31t-40.5 -113v-495q92 -16 162 -17q84 0 166.5 13.5t142.5 36.5l31 -344q-125 -45 -293 -52q55 -61 55 -137q0 -92 -62.5 -146.5 t-166.5 -54.5q-115 0 -213 39l22 181h47q55 0 71.5 15t16.5 71v38q-160 18 -250 89t-130 208.5t-40 364.5z" />
<glyph unicode="&#xc8;" horiz-adv-x="1064" d="M102 0v1280h902l-52 -338h-440v-154h410v-296h-410v-154h481v-338h-891zM102 0zM266 1561q0 14 19 34l129 152q12 14 19 18t18 4q12 0 22 -8l387 -284l-84 -117l-356 72q-31 6 -53 24l-78 68q-23 20 -23 37z" />
<glyph unicode="&#xc9;" horiz-adv-x="1064" d="M102 0v1280h902l-52 -338h-440v-154h410v-296h-410v-154h481v-338h-891zM102 0zM327 1477l387 284q10 8 23 8q10 0 17 -4t20 -18l129 -152q18 -20 18 -34q0 -16 -22 -37l-78 -68q-23 -18 -53 -24l-357 -72z" />
<glyph unicode="&#xca;" horiz-adv-x="1064" d="M102 0v1280h902l-52 -338h-440v-154h410v-296h-410v-154h481v-338h-891zM102 0zM270 1456l211 277q12 18 33 18h98q20 0 33 -18l211 -277l-103 -100l-190 149l-191 -149z" />
<glyph unicode="&#xcb;" horiz-adv-x="1064" d="M102 0v1280h902l-52 -338h-440v-154h410v-296h-410v-154h481v-338h-891zM102 0zM177 1554q0 94 35.5 133t138.5 39q100 0 136 -38.5t36 -133.5q0 -94 -35 -131t-137 -37q-103 0 -138.5 37t-35.5 131zM605 1554q0 94 35.5 133t138.5 39q100 0 136 -38.5t36 -133.5 q0 -94 -35 -131t-137 -37q-103 0 -138.5 37t-35.5 131z" />
<glyph unicode="&#xcc;" horiz-adv-x="614" d="M10 0zM10 1561q0 14 19 34l129 152q12 14 19 18t18 4q12 0 22 -8l387 -284l-84 -117l-356 72q-31 6 -53 24l-78 68q-23 20 -23 37zM102 0v1280h410v-1280h-410z" />
<glyph unicode="&#xcd;" horiz-adv-x="614" d="M71 1477l387 284q10 8 23 8q10 0 17 -4t20 -18l129 -152q18 -20 18 -34q0 -16 -22 -37l-78 -68q-23 -18 -53 -24l-357 -72zM72 0zM102 0v1280h410v-1280h-410z" />
<glyph unicode="&#xce;" horiz-adv-x="614" d="M14 0zM14 1456l211 277q12 18 33 18h98q20 0 33 -18l211 -277l-103 -100l-190 149l-191 -149zM102 0v1280h410v-1280h-410z" />
<glyph unicode="&#xcf;" horiz-adv-x="614" d="M-79 1554q0 94 35.5 133t138.5 39q100 0 136 -38.5t36 -133.5q0 -94 -35 -131t-137 -37q-103 0 -138.5 37t-35.5 131zM0 0zM102 0v1280h410v-1280h-410zM349 1554q0 94 35.5 133t138.5 39q100 0 136 -38.5t36 -133.5q0 -94 -35 -131t-137 -37q-103 0 -138.5 37t-35.5 131 z" />
<glyph unicode="&#xd0;" horiz-adv-x="1341" d="M0 498v168q0 63 22.5 88.5t79.5 29.5v496h572q241 0 370.5 -56.5t182.5 -192.5t53 -392t-53 -391t-182.5 -191.5t-370.5 -56.5h-572v498h-102zM512 319h168q90 0 125 28t35 102v382q0 74 -35 102t-125 28h-168v-177h184v-168q0 -66 -26.5 -92t-94.5 -26h-63v-179z" />
<glyph unicode="&#xd1;" horiz-adv-x="1382" d="M113 0v1280h405l279 -449q51 -86 51 -145h12v594h410v-1280h-406l-278 449q-51 86 -51 145h-13v-594h-409zM113 0zM313 1524q113 80 187.5 130t107.5 64.5t59 14.5q43 0 75 -19.5t75 -73.5l168 82l86 -145q-113 -80 -187.5 -130t-107.5 -64.5t-59 -14.5q-41 0 -74 20.5 t-76 71.5l-168 -82z" />
<glyph unicode="&#xd2;" horiz-adv-x="1351" d="M61 0zM61 639q0 258 57.5 402.5t189.5 207t368 62.5t368 -62.5t189 -207t57 -402.5t-57 -401.5t-189.5 -206t-367.5 -62.5q-236 0 -368 62.5t-189.5 206t-57.5 401.5zM379 1561q0 14 19 34l129 152q12 14 19 18t18 4q12 0 22 -8l387 -284l-84 -117l-356 72q-31 6 -53 24 l-78 68q-23 20 -23 37zM502 319h186q92 0 127 24t35 85v533h-188q-90 0 -125 -24t-35 -85v-533z" />
<glyph unicode="&#xd3;" horiz-adv-x="1351" d="M61 0zM61 639q0 258 57.5 402.5t189.5 207t368 62.5t368 -62.5t189 -207t57 -402.5t-57 -401.5t-189.5 -206t-367.5 -62.5q-236 0 -368 62.5t-189.5 206t-57.5 401.5zM440 1477l387 284q10 8 23 8q10 0 17 -4t20 -18l129 -152q18 -20 18 -34q0 -16 -22 -37l-78 -68 q-23 -18 -53 -24l-357 -72zM502 319h186q92 0 127 24t35 85v533h-188q-90 0 -125 -24t-35 -85v-533z" />
<glyph unicode="&#xd4;" horiz-adv-x="1351" d="M61 0zM61 639q0 258 57.5 402.5t189.5 207t368 62.5t368 -62.5t189 -207t57 -402.5t-57 -401.5t-189.5 -206t-367.5 -62.5q-236 0 -368 62.5t-189.5 206t-57.5 401.5zM383 1456l211 277q12 18 33 18h98q20 0 33 -18l211 -277l-103 -100l-190 149l-191 -149zM502 319h186 q92 0 127 24t35 85v533h-188q-90 0 -125 -24t-35 -85v-533z" />
<glyph unicode="&#xd5;" horiz-adv-x="1351" d="M61 0zM61 639q0 258 57.5 402.5t189.5 207t368 62.5t368 -62.5t189 -207t57 -402.5t-57 -401.5t-189.5 -206t-367.5 -62.5q-236 0 -368 62.5t-189.5 206t-57.5 401.5zM297 1524q113 80 187.5 130t107.5 64.5t59 14.5q43 0 75 -19.5t75 -73.5l168 82l86 -145 q-113 -80 -187.5 -130t-107.5 -64.5t-59 -14.5q-41 0 -74 20.5t-76 71.5l-168 -82zM502 319h186q92 0 127 24t35 85v533h-188q-90 0 -125 -24t-35 -85v-533z" />
<glyph unicode="&#xd6;" horiz-adv-x="1351" d="M61 0zM61 639q0 258 57.5 402.5t189.5 207t368 62.5t368 -62.5t189 -207t57 -402.5t-57 -401.5t-189.5 -206t-367.5 -62.5q-236 0 -368 62.5t-189.5 206t-57.5 401.5zM289 1554q0 94 35.5 133t138.5 39q100 0 136 -38.5t36 -133.5q0 -94 -35 -131t-137 -37 q-103 0 -138.5 37t-35.5 131zM502 319h186q92 0 127 24t35 85v533h-188q-90 0 -125 -24t-35 -85v-533zM717 1554q0 94 35.5 133t138.5 39q100 0 136 -38.5t36 -133.5q0 -94 -35 -131t-137 -37q-103 0 -138.5 37t-35.5 131z" />
<glyph unicode="&#xd7;" horiz-adv-x="1085" d="M96 395l244 244l-244 244l203 202l244 -243l243 243l203 -202l-244 -244l244 -244l-203 -202l-243 243l-244 -243z" />
<glyph unicode="&#xd8;" horiz-adv-x="1351" d="M61 639q0 258 57.5 402.5t189.5 207t368 62.5q104 0 188 -13l33 80q14 33 32.5 44.5t55.5 11.5h105l-74 -174q149 -60 211.5 -205.5t62.5 -415.5q0 -258 -57 -401.5t-189.5 -206t-367.5 -62.5q-104 0 -189 13l-32 -80q-14 -35 -33 -45.5t-55 -10.5h-105l72 174 q-147 59 -210 205t-63 414zM502 319h186q92 0 127 24t35 85v533h-188q-90 0 -125 -24t-35 -85v-533z" />
<glyph unicode="&#xd9;" horiz-adv-x="1298" d="M82 0zM82 479v801h410v-961h163q92 0 122 21.5t30 87.5v852h410v-801q0 -205 -49.5 -313.5t-170 -152.5t-350.5 -44q-229 0 -348 44t-168 151.5t-49 314.5zM354 1561q0 14 19 34l129 152q12 14 19 18t18 4q12 0 22 -8l387 -284l-84 -117l-356 72q-31 6 -53 24l-78 68 q-23 20 -23 37z" />
<glyph unicode="&#xda;" horiz-adv-x="1298" d="M82 0zM82 479v801h410v-961h163q92 0 122 21.5t30 87.5v852h410v-801q0 -205 -49.5 -313.5t-170 -152.5t-350.5 -44q-229 0 -348 44t-168 151.5t-49 314.5zM416 1477l387 284q10 8 23 8q10 0 17 -4t20 -18l129 -152q18 -20 18 -34q0 -16 -22 -37l-78 -68q-23 -18 -53 -24 l-357 -72z" />
<glyph unicode="&#xdb;" horiz-adv-x="1298" d="M82 0zM82 479v801h410v-961h163q92 0 122 21.5t30 87.5v852h410v-801q0 -205 -49.5 -313.5t-170 -152.5t-350.5 -44q-229 0 -348 44t-168 151.5t-49 314.5zM359 1456l211 277q12 18 33 18h98q20 0 33 -18l211 -277l-103 -100l-190 149l-191 -149z" />
<glyph unicode="&#xdc;" horiz-adv-x="1298" d="M82 0zM82 479v801h410v-961h163q92 0 122 21.5t30 87.5v852h410v-801q0 -205 -49.5 -313.5t-170 -152.5t-350.5 -44q-229 0 -348 44t-168 151.5t-49 314.5zM265 1554q0 94 35.5 133t138.5 39q100 0 136 -38.5t36 -133.5q0 -94 -35 -131t-137 -37q-103 0 -138.5 37 t-35.5 131zM693 1554q0 94 35.5 133t138.5 39q100 0 136 -38.5t36 -133.5q0 -94 -35 -131t-137 -37q-103 0 -138.5 37t-35.5 131z" />
<glyph unicode="&#xdd;" horiz-adv-x="1187" d="M10 0zM10 1280h430l154 -426l154 426h430l-379 -870v-410h-410v410zM358 1477l387 284q10 8 23 8q10 0 17 -4t20 -18l129 -152q18 -20 18 -34q0 -16 -22 -37l-78 -68q-23 -18 -53 -24l-357 -72z" />
<glyph unicode="&#xde;" horiz-adv-x="1208" d="M102 0v1280h410v-154h174q262 0 377 -110.5t115 -362.5q0 -254 -113 -375.5t-348 -121.5h-205v-156h-410zM512 453h156q45 0 62.5 18t17.5 68v204q0 49 -17.5 67.5t-62.5 18.5h-156v-376z" />
<glyph unicode="&#xdf;" horiz-adv-x="1402" d="M61 760v264h103q18 135 73.5 213t165 111.5t293.5 33.5q240 0 371 -86t131 -241q0 -88 -35 -166t-119 -184q170 -76 239 -164t69 -232q0 -168 -106.5 -254t-315.5 -86q-96 0 -180 8.5t-113 20.5l51 295q104 -23 176 -23q76 0 78 9v122q-131 41 -193.5 74t-86 73 t-23.5 107q0 47 20.5 85t61.5 96q35 43 51 73.5t16 61.5q0 111 -143 110q-49 0 -72 -8v-1073h-409v760h-103z" />
<glyph unicode="&#xe0;" horiz-adv-x="1157" d="M51 0zM51 317q0 125 53.5 199t171 106.5t318.5 32.5h61v93q-31 8 -102 8q-190 0 -406 -54l-49 283q229 70 496 70q244 0 357.5 -86t113.5 -273v-696h-205l-102 102q-78 -66 -167 -99.5t-181 -33.5q-186 0 -272.5 84t-86.5 264zM297 1305q0 14 19 34l129 152q12 14 19 18 t18 4q12 0 22 -8l387 -284l-84 -117l-356 72q-31 6 -53 24l-78 68q-23 20 -23 37zM428 246h86q80 0 110.5 16.5t30.5 61.5v127h-86q-80 0 -110.5 -18.5t-30.5 -67.5v-119z" />
<glyph unicode="&#xe1;" horiz-adv-x="1157" d="M51 0zM51 317q0 125 53.5 199t171 106.5t318.5 32.5h61v93q-31 8 -102 8q-190 0 -406 -54l-49 283q229 70 496 70q244 0 357.5 -86t113.5 -273v-696h-205l-102 102q-78 -66 -167 -99.5t-181 -33.5q-186 0 -272.5 84t-86.5 264zM358 1221l387 284q10 8 23 8q10 0 17 -4 t20 -18l129 -152q18 -20 18 -34q0 -16 -22 -37l-78 -68q-23 -18 -53 -24l-357 -72zM428 246h86q80 0 110.5 16.5t30.5 61.5v127h-86q-80 0 -110.5 -18.5t-30.5 -67.5v-119z" />
<glyph unicode="&#xe2;" horiz-adv-x="1157" d="M51 0zM51 317q0 125 53.5 199t171 106.5t318.5 32.5h61v93q-31 8 -102 8q-190 0 -406 -54l-49 283q229 70 496 70q244 0 357.5 -86t113.5 -273v-696h-205l-102 102q-78 -66 -167 -99.5t-181 -33.5q-186 0 -272.5 84t-86.5 264zM301 1200l211 277q12 18 33 18h98 q20 0 33 -18l211 -277l-103 -100l-190 149l-191 -149zM428 246h86q80 0 110.5 16.5t30.5 61.5v127h-86q-80 0 -110.5 -18.5t-30.5 -67.5v-119z" />
<glyph unicode="&#xe3;" horiz-adv-x="1157" d="M51 0zM51 317q0 125 53.5 199t171 106.5t318.5 32.5h61v93q-31 8 -102 8q-190 0 -406 -54l-49 283q229 70 496 70q244 0 357.5 -86t113.5 -273v-696h-205l-102 102q-78 -66 -167 -99.5t-181 -33.5q-186 0 -272.5 84t-86.5 264zM215 1268q113 80 187.5 130t107.5 64.5 t59 14.5q43 0 75 -19.5t75 -73.5l168 82l86 -145q-113 -80 -187.5 -130t-107.5 -64.5t-59 -14.5q-41 0 -74 20.5t-76 71.5l-168 -82zM428 246h86q80 0 110.5 16.5t30.5 61.5v127h-86q-80 0 -110.5 -18.5t-30.5 -67.5v-119z" />
<glyph unicode="&#xe4;" horiz-adv-x="1157" d="M51 0zM51 317q0 125 53.5 199t171 106.5t318.5 32.5h61v93q-31 8 -102 8q-190 0 -406 -54l-49 283q229 70 496 70q244 0 357.5 -86t113.5 -273v-696h-205l-102 102q-78 -66 -167 -99.5t-181 -33.5q-186 0 -272.5 84t-86.5 264zM207 1298q0 94 35.5 133t138.5 39 q100 0 136 -38.5t36 -133.5q0 -94 -35 -131t-137 -37q-103 0 -138.5 37t-35.5 131zM428 246h86q80 0 110.5 16.5t30.5 61.5v127h-86q-80 0 -110.5 -18.5t-30.5 -67.5v-119zM635 1298q0 94 35.5 133t138.5 39q100 0 136 -38.5t36 -133.5q0 -94 -35 -131t-137 -37 q-103 0 -138.5 37t-35.5 131z" />
<glyph unicode="&#xe5;" horiz-adv-x="1157" d="M51 0zM51 317q0 125 53.5 199t171 106.5t318.5 32.5h61v93q-31 8 -102 8q-190 0 -406 -54l-49 283q229 70 496 70q244 0 357.5 -86t113.5 -273v-696h-205l-102 102q-78 -66 -167 -99.5t-181 -33.5q-186 0 -272.5 84t-86.5 264zM356 1317q0 119 55.5 177t182.5 58 q125 0 180 -58t55 -177q0 -121 -55 -179.5t-180 -58.5q-127 0 -182.5 58.5t-55.5 179.5zM428 246h86q80 0 110.5 16.5t30.5 61.5v127h-86q-80 0 -110.5 -18.5t-30.5 -67.5v-119zM516 1231h65q45 0 65.5 9t20.5 44v117h-59q-49 0 -70.5 -9.5t-21.5 -41.5v-119z" />
<glyph unicode="&#xe6;" horiz-adv-x="1730" d="M51 317q0 125 53.5 199t171 106.5t318.5 32.5h61v93q-31 8 -102 8q-190 0 -406 -54l-49 283q229 70 496 70q186 0 289 -47q117 47 284 47q188 0 291 -32t147 -106.5t44 -209.5q0 -125 -57.5 -199t-183.5 -106.5t-343 -32.5v-93q49 -8 143 -8q177 1 365 54l49 -283 q-217 -70 -455 -70q-281 0 -411 131q-78 -63 -166 -97t-180 -34q-186 0 -272.5 84t-86.5 264zM428 246h86q80 0 110.5 16.5t30.5 61.5v127h-86q-80 0 -110.5 -18.5t-30.5 -67.5v-119zM1065 573h74q80 0 110.5 18.5t30.5 67.5v99h-74q-80 0 -110.5 -16.5t-30.5 -61.5v-107z " />
<glyph unicode="&#xe7;" horiz-adv-x="919" d="M61 512q0 281 113 412t354 131q90 0 196.5 -13.5t154.5 -29.5l-35 -283q-88 27 -203 27q-76 0 -107.5 -34t-31.5 -116v-330q33 -8 104 -8q143 0 258 54l35 -283q-117 -48 -254 -64q59 -63 60 -141q0 -92 -62.5 -146.5t-167.5 -54.5q-115 0 -213 39l23 181h47 q55 0 71.5 15t16.5 71v38q-184 27 -271.5 157t-87.5 378z" />
<glyph unicode="&#xe8;" horiz-adv-x="1167" d="M61 0zM61 512q0 281 131.5 412t411.5 131q188 0 290.5 -32t146.5 -106.5t44 -209.5q0 -125 -57 -199t-183 -106.5t-343 -32.5v-93q43 -8 143 -8q170 1 365 54l49 -283q-211 -70 -455 -70q-279 0 -411 132t-132 411zM307 1305q0 14 19 34l129 152q12 14 19 18t18 4 q12 0 22 -8l387 -284l-84 -117l-356 72q-31 6 -53 24l-78 68q-23 20 -23 37zM502 573h73q80 0 111 18.5t31 67.5v99h-74q-80 0 -110.5 -16.5t-30.5 -61.5v-107z" />
<glyph unicode="&#xe9;" horiz-adv-x="1167" d="M61 0zM61 512q0 281 131.5 412t411.5 131q188 0 290.5 -32t146.5 -106.5t44 -209.5q0 -125 -57 -199t-183 -106.5t-343 -32.5v-93q43 -8 143 -8q170 1 365 54l49 -283q-211 -70 -455 -70q-279 0 -411 132t-132 411zM368 1221l387 284q10 8 23 8q10 0 17 -4t20 -18 l129 -152q18 -20 18 -34q0 -16 -22 -37l-78 -68q-23 -18 -53 -24l-357 -72zM502 573h73q80 0 111 18.5t31 67.5v99h-74q-80 0 -110.5 -16.5t-30.5 -61.5v-107z" />
<glyph unicode="&#xea;" horiz-adv-x="1167" d="M61 0zM61 512q0 281 131.5 412t411.5 131q188 0 290.5 -32t146.5 -106.5t44 -209.5q0 -125 -57 -199t-183 -106.5t-343 -32.5v-93q43 -8 143 -8q170 1 365 54l49 -283q-211 -70 -455 -70q-279 0 -411 132t-132 411zM311 1200l211 277q12 18 33 18h98q20 0 33 -18 l211 -277l-103 -100l-190 149l-191 -149zM502 573h73q80 0 111 18.5t31 67.5v99h-74q-80 0 -110.5 -16.5t-30.5 -61.5v-107z" />
<glyph unicode="&#xeb;" horiz-adv-x="1167" d="M61 0zM61 512q0 281 131.5 412t411.5 131q188 0 290.5 -32t146.5 -106.5t44 -209.5q0 -125 -57 -199t-183 -106.5t-343 -32.5v-93q43 -8 143 -8q170 1 365 54l49 -283q-211 -70 -455 -70q-279 0 -411 132t-132 411zM217 1298q0 94 35.5 133t138.5 39q100 0 136 -38.5 t36 -133.5q0 -94 -35 -131t-137 -37q-103 0 -138.5 37t-35.5 131zM502 573h73q80 0 111 18.5t31 67.5v99h-74q-80 0 -110.5 -16.5t-30.5 -61.5v-107zM645 1298q0 94 35.5 133t138.5 39q100 0 136 -38.5t36 -133.5q0 -94 -35 -131t-137 -37q-103 0 -138.5 37t-35.5 131z" />
<glyph unicode="&#xec;" horiz-adv-x="614" d="M10 0zM10 1305q0 14 19 34l129 152q12 14 19 18t18 4q12 0 22 -8l387 -284l-84 -117l-356 72q-31 6 -53 24l-78 68q-23 20 -23 37zM102 0v973l410 51v-1024h-410z" />
<glyph unicode="&#xed;" horiz-adv-x="614" d="M71 1221l387 284q10 8 23 8q10 0 17 -4t20 -18l129 -152q18 -20 18 -34q0 -16 -22 -37l-78 -68q-23 -18 -53 -24l-357 -72zM72 0zM102 0v973l410 51v-1024h-410z" />
<glyph unicode="&#xee;" horiz-adv-x="614" d="M14 0zM14 1200l211 277q12 18 33 18h98q20 0 33 -18l211 -277l-103 -100l-190 149l-191 -149zM102 0v973l410 51v-1024h-410z" />
<glyph unicode="&#xef;" horiz-adv-x="614" d="M-79 1298q0 94 35.5 133t138.5 39q100 0 136 -38.5t36 -133.5q0 -94 -35 -131t-137 -37q-103 0 -138.5 37t-35.5 131zM0 0zM102 0v973l410 51v-1024h-410zM349 1298q0 94 35.5 133t138.5 39q100 0 136 -38.5t36 -133.5q0 -94 -35 -131t-137 -37q-103 0 -138.5 37 t-35.5 131z" />
<glyph unicode="&#xf0;" horiz-adv-x="1212" d="M61 440q0 244 131.5 357.5t411.5 113.5h105q-18 63 -33 107l-156 -51l-28 82q-18 55 -19 90q0 45 53 63l60 21q-27 51 -80 127l377 106q37 -49 71 -113l160 54l29 -82q18 -55 18 -90q0 -45 -53 -64l-61 -20q47 -131 73.5 -271.5t26.5 -265.5v-82q0 -285 -131 -419 t-412 -134t-412 115t-131 356zM502 276h125q45 0 62.5 12.5t17.5 45.5v270h-125q-45 0 -62.5 -12t-17.5 -45v-271z" />
<glyph unicode="&#xf1;" d="M102 0v1024h205l103 -102q180 133 409 133q143 0 225 -62.5t82 -173.5v-819h-409v717h-125q-43 0 -61.5 -13.5t-18.5 -44.5v-659h-410zM102 0zM252 1268q113 80 187.5 130t107.5 64.5t59 14.5q43 0 75 -19.5t75 -73.5l168 82l86 -145q-113 -80 -187.5 -130t-107.5 -64.5 t-59 -14.5q-41 0 -74 20.5t-76 71.5l-168 -82z" />
<glyph unicode="&#xf2;" horiz-adv-x="1208" d="M61 0zM61 512q0 281 131.5 412t411.5 131q281 0 412 -131t131 -412t-131 -412t-412 -131q-278 0 -410.5 132t-132.5 411zM307 1305q0 14 19 34l129 152q12 14 19 18t18 4q12 0 22 -8l387 -284l-84 -117l-356 72q-31 6 -53 24l-78 68q-23 20 -23 37zM502 276h125 q45 0 62.5 12.5t17.5 45.5v414h-125q-45 0 -62.5 -12.5t-17.5 -45.5v-414z" />
<glyph unicode="&#xf3;" horiz-adv-x="1208" d="M61 0zM61 512q0 281 131.5 412t411.5 131q281 0 412 -131t131 -412t-131 -412t-412 -131q-278 0 -410.5 132t-132.5 411zM368 1221l387 284q10 8 23 8q10 0 17 -4t20 -18l129 -152q18 -20 18 -34q0 -16 -22 -37l-78 -68q-23 -18 -53 -24l-357 -72zM502 276h125 q45 0 62.5 12.5t17.5 45.5v414h-125q-45 0 -62.5 -12.5t-17.5 -45.5v-414z" />
<glyph unicode="&#xf4;" horiz-adv-x="1208" d="M61 0zM61 512q0 281 131.5 412t411.5 131q281 0 412 -131t131 -412t-131 -412t-412 -131q-278 0 -410.5 132t-132.5 411zM311 1200l211 277q12 18 33 18h98q20 0 33 -18l211 -277l-103 -100l-190 149l-191 -149zM502 276h125q45 0 62.5 12.5t17.5 45.5v414h-125 q-45 0 -62.5 -12.5t-17.5 -45.5v-414z" />
<glyph unicode="&#xf5;" horiz-adv-x="1208" d="M61 0zM61 512q0 281 131.5 412t411.5 131q281 0 412 -131t131 -412t-131 -412t-412 -131q-278 0 -410.5 132t-132.5 411zM225 1268q113 80 187.5 130t107.5 64.5t59 14.5q43 0 75 -19.5t75 -73.5l168 82l86 -145q-113 -80 -187.5 -130t-107.5 -64.5t-59 -14.5 q-41 0 -74 20.5t-76 71.5l-168 -82zM502 276h125q45 0 62.5 12.5t17.5 45.5v414h-125q-45 0 -62.5 -12.5t-17.5 -45.5v-414z" />
<glyph unicode="&#xf6;" horiz-adv-x="1208" d="M61 0zM61 512q0 281 131.5 412t411.5 131q281 0 412 -131t131 -412t-131 -412t-412 -131q-278 0 -410.5 132t-132.5 411zM217 1298q0 94 35.5 133t138.5 39q100 0 136 -38.5t36 -133.5q0 -94 -35 -131t-137 -37q-103 0 -138.5 37t-35.5 131zM502 276h125q45 0 62.5 12.5 t17.5 45.5v414h-125q-45 0 -62.5 -12.5t-17.5 -45.5v-414zM645 1298q0 94 35.5 133t138.5 39q100 0 136 -38.5t36 -133.5q0 -94 -35 -131t-137 -37q-103 0 -138.5 37t-35.5 131z" />
<glyph unicode="&#xf7;" horiz-adv-x="1085" d="M102 492v294h881v-294h-881zM377 223q0 92 33.5 129t132.5 37q98 0 132 -37t34 -129q0 -90 -34 -125t-132 -35t-132 35t-34 125zM377 1051q0 92 33.5 129t132.5 37q98 0 132 -37t34 -129q0 -90 -34 -125t-132 -35t-132 35t-34 125z" />
<glyph unicode="&#xf8;" horiz-adv-x="1208" d="M61 512q0 281 131.5 412t411.5 131q86 0 158 -13l63 140q14 33 33 42t55 9h105l-109 -236q121 -57 179.5 -176t58.5 -309q0 -281 -131 -412t-412 -131q-84 0 -158 13l-63 -142q-14 -33 -32.5 -42t-55.5 -9h-105l109 238q-121 57 -179.5 177t-58.5 308zM502 276h125 q45 0 62.5 12.5t17.5 45.5v414h-125q-45 0 -62.5 -12.5t-17.5 -45.5v-414z" />
<glyph unicode="&#xf9;" d="M92 0zM92 266v758h410v-778h125q43 0 61.5 13t18.5 44v721h409v-1024h-205l-102 102q-180 -133 -410 -133q-160 0 -233.5 71t-73.5 226zM313 1305q0 14 19 34l129 152q12 14 19 18t18 4q12 0 22 -8l387 -284l-84 -117l-356 72q-31 6 -53 24l-78 68q-23 20 -23 37z" />
<glyph unicode="&#xfa;" d="M92 0zM92 266v758h410v-778h125q43 0 61.5 13t18.5 44v721h409v-1024h-205l-102 102q-180 -133 -410 -133q-160 0 -233.5 71t-73.5 226zM375 1221l387 284q10 8 23 8q10 0 17 -4t20 -18l129 -152q18 -20 18 -34q0 -16 -22 -37l-78 -68q-23 -18 -53 -24l-357 -72z" />
<glyph unicode="&#xfb;" d="M92 0zM92 266v758h410v-778h125q43 0 61.5 13t18.5 44v721h409v-1024h-205l-102 102q-180 -133 -410 -133q-160 0 -233.5 71t-73.5 226zM318 1200l211 277q12 18 33 18h98q20 0 33 -18l211 -277l-103 -100l-190 149l-191 -149z" />
<glyph unicode="&#xfc;" d="M92 0zM92 266v758h410v-778h125q43 0 61.5 13t18.5 44v721h409v-1024h-205l-102 102q-180 -133 -410 -133q-160 0 -233.5 71t-73.5 226zM224 1298q0 94 35.5 133t138.5 39q100 0 136 -38.5t36 -133.5q0 -94 -35 -131t-137 -37q-103 0 -138.5 37t-35.5 131zM652 1298 q0 94 35.5 133t138.5 39q100 0 136 -38.5t36 -133.5q0 -94 -35 -131t-137 -37q-103 0 -138.5 37t-35.5 131z" />
<glyph unicode="&#xfd;" horiz-adv-x="1073" d="M6 0zM6 1024h400l120 -563h21l121 563h399l-223 -922q-43 -180 -108.5 -281.5t-171 -145.5t-275.5 -44q-137 0 -246 33l18 215l246 31q57 8 86 23.5t44.5 48t27.5 100.5l4 20h-240zM301 1221l387 284q10 8 23 8q10 0 17 -4t20 -18l129 -152q18 -20 18 -34q0 -16 -22 -37 l-78 -68q-23 -18 -53 -24l-357 -72z" />
<glyph unicode="&#xfe;" d="M102 -338v1669l410 31v-342q88 35 205 35q229 0 334.5 -130t105.5 -413t-105.5 -413t-334.5 -130q-117 0 -205 35v-311zM512 276h125q45 0 62.5 12.5t17.5 45.5v414h-125q-45 0 -62.5 -12.5t-17.5 -45.5v-414z" />
<glyph unicode="&#xff;" horiz-adv-x="1073" d="M6 0zM6 1024h400l120 -563h21l121 563h399l-223 -922q-43 -180 -108.5 -281.5t-171 -145.5t-275.5 -44q-137 0 -246 33l18 215l246 31q57 8 86 23.5t44.5 48t27.5 100.5l4 20h-240zM150 1298q0 94 35.5 133t138.5 39q100 0 136 -38.5t36 -133.5q0 -94 -35 -131t-137 -37 q-103 0 -138.5 37t-35.5 131zM578 1298q0 94 35.5 133t138.5 39q100 0 136 -38.5t36 -133.5q0 -94 -35 -131t-137 -37q-103 0 -138.5 37t-35.5 131z" />
<glyph unicode="&#x152;" horiz-adv-x="1812" d="M61 639q0 248 56.5 385t188.5 196.5t370 59.5h1075l-51 -338h-440v-154h409v-296h-409v-154h481v-338h-1065q-238 0 -370 59.5t-188.5 195.5t-56.5 384zM502 338h186q92 0 127 23.5t35 84.5v496h-188q-90 0 -125 -23.5t-35 -84.5v-496z" />
<glyph unicode="&#x153;" horiz-adv-x="1812" d="M61 512q0 281 131.5 412t411.5 131q205 0 324 -80q117 80 321 80q188 0 290.5 -32t147 -106.5t44.5 -209.5q0 -125 -57.5 -199t-183.5 -106.5t-343 -32.5v-93q49 -8 143 -8q177 1 365 54l49 -283q-217 -70 -455 -70q-205 0 -323 82q-115 -82 -322 -82q-279 0 -411 132 t-132 411zM502 276h125q45 0 62.5 12.5t17.5 45.5v414h-125q-45 0 -62.5 -12.5t-17.5 -45.5v-414zM1147 573h74q80 0 110.5 18.5t30.5 67.5v99h-74q-80 0 -110.5 -16.5t-30.5 -61.5v-107z" />
<glyph unicode="&#x178;" horiz-adv-x="1187" d="M10 0zM10 1280h430l154 -426l154 426h430l-379 -870v-410h-410v410zM207 1554q0 94 35.5 133t138.5 39q100 0 136 -38.5t36 -133.5q0 -94 -35 -131t-137 -37q-103 0 -138.5 37t-35.5 131zM635 1554q0 94 35.5 133t138.5 39q100 0 136 -38.5t36 -133.5q0 -94 -35 -131 t-137 -37q-103 0 -138.5 37t-35.5 131z" />
<glyph unicode="&#x2c6;" horiz-adv-x="1228" d="M100 1100zM100 1200l211 277q12 18 33 18h98q20 0 33 -18l211 -277l-103 -100l-190 149l-191 -149z" />
<glyph unicode="&#x2dc;" horiz-adv-x="1228" d="M90 1112zM90 1268q113 80 187.5 130t107.5 64.5t59 14.5q43 0 75 -19.5t75 -73.5l168 82l86 -145q-113 -80 -187.5 -130t-107.5 -64.5t-59 -14.5q-41 0 -74 20.5t-76 71.5l-168 -82z" />
<glyph unicode="&#x2000;" horiz-adv-x="904" />
<glyph unicode="&#x2001;" horiz-adv-x="1808" />
<glyph unicode="&#x2002;" horiz-adv-x="904" />
<glyph unicode="&#x2003;" horiz-adv-x="1808" />
<glyph unicode="&#x2004;" horiz-adv-x="602" />
<glyph unicode="&#x2005;" horiz-adv-x="452" />
<glyph unicode="&#x2006;" horiz-adv-x="301" />
<glyph unicode="&#x2007;" horiz-adv-x="301" />
<glyph unicode="&#x2008;" horiz-adv-x="226" />
<glyph unicode="&#x2009;" horiz-adv-x="361" />
<glyph unicode="&#x200a;" horiz-adv-x="100" />
<glyph unicode="&#x2010;" horiz-adv-x="716" d="M51 410v221q0 55 34 70.5t108 15.5h473v-221q0 -55 -34 -70.5t-108 -15.5h-473z" />
<glyph unicode="&#x2011;" horiz-adv-x="716" d="M51 410v221q0 55 34 70.5t108 15.5h473v-221q0 -55 -34 -70.5t-108 -15.5h-473z" />
<glyph unicode="&#x2012;" horiz-adv-x="716" d="M51 410v221q0 55 34 70.5t108 15.5h473v-221q0 -55 -34 -70.5t-108 -15.5h-473z" />
<glyph unicode="&#x2013;" d="M51 410v221q0 55 34 70.5t108 15.5h974v-221q0 -55 -33.5 -70.5t-107.5 -15.5h-975z" />
<glyph unicode="&#x2014;" horiz-adv-x="1748" d="M51 410v221q0 55 34 70.5t108 15.5h1505v-221q0 -55 -34 -70.5t-108 -15.5h-1505z" />
<glyph unicode="&#x2018;" horiz-adv-x="567" d="M61 1053q4 84 14.5 115.5t53.5 117.5l139 279l183 -60l-68 -254q68 -14 95.5 -58t27.5 -140q0 -125 -48 -172t-175 -47t-174.5 47t-47.5 172z" />
<glyph unicode="&#x2019;" horiz-adv-x="567" d="M61 834zM61 1346q0 125 48.5 172t175.5 47t174 -47t47 -172q-4 -84 -14.5 -116t-53.5 -118l-139 -278l-182 59l67 254q-68 14 -95.5 58t-27.5 141z" />
<glyph unicode="&#x201a;" horiz-adv-x="567" d="M61 0zM61 203q0 125 48.5 172t175.5 47t174 -47t47 -172q-4 -84 -14.5 -116t-53.5 -118l-139 -278l-182 59l67 254q-68 14 -95.5 58t-27.5 141z" />
<glyph unicode="&#x201c;" horiz-adv-x="1079" d="M61 1053q4 84 14.5 115.5t53.5 117.5l139 279l183 -60l-68 -254q68 -14 95.5 -58t27.5 -140q0 -125 -48 -172t-175 -47t-174.5 47t-47.5 172zM573 1053q4 84 14.5 115.5t53.5 117.5l139 279l183 -60l-68 -254q68 -14 95.5 -58t27.5 -140q0 -125 -48 -172t-175 -47 t-174.5 47t-47.5 172z" />
<glyph unicode="&#x201d;" horiz-adv-x="1079" d="M61 834zM61 1346q0 125 48.5 172t175.5 47t174 -47t47 -172q-4 -84 -14.5 -116t-53.5 -118l-139 -278l-182 59l67 254q-68 14 -95.5 58t-27.5 141zM573 1346q0 125 48.5 172t175.5 47t174 -47t47 -172q-4 -84 -14.5 -116t-53.5 -118l-139 -278l-182 59l67 254 q-68 14 -95.5 58t-27.5 141z" />
<glyph unicode="&#x201e;" horiz-adv-x="1093" d="M61 0zM61 203q0 125 48.5 172t175.5 47t174 -47t47 -172q-4 -84 -14.5 -116t-53.5 -118l-139 -278l-182 59l67 254q-68 14 -95.5 58t-27.5 141zM587 203q0 125 48.5 172t175.5 47t174 -47t47 -172q-4 -84 -14.5 -116t-53.5 -118l-139 -278l-182 59l67 254 q-68 14 -95.5 58t-27.5 141z" />
<glyph unicode="&#x2022;" horiz-adv-x="761" d="M92 510q0 106 23.5 166.5t87 89.5t180.5 29q115 0 177.5 -29t86 -89.5t23.5 -166.5t-23.5 -165.5t-85 -87.5t-178.5 -28q-119 0 -181.5 28t-86 87t-23.5 166z" />
<glyph unicode="&#x2026;" horiz-adv-x="1632" d="M61 0zM61 203q0 82 18.5 128t67 68.5t138.5 22.5t137 -22.5t65.5 -68.5t18.5 -128t-18.5 -127t-65.5 -66.5t-137 -21.5t-138.5 21.5t-67 66.5t-18.5 127zM593 203q0 82 18.5 128t67 68.5t138.5 22.5t137 -22.5t65.5 -68.5t18.5 -128t-18.5 -127t-65.5 -66.5t-137 -21.5 t-138.5 21.5t-67 66.5t-18.5 127zM1126 203q0 82 18.5 128t67 68.5t138.5 22.5t137 -22.5t65.5 -68.5t18.5 -128t-18.5 -127t-65.5 -66.5t-137 -21.5t-138.5 21.5t-67 66.5t-18.5 127z" />
<glyph unicode="&#x202f;" horiz-adv-x="361" />
<glyph unicode="&#x2039;" horiz-adv-x="665" d="M51 410v204l398 359l165 -105l-204 -356l204 -356l-165 -105z" />
<glyph unicode="&#x203a;" horiz-adv-x="665" d="M51 156l205 356l-205 356l166 105l397 -359v-204l-397 -359z" />
<glyph unicode="&#x205f;" horiz-adv-x="452" />
<glyph unicode="&#x20ac;" horiz-adv-x="1105" d="M0 432l14 168h109v39v41h-103l15 168h98q20 174 86 274.5t187.5 144.5t318.5 44q88 0 191.5 -16.5t148.5 -37.5l-51 -323q-59 16 -134 27.5t-124 11.5q-104 0 -146.5 -26.5t-46.5 -98.5h340l-14 -168h-326v-80h320l-15 -168h-305v-98q92 -16 162 -17q84 0 167 13.5 t142 36.5l31 -344q-80 -29 -169 -41.5t-212 -12.5q-184 0 -298 44t-174 144.5t-79 274.5h-133z" />
<glyph unicode="&#x2122;" horiz-adv-x="1931" d="M37 1280v246h694v-246h-199v-586h-296v586h-199zM782 694l54 832h372l105 -373h10l107 373h370l55 -832h-296l-21 340h-10l-96 -340h-228l-96 340h-8l-23 -340h-295z" />
<glyph unicode="&#x25fc;" horiz-adv-x="1024" d="M0 0v1024h1024v-1024h-1024z" />
</font>
</defs>
</svg>
