<?xml version="1.0" standalone="no"?>
<!DOCTYPE svg PUBLIC "-//W3C//DTD SVG 1.1//EN" "http://www.w3.org/Graphics/SVG/1.1/DTD/svg11.dtd" >
<svg xmlns="http://www.w3.org/2000/svg" xmlns:xlink="http://www.w3.org/1999/xlink" version="1.1">
<metadata></metadata>
<defs>
<font id="changalight" horiz-adv-x="565" >
<font-face units-per-em="2048" ascent="1638" descent="-410" />
<missing-glyph horiz-adv-x="532" />
<glyph unicode="&#xfb01;" horiz-adv-x="1236" d="M111 0zM111 907v117h151q8 143 30.5 219t66.5 107.5t126 31.5q98 0 181 -20l-11 -127l-229 18v-229h172v-117h-172v-907h-164v907h-151zM848 1325q0 63 22.5 86t86.5 23q61 0 82.5 -22.5t21.5 -86.5q0 -61 -20.5 -82.5t-83.5 -21.5q-64 0 -86.5 21.5t-22.5 82.5zM873 0 v1018l164 26v-1044h-164z" />
<glyph unicode="&#xfb02;" horiz-adv-x="1210" d="M111 0zM111 907v117h151q8 143 30.5 219t66.5 107.5t126 31.5q98 0 181 -20l-11 -127l-229 18v-229h172v-117h-172v-907h-164v907h-151zM860 121v1210l164 31v-1239l92 -8l-10 -113q-61 -20 -117 -20q-129 0 -129 139z" />
<glyph unicode="&#xfb03;" horiz-adv-x="1908" d="M111 0zM111 907v117h151q8 143 30.5 219t66.5 107.5t126 31.5q98 0 181 -20l-11 -127l-229 18v-229h172v-117h-172v-907h-164v907h-151zM783 907v117h151q8 143 30.5 219t66.5 107.5t126 31.5q98 0 181 -20l-11 -127l-229 18v-229h172v-117h-172v-907h-164v907h-151z M1519 1325q0 63 22.5 86t86.5 23q61 0 82.5 -22.5t21.5 -86.5q0 -61 -20.5 -82.5t-83.5 -21.5q-64 0 -86.5 21.5t-22.5 82.5zM1544 0v1018l164 26v-1044h-164z" />
<glyph unicode="&#xfb04;" horiz-adv-x="1882" d="M111 0zM111 907v117h151q8 143 30.5 219t66.5 107.5t126 31.5q98 0 181 -20l-11 -127l-229 18v-229h172v-117h-172v-907h-164v907h-151zM783 907v117h151q8 143 30.5 219t66.5 107.5t126 31.5q98 0 181 -20l-11 -127l-229 18v-229h172v-117h-172v-907h-164v907h-151z M1531 121v1210l164 31v-1239l92 -8l-10 -113q-61 -20 -117 -20q-129 0 -129 139z" />
<glyph horiz-adv-x="0" />
<glyph unicode="&#xd;" horiz-adv-x="1413" />
<glyph unicode=" "  horiz-adv-x="532" />
<glyph unicode="&#x09;" horiz-adv-x="532" />
<glyph unicode="&#xa0;" horiz-adv-x="532" />
<glyph unicode="!" horiz-adv-x="493" d="M125 115q0 71 23.5 100t95.5 29q70 0 94 -30t24 -99q0 -72 -24.5 -99.5t-93.5 -27.5q-72 0 -95.5 27.5t-23.5 99.5zM137 1288q0 16 9.5 24.5t33.5 8.5h127q47 0 47 -33l-57 -901h-102z" />
<glyph unicode="&#x22;" horiz-adv-x="790" d="M129 1169v107q0 55 76 55h41q76 0 76 -55v-107l-66 -346h-61zM469 1169v107q0 55 76 55h41q76 0 76 -55v-107l-66 -346h-61z" />
<glyph unicode="#" horiz-adv-x="1482" d="M66 334l22 55q14 35 33.5 46t54.5 11h170l152 385h-230l23 56q14 35 33.5 45t54.5 10h164l145 369q12 29 29.5 40t58.5 11h60l-166 -420h389l145 369q12 29 29.5 40t58.5 11h60l-166 -420h239l-22 -55q-16 -37 -33.5 -46.5t-52.5 -9.5h-174l-154 -385h234l-23 -55 q-16 -39 -33.5 -48t-52.5 -9h-170l-143 -365q-12 -29 -29.5 -40t-58.5 -11h-60l164 416h-389l-143 -365q-12 -29 -29.5 -40t-58.5 -11h-60l164 416h-235zM473 446h389l152 385h-387z" />
<glyph unicode="$" horiz-adv-x="1058" d="M133 45l23 127q115 -29 284 -39l39 445q-137 16 -207.5 50t-97.5 98.5t-27 182.5q0 137 34 217t110 116t205 36h45l22 266h109l-25 -270q129 -10 227 -29l-18 -123q-86 18 -219 25l-39 -442q135 -12 208 -47t103.5 -108t30.5 -200q0 -129 -38 -202.5t-124 -107.5 t-241 -38l-23 -268h-108l22 270q-150 4 -295 41zM319 723l173 -10l36 436h-36q-96 0 -173 -8v-418zM549 131q88 0 219 10v414l-180 14z" />
<glyph unicode="%" horiz-adv-x="2332" d="M139 0zM139 874q0 199 23.5 287t93.5 119t229 31q158 0 227.5 -31t93 -118t23.5 -288q0 -205 -22.5 -290.5t-91 -115.5t-230.5 -30t-231.5 30t-92 116t-22.5 290zM256 602q0 -43 27.5 -56.5t115.5 -13.5h316v615q0 43 -32 57.5t-124 14.5h-303v-617zM869 -82l477 1393 q8 27 27.5 39t60.5 12h31l-478 -1393q-16 -28 -32.5 -39.5t-55.5 -11.5h-30zM1505 416q0 198 23.5 286.5t93.5 119t229 30.5q158 0 227.5 -30.5t93 -118t23.5 -287.5q0 -205 -22.5 -291t-91 -115.5t-230.5 -29.5t-231.5 29.5t-92 115.5t-22.5 291zM1622 143q0 -43 27.5 -56 t115.5 -13h316v614q0 43 -32 57.5t-124 14.5h-303v-617z" />
<glyph unicode="&#x26;" horiz-adv-x="1163" d="M172 344q0 297 166 350v8l-86 27q4 240 41 361.5t127 171t264 49.5q68 0 144.5 -11.5t121.5 -29.5l-22 -137q-55 14 -148.5 25t-163.5 11q-111 0 -150.5 -32.5t-39.5 -124.5v-305h715l-21 -136h-116v-790l-80 -12l-33 290q-154 -53 -240 -71.5t-184 -18.5 q-156 0 -225.5 88t-69.5 287zM346 272q0 -92 50 -139t145 -47q86 0 164.5 13.5t177.5 41.5l-49 430h-488v-299z" />
<glyph unicode="'" horiz-adv-x="450" d="M129 1169v107q0 55 76 55h41q76 0 76 -55v-107l-66 -346h-61z" />
<glyph unicode="(" horiz-adv-x="614" d="M90 639q0 354 103.5 552t285.5 282l25 -123q-78 -76 -129 -159t-82 -217t-31 -335t31 -335t82 -217t129 -159l-25 -123q-182 82 -285.5 281t-103.5 553z" />
<glyph unicode=")" horiz-adv-x="614" d="M111 -72q78 76 129 159t81.5 217t30.5 335t-30.5 335t-82 217t-128.5 159l24 123q182 -84 285.5 -282t103.5 -552t-103.5 -553t-285.5 -281z" />
<glyph unicode="*" horiz-adv-x="1052" d="M113 1126l55 164l92 -30l229 -125l-49 260v96h174v-96l-49 -260l228 125l92 30l55 -164l-94 -28l-258 -35l192 -180l54 -78l-142 -103l-53 80l-113 236l-110 -236l-56 -80l-141 103l53 78l193 180l-258 35z" />
<glyph unicode="+" horiz-adv-x="1085" d="M176 569v140h297v297h139v-297h297v-140h-297v-297h-139v297h-297z" />
<glyph unicode="," horiz-adv-x="452" d="M111 113q0 72 25.5 98.5t94.5 26.5q61 0 86 -28t25 -97q0 -45 -51 -172l-66 -144l-73 23l34 170q-43 8 -59 33.5t-16 89.5z" />
<glyph unicode="-" horiz-adv-x="716" d="M72 492v77q0 45 19.5 55.5t76.5 10.5h479v-78q0 -45 -19.5 -55t-78.5 -10h-477z" />
<glyph unicode="." horiz-adv-x="452" d="M111 113q0 67 22.5 96t91.5 29q68 0 92.5 -29t24.5 -96q0 -70 -23.5 -97.5t-93.5 -27.5t-92 26.5t-22 98.5z" />
<glyph unicode="/" horiz-adv-x="827" d="M0 -82l684 1393q14 31 32.5 41t55.5 10h55l-684 -1393q-14 -30 -32.5 -40.5t-55.5 -10.5h-55z" />
<glyph unicode="0" horiz-adv-x="1255" d="M131 639q0 307 34 442.5t134 182.5t330 47q227 0 326.5 -47t134 -182.5t34.5 -442.5q0 -315 -32.5 -448.5t-131 -177.5t-331.5 -44t-332.5 45t-132.5 178.5t-33 446.5zM305 217q0 -45 16.5 -67.5t58.5 -31.5t128 -9h440v954q0 45 -18.5 67.5t-63.5 31.5t-133 9h-428v-954 z" />
<glyph unicode="1" horiz-adv-x="849" d="M55 1106v143l480 62v-1174h249v-137h-708v137h295v1008z" />
<glyph unicode="2" horiz-adv-x="1107" d="M121 0v147q0 182 39 268.5t169 161t474 218.5v362q-59 14 -195 14q-213 0 -434 -38l-20 127q154 51 403 51q219 0 319.5 -76t100.5 -242q0 -141 -45 -218t-182.5 -152.5t-473.5 -216.5v-269h678v-137h-833z" />
<glyph unicode="3" horiz-adv-x="1003" d="M70 20l18 127q84 -18 192.5 -28t208.5 -10q172 0 230 14v440l-359 43v88l359 56v407q-55 14 -180 14q-100 0 -209 -10t-193 -28l-16 127q139 51 389 51q383 0 383 -350q0 -104 -40 -185.5t-112 -120.5v-10q80 -45 116 -119.5t36 -191.5q0 -139 -42 -218t-140.5 -113 t-274.5 -34q-237 0 -366 51z" />
<glyph unicode="4" horiz-adv-x="1153" d="M70 297v76l493 907h348v-846h131v-137h-131v-297h-163v297h-678zM274 434h474v723h-84z" />
<glyph unicode="5" horiz-adv-x="1060" d="M131 20l21 127q201 -39 415 -38q143 0 209 14v387l-174 16q-188 20 -276 46t-121 72t-33 138l21 498h704l-12 -137h-529v-445l121 -12q190 -18 290.5 -54t141.5 -106.5t41 -197.5q0 -186 -100 -272.5t-320 -86.5q-239 0 -399 51z" />
<glyph unicode="6" horiz-adv-x="1134" d="M121 639q0 279 40 419t140 196.5t301 56.5q78 0 189.5 -15.5t166.5 -35.5l-20 -127q-72 16 -176.5 27t-194.5 11q-84 0 -164.5 -4t-107.5 -8v-426h338q199 0 290 -86t91 -274q0 -154 -42 -241t-138.5 -125t-266.5 -38q-201 0 -291 49.5t-122.5 185.5t-32.5 435zM295 98 h405q84 0 111 17.5t27 68.5v414h-406q-84 0 -110.5 -17.5t-26.5 -68.5v-414z" />
<glyph unicode="7" horiz-adv-x="942" d="M59 1280h793v-100l-436 -1180h-164l422 1143h-600z" />
<glyph unicode="8" horiz-adv-x="1173" d="M121 350q0 104 31.5 195.5t83.5 136.5v14q-47 41 -73 112t-26 157q0 129 44 203.5t142.5 108.5t266.5 34t264 -33t139 -107.5t43 -205.5q0 -104 -23.5 -198.5t-64.5 -154.5v-14q47 -33 76 -100.5t29 -147.5q0 -164 -37 -242.5t-132.5 -108.5t-293.5 -30q-201 0 -298 31 t-134 109.5t-37 240.5zM295 98h424q94 0 124.5 18.5t30.5 71.5l3 285l-508 170q-32 12 -50 12q-25 0 -24 -34v-523zM295 829l500 -167q28 -9 34 -9q20 0 35 11.5t15 25.5v492h-428q-94 0 -125 -18.5t-31 -71.5v-263z" />
<glyph unicode="9" horiz-adv-x="1134" d="M121 909q0 152 42 239t138 125t266 38q201 0 291 -49.5t123 -184.5t33 -434q0 -279 -40 -420t-142.5 -197.5t-303.5 -56.5q-82 0 -199.5 16.5t-174.5 37.5l18 127q78 -16 188.5 -27.5t204.5 -11.5q88 0 168 4t105 10v424h-336q-199 0 -290 86t-91 274zM295 774 q0 -53 21.5 -69.5t91.5 -16.5h430v410q0 51 -22.5 68.5t-90.5 17.5h-430v-410z" />
<glyph unicode=":" horiz-adv-x="430" d="M111 0zM111 113q0 67 22.5 96t91.5 29q68 0 92.5 -29t24.5 -96q0 -70 -23.5 -97.5t-93.5 -27.5t-92 26.5t-22 98.5zM111 910q0 67 22.5 96t91.5 29q68 0 92.5 -29t24.5 -96q0 -70 -23.5 -97.5t-93.5 -27.5t-92 26.5t-22 98.5z" />
<glyph unicode=";" horiz-adv-x="430" d="M111 0zM111 113q0 72 25.5 98.5t94.5 26.5q61 0 86 -28t25 -97q0 -45 -51 -172l-66 -144l-73 23l34 170q-43 8 -59 33.5t-16 89.5zM111 910q0 67 22.5 96t91.5 29q68 0 92.5 -29t24.5 -96q0 -70 -23.5 -97.5t-93.5 -27.5t-92 26.5t-22 98.5z" />
<glyph unicode="&#x3c;" horiz-adv-x="1085" d="M176 549v180l733 262v-135l-622 -217l622 -217v-135z" />
<glyph unicode="=" horiz-adv-x="1085" d="M176 372v140h733v-140h-733zM176 373zM176 766v140h733v-140h-733z" />
<glyph unicode="&#x3e;" horiz-adv-x="1085" d="M176 287v135l623 217l-623 217v135l733 -262v-180z" />
<glyph unicode="?" horiz-adv-x="811" d="M66 1257q176 53 323 54q141 0 224 -27t121 -86t38 -160q0 -100 -22.5 -150t-96 -91t-247.5 -105l-9 -305h-102l-21 361q-2 25 24 41t110 47l194 69v271q-86 12 -192 12q-119 0 -324 -41zM227 115q0 71 23.5 100t95.5 29q70 0 94.5 -30t24.5 -99q0 -72 -24.5 -99.5 t-94.5 -27.5q-72 0 -95.5 27.5t-23.5 99.5z" />
<glyph unicode="@" horiz-adv-x="1644" d="M135 365v165q0 360 181.5 505t523.5 145q321 0 467.5 -92.5t146.5 -288.5v-799h-72l-47 102q-72 -63 -162 -91.5t-206 -28.5q-166 0 -235.5 68.5t-69.5 230.5q0 156 38.5 219t157.5 83.5t408 20.5h24l2 385q-61 8 -174.5 14.5t-222.5 6.5q-168 0 -284.5 -21.5 t-198.5 -101.5t-82 -244v-475q0 -150 65.5 -223.5t164.5 -93t251 -19.5h397v-129q-184 -33 -325 -33q-270 0 -432 64.5t-239 216t-77 414.5zM809 115h313q99 0 133.5 26.5t34.5 100.5v243h-309q-100 0 -136 -26.5t-36 -98.5v-245z" />
<glyph unicode="A" horiz-adv-x="1091" d="M35 0l389 1280h244l389 -1280h-164l-90 303h-514l-90 -303h-164zM330 438h432l-207 695h-18z" />
<glyph unicode="B" horiz-adv-x="1187" d="M201 0v1280h473q170 0 253 -77t83 -236q0 -119 -28 -188.5t-93 -119.5v-12q90 -33 137 -105.5t47 -181.5q0 -176 -86 -268t-248 -92h-538zM365 121h358q100 0 144 57.5t44 188.5q0 119 -43 170t-143 51h-360v-467zM365 702h301q100 0 140 49.5t40 176.5q0 131 -39 181 t-139 50h-303v-457z" />
<glyph unicode="C" horiz-adv-x="993" d="M147 639q0 279 37 419t135.5 196.5t294.5 56.5q66 0 152 -11.5t141 -29.5l-20 -137q-76 16 -174.5 26t-157.5 10q-88 0 -136 -11t-72.5 -45t-24.5 -101v-875q106 -33 260 -33q156 0 340 52l18 -133q-74 -29 -153.5 -41.5t-188.5 -12.5q-190 0 -284.5 57.5t-130.5 196.5 t-36 416z" />
<glyph unicode="D" horiz-adv-x="1265" d="M201 0v1280h436q209 0 308 -49t136 -180t37 -412q0 -279 -37 -410t-136 -180t-308 -49h-436zM365 139h415q90 0 125 34t35 120v694q0 86 -35 120t-125 34h-415v-1002z" />
<glyph unicode="E" horiz-adv-x="1052" d="M201 0v1280h733l-19 -137h-550v-436h499v-134h-499v-436h579v-137h-743z" />
<glyph unicode="F" horiz-adv-x="913" d="M201 0v1280h667l-16 -137h-487v-459h421v-135h-421v-549h-164z" />
<glyph unicode="G" horiz-adv-x="1165" d="M147 639q0 276 39 416.5t139.5 198t303.5 57.5q76 0 176 -11.5t164 -29.5l-21 -137q-84 16 -199.5 26t-187.5 10q-90 0 -140 -11t-76 -45t-26 -101v-912h555v457h-212v135h354v-655q-98 -37 -203.5 -52.5t-249.5 -15.5q-180 0 -265 49.5t-118 187.5t-33 433z" />
<glyph unicode="H" horiz-adv-x="1306" d="M201 0v1280h164v-580h577v580h164v-1280h-164v565h-577v-565h-164z" />
<glyph unicode="I" d="M201 0v1280h164v-1280h-164z" />
<glyph unicode="J" horiz-adv-x="702" d="M45 129h195q49 0 73.5 11.5t24.5 49.5v953h-205v137h369v-1016q0 -106 -36 -164.5t-103.5 -79t-178.5 -20.5h-118z" />
<glyph unicode="K" horiz-adv-x="1105" d="M201 0v1280h164v-557h297q0 68 23.5 133.5t64.5 147.5l137 276h186l-309 -623l319 -657h-186l-147 311q-43 92 -65.5 153.5t-22.5 127.5h-297v-592h-164z" />
<glyph unicode="L" horiz-adv-x="874" d="M201 0v1280h164v-1143h487v-137h-651z" />
<glyph unicode="M" horiz-adv-x="1622" d="M170 0l88 1280h236l309 -1020h14l311 1020h236l88 -1280h-162l-71 1087h-13l-327 -1087h-136l-327 1087h-13l-71 -1087h-162z" />
<glyph unicode="N" horiz-adv-x="1347" d="M211 0v1280h158l538 -868q35 -59 43 -76t11 -47h12v991h164v-1280h-158l-539 868q-35 59 -43 76t-10 47h-12v-991h-164z" />
<glyph unicode="O" horiz-adv-x="1292" d="M147 639q0 295 37 433t139.5 188.5t323.5 50.5q219 0 320.5 -51.5t139.5 -188.5t38 -432t-38 -432t-139.5 -187.5t-320.5 -50.5q-221 0 -323.5 50.5t-139.5 187.5t-37 432zM322 109h469q100 0 139 34.5t39 122.5v905h-471q-100 0 -138 -33.5t-38 -123.5v-905z" />
<glyph unicode="P" horiz-adv-x="1060" d="M201 0v1280h485q129 0 199.5 -39t101.5 -130t31 -255q0 -152 -30 -241t-95.5 -130t-175.5 -41h-352v-444h-164zM365 580h327q88 0 121 18t33 68v391q0 49 -33 67.5t-121 18.5h-327v-563z" />
<glyph unicode="Q" horiz-adv-x="1271" d="M147 639q0 295 37 433t136.5 188.5t316.5 50.5q213 0 313.5 -51.5t137 -189.5t36.5 -431q0 -274 -32.5 -406.5t-118.5 -185.5l166 -104l-41 -88l-346 114v45l-115 -45q-217 0 -317.5 50.5t-136.5 187.5t-36 432zM326 109h450q96 0 134 34.5t38 122.5v905h-452 q-96 0 -133 -33.5t-37 -123.5v-905z" />
<glyph unicode="R" horiz-adv-x="1169" d="M201 0v1280h495q129 0 200 -39t101.5 -130t30.5 -255t-40 -252t-132 -119l236 -485h-179l-221 469h-327v-469h-164zM365 604h337q88 0 121 18.5t33 67.5v367q0 49 -32.5 67.5t-121.5 18.5h-337v-539z" />
<glyph unicode="S" horiz-adv-x="1038" d="M102 14l25 133q78 -18 189.5 -30.5t209.5 -12.5q104 0 244 13v434l-197 14q-193 14 -286.5 47t-130.5 102.5t-37 209.5q0 143 35.5 227t114.5 122t214 38q205 0 400 -35l-21 -129q-150 29 -383 29q-106 0 -180 -11v-438l242 -14q164 -10 251 -46t122.5 -113t35.5 -218 t-42 -220t-140 -113t-276 -34q-203 0 -390 45z" />
<glyph unicode="T" horiz-adv-x="929" d="M35 1143v137h860v-137h-348v-1143h-164v1143h-348z" />
<glyph unicode="U" horiz-adv-x="1308" d="M180 369v911h164v-1171h322q125 0 187 9t87 31.5t25 67.5v1063h163v-911q0 -168 -37.5 -251t-137 -116t-298.5 -33q-200 0 -299.5 33t-137.5 116t-38 251z" />
<glyph unicode="V" horiz-adv-x="1026" d="M23 1280h163l318 -1133h18l318 1133h164l-369 -1280h-244z" />
<glyph unicode="W" horiz-adv-x="1591" d="M51 1280h164l191 -1133h18l285 1133h172l286 -1133h19l190 1133h164l-225 -1280h-260l-258 1044l-260 -1044h-263z" />
<glyph unicode="X" horiz-adv-x="1044" d="M23 0l401 662l-385 618h184l309 -496l295 496h179l-385 -639l401 -641h-184l-326 522l-311 -522h-178z" />
<glyph unicode="Y" horiz-adv-x="966" d="M23 1280h170l290 -662l291 662h170l-379 -834v-446h-164v446z" />
<glyph unicode="Z" horiz-adv-x="1097" d="M76 0v111l735 1019l-6 13h-625l-20 137h864v-111l-737 -1019l6 -13h690v-137h-907z" />
<glyph unicode="[" horiz-adv-x="546" d="M152 25v1230q0 84 29.5 130.5t97 65.5t192.5 19l14 -129l-170 -16v-1370l170 -16l-14 -129q-125 0 -192.5 19t-97 65.5t-29.5 130.5z" />
<glyph unicode="\" horiz-adv-x="808" d="M-8 1362h88q39 0 55.5 -11.5t32.5 -39.5l649 -1393h-88q-39 0 -55.5 11.5t-32.5 39.5z" />
<glyph unicode="]" horiz-adv-x="546" d="M61 -61l170 16v1370l-170 16l15 129q125 0 192.5 -19t97 -65.5t29.5 -130.5v-1230q0 -84 -29.5 -130.5t-97 -65.5t-192.5 -19z" />
<glyph unicode="^" horiz-adv-x="1085" d="M141 246l312 786h182l311 -786h-137l-266 678l-267 -678h-135z" />
<glyph unicode="_" horiz-adv-x="972" d="M51 -80q0 55 24.5 70.5t92.5 15.5h754v-59q0 -55 -25 -70.5t-92 -15.5h-754v59z" />
<glyph unicode="`" horiz-adv-x="1228" d="M164 1141zM164 1292q0 6 15 23l79 100q6 8 13 8q4 0 14 -8l297 -215l-39 -59l-272 71q-27 6 -43 21l-51 39q-12 12 -13 20z" />
<glyph unicode="a" horiz-adv-x="1107" d="M125 281q0 156 39 219t157.5 83.5t407.5 20.5h25v279q-79 24 -217 24h-11q-158 0 -333 -47l-23 123q66 27 176.5 43t212.5 16q137 0 214 -25.5t111 -85t34 -161.5v-770h-72l-47 102q-72 -63 -162 -91.5t-207 -28.5q-166 0 -235.5 68.5t-69.5 230.5zM272 115h314 q98 0 133 26.5t35 100.5v243h-310q-100 0 -136 -26.5t-36 -98.5v-245z" />
<glyph unicode="b" horiz-adv-x="1155" d="M201 41v1327l164 23v-390q43 31 114.5 42.5t186.5 11.5q151 0 225 -43t101.5 -156t27.5 -344q0 -229 -29.5 -339t-109.5 -150.5t-248 -40.5q-68 0 -96 2q-152 8 -336 57zM365 121h387q55 0 76.5 8t21.5 31v755h-389q-57 0 -76.5 -10t-19.5 -41v-743z" />
<glyph unicode="c" horiz-adv-x="929" d="M135 512q0 227 27.5 336.5t99.5 151.5t221 42q184 0 330 -34l-22 -131q-155 30 -293 30h-9q-104 0 -145 -39t-41 -137v-590q77 -24 218 -24h11q66 0 128.5 10t154.5 37l21 -123q-66 -29 -160 -44t-193 -15q-149 0 -221 42t-99.5 152.5t-27.5 335.5z" />
<glyph unicode="d" horiz-adv-x="1155" d="M135 512q0 225 27.5 334.5t99.5 152.5t219 43q117 0 190.5 -12t119.5 -41v379l163 23v-1391h-71l-39 80q-39 -63 -115 -87t-215 -24q-166 0 -243.5 40t-106.5 151.5t-29 351.5zM305 109h387q59 0 79 10t20 41v743h-390q-57 0 -76.5 -10t-19.5 -41v-743z" />
<glyph unicode="e" horiz-adv-x="1095" d="M135 512q0 211 36 323.5t123 159.5t251 47q162 0 244.5 -25.5t116.5 -88t34 -185.5q0 -156 -40 -219t-165 -83.5t-430 -20.5v-279q85 -24 223 -24h11q84 0 161.5 10t190.5 37l22 -123q-70 -27 -180 -43t-229 -16q-156 0 -232.5 43t-106.5 154.5t-30 332.5zM305 539h309 q104 0 141.5 26.5t37.5 98.5v237h-312q-102 0 -139 -26.5t-37 -100.5v-235z" />
<glyph unicode="f" horiz-adv-x="671" d="M111 907v117h151q8 143 30.5 219t66.5 107.5t126 31.5q98 0 181 -20l-11 -127l-229 18v-229h172v-117h-172v-907h-164v907h-151z" />
<glyph unicode="g" horiz-adv-x="1019" d="M100 676q0 147 35 228t118 116t234 35q164 0 248 -41l142 106l84 -82l-119 -135q35 -78 35 -227q0 -143 -33 -222t-110 -114t-220 -39l-10 -168q174 -18 252 -39.5t105.5 -60.5t27.5 -121q0 -94 -37 -146.5t-122 -76t-236 -23.5q-106 0 -209 16.5t-168 43.5l22 131 q111 -27 182.5 -38.5t145.5 -11.5q172 0 276 25v168q-213 12 -301 31.5t-88 54.5l54 217q-119 8 -185.5 46t-94.5 116t-28 211zM266 420h279q94 0 130 30.5t36 108.5v375h-279q-94 0 -130 -30t-36 -109v-375z" />
<glyph unicode="h" horiz-adv-x="1171" d="M201 0v1348l159 14v-412q68 49 147 70.5t187 21.5q287 0 287 -161v-881h-164v909h-272q-106 0 -143 -26.5t-37 -100.5v-782h-164z" />
<glyph unicode="i" d="M176 0zM176 1325q0 63 22.5 86t86.5 23q61 0 82.5 -22.5t21.5 -86.5q0 -61 -20.5 -82.5t-83.5 -21.5q-64 0 -86.5 21.5t-22.5 82.5zM201 0v1018l164 26v-1044h-164z" />
<glyph unicode="j" d="M-8 -336l12 92q88 0 128 9.5t54.5 34t14.5 79.5v1139l164 26v-1187q0 -109 -58.5 -161t-177.5 -52q-76 0 -137 20zM0 0zM176 1325q0 63 22.5 86t86.5 23q61 0 82.5 -22.5t21.5 -86.5q0 -61 -20.5 -82.5t-83.5 -21.5q-64 0 -86.5 21.5t-22.5 82.5z" />
<glyph unicode="k" horiz-adv-x="980" d="M201 0v1331l164 31v-754h180l231 416h172l-266 -475l276 -549h-167l-246 485h-180v-485h-164z" />
<glyph unicode="l" horiz-adv-x="538" d="M188 121v1210l164 31v-1239l92 -8l-10 -113q-61 -20 -117 -20q-129 0 -129 139z" />
<glyph unicode="m" horiz-adv-x="1744" d="M201 0v1024h71l47 -102q72 63 156 91.5t199 28.5q219 0 270 -94q63 49 142 71.5t182 22.5h3q283 0 283 -161v-881h-163v909h-240q-100 0 -141 -20.5t-49 -75.5v-813h-164v909h-240q-113 0 -152.5 -27.5t-39.5 -103.5v-778h-164z" />
<glyph unicode="n" horiz-adv-x="1171" d="M201 0v1024h71l47 -102q74 63 164 91.5t211 28.5q287 0 287 -161v-881h-164v909h-260q-113 0 -152.5 -27.5t-39.5 -103.5v-778h-164z" />
<glyph unicode="o" horiz-adv-x="1120" d="M135 512q0 227 33 336.5t121 151.5t270 42q184 0 272.5 -40.5t121 -150.5t32.5 -339q0 -227 -32.5 -336.5t-122 -151.5t-271.5 -42t-270 42t-121 151.5t-33 336.5zM303 121h412q61 0 81.5 10t20.5 41v731h-411q-61 0 -82 -10t-21 -41v-731z" />
<glyph unicode="p" horiz-adv-x="1155" d="M201 -367v1391h71l41 -84q39 59 120 80.5t233 21.5q153 0 227 -40.5t100.5 -150.5t26.5 -339q0 -231 -27.5 -344t-101.5 -156t-225 -43q-115 0 -186.5 11.5t-114.5 42.5v-367zM365 109h387q59 0 78.5 10t19.5 41v743h-389q-55 0 -75.5 -8t-20.5 -31v-755z" />
<glyph unicode="q" horiz-adv-x="1155" d="M135 512q0 229 26.5 339t100.5 150.5t227 40.5q152 0 233 -21.5t120 -80.5l41 84h71v-1368l-163 -23v390q-43 -31 -115 -42.5t-187 -11.5q-152 0 -225.5 43t-101 156t-27.5 344zM305 109h387q60 0 79.5 10t19.5 41v743h-390q-55 0 -75.5 -8t-20.5 -31v-755z" />
<glyph unicode="r" horiz-adv-x="669" d="M201 0v1024h73l64 -168q98 86 162.5 132t113.5 67l21 -162q-70 -23 -143.5 -61.5t-126.5 -79.5v-752h-164z" />
<glyph unicode="s" horiz-adv-x="968" d="M100 27l29 137q160 -61 338 -62q72 0 119 6.5t112 26.5v273q-279 43 -390 75.5t-147 90t-36 184.5q0 153 90 225t283 72q164 0 319 -45l-24 -123q-53 14 -124 24.5t-128 10.5q-127 0 -246 -19v-276q256 -37 372.5 -73t158.5 -95.5t42 -175.5q0 -117 -40 -184.5 t-130 -98.5t-243 -31q-164 0 -355 58z" />
<glyph unicode="t" horiz-adv-x="720" d="M115 907v117h151v229l164 41v-270h191v-117h-191v-784q131 -8 150 -8l-11 -113q-117 -20 -174 -20q-129 0 -129 139v786h-151z" />
<glyph unicode="u" horiz-adv-x="1171" d="M190 180v844h164v-909h260q113 0 153 26.5t40 104.5v778h164v-1024h-72l-45 102q-80 -63 -177 -91.5t-224 -28.5q-135 0 -199 48t-64 150z" />
<glyph unicode="v" horiz-adv-x="911" d="M14 1024h164l268 -887h21l268 887h164l-317 -1024h-250z" />
<glyph unicode="w" horiz-adv-x="1396" d="M14 1024h164l213 -887h21l209 887h157l209 -887h21l213 887h163l-264 -1024h-229l-191 784l-192 -784h-229z" />
<glyph unicode="x" horiz-adv-x="1013" d="M63 0l353 530l-340 494h172l268 -389l250 389h172l-340 -510l354 -514h-172l-280 410l-264 -410h-173z" />
<glyph unicode="y" horiz-adv-x="890" d="M6 -336l6 88l121 15q84 12 129 32.5t74 62.5t53 122l21 69h-88l-308 971h164l258 -834h21l258 834h164l-308 -971q-49 -158 -102 -246t-124 -125.5t-175 -37.5q-88 0 -164 20z" />
<glyph unicode="z" horiz-adv-x="946" d="M84 0v90l580 803l-11 12h-512l-14 119h737v-90l-579 -803l6 -12h559v-119h-766z" />
<glyph unicode="{" horiz-adv-x="628" d="M90 567v140l133 34l-30 502q-6 109 19.5 156t89 59t206.5 12l10 -131l-170 -14l39 -410q2 -14 2 -43q0 -147 -117 -223v-24q117 -76 117 -224q0 -29 -2 -43l-39 -403l170 -14l-10 -131q-133 0 -197.5 12t-94.5 60t-23 155l30 495z" />
<glyph unicode="|" horiz-adv-x="532" d="M217 -369v1811h98v-1811h-98z" />
<glyph unicode="}" horiz-adv-x="628" d="M111 -59l170 14l-39 403q-2 14 -2 43q0 147 116 224v24q-117 76 -116 223q0 29 2 43l39 410l-170 14l10 131q135 0 196.5 -10t91 -49t29.5 -127l-2 -41l-30 -502l133 -34v-140l-133 -35l30 -495q6 -106 -23.5 -154.5t-94 -60.5t-197.5 -12z" />
<glyph unicode="~" horiz-adv-x="1085" d="M176 580v131q72 63 154 63q47 0 93 -17.5t120 -51.5q70 -35 117 -52.5t94 -17.5q82 0 155 67v-131q-73 -65 -155 -65q-47 0 -94.5 17.5t-116.5 51.5q-74 35 -120 52.5t-93 17.5q-82 0 -154 -65z" />
<glyph unicode="&#xa1;" horiz-adv-x="493" d="M129 928q0 72 24.5 99.5t94.5 27.5q72 0 95.5 -28t23.5 -99q0 -72 -24 -100.5t-95 -28.5q-70 0 -94.5 29.5t-24.5 99.5zM137 -246l58 901h102l57 -901q0 -16 -9 -24.5t-34 -8.5h-127q-47 0 -47 33z" />
<glyph unicode="&#xa2;" horiz-adv-x="929" d="M135 645q0 227 27.5 337t99.5 152t221 42h27l33 368h108l-33 -375q123 -10 195 -28l-22 -131q-160 31 -302 30q-104 0 -145 -38.5t-41 -137.5v-590q80 -25 229 -24q66 0 128.5 10t154.5 37l21 -123q-60 -24 -142 -40.5t-170 -18.5l-30 -381h-109l31 383q-117 8 -176.5 56 t-82 155.5t-22.5 316.5z" />
<glyph unicode="&#xa3;" horiz-adv-x="1048" d="M127 0v78l109 53l38 467h-147v96h156l10 111q18 190 65.5 298.5t135.5 158t233 49.5q41 0 119 -12.5t139 -28.5l-35 -137q-57 16 -136 26t-142 10q-102 0 -143.5 -46t-55.5 -171l-22 -258h303l-9 -96h-303l-36 -461h538l23 -137h-840z" />
<glyph unicode="&#xa4;" horiz-adv-x="1396" d="M150 66l204 280q-43 45 -59 129t-16 227q0 141 16 224.5t59 130.5l-204 282l94 60l202 -285q86 29 254 29q174 0 250 -29l203 285l96 -60l-205 -284q41 -45 57.5 -129t16.5 -224q0 -143 -16.5 -226t-59.5 -128l205 -282l-96 -60l-205 283q-80 -25 -246 -25 q-170 0 -249 25l-205 -283zM465 487q0 -45 29.5 -60t121.5 -15h316v506q0 47 -34 63t-130 16h-303v-510z" />
<glyph unicode="&#xa5;" horiz-adv-x="966" d="M23 1280h170l290 -662l291 662h170l-270 -594h190v-96h-233l-66 -144v-32h299v-97h-299v-317h-164v317h-274v97h274v32l-65 144h-209v96h166z" />
<glyph unicode="&#xa6;" horiz-adv-x="532" d="M217 319h98v-688h-98v688zM217 754v688h98v-688h-98z" />
<glyph unicode="&#xa7;" horiz-adv-x="958" d="M102 -190l29 137q160 -61 338 -62q74 0 122 6.5t109 26.5v272q-276 45 -388.5 81t-148.5 96.5t-36 197.5q0 125 66 197q-39 33 -52.5 79t-13.5 128q0 154 90 225.5t283 71.5q164 0 319 -45l-24 -123q-53 16 -123 25.5t-129 9.5q-137 0 -246 -19v-276q256 -39 372.5 -78 t158.5 -102.5t42 -188.5q0 -143 -65 -209q37 -33 51 -78t14 -116q0 -117 -39.5 -184.5t-130 -98.5t-243.5 -31q-158 0 -355 58zM305 393q276 -39 387 -76v318q-158 25 -244 41t-143 35v-318z" />
<glyph unicode="&#xa8;" horiz-adv-x="1228" d="M113 1188zM113 1294q0 61 17 84t75 23q55 0 73.5 -22.5t18.5 -84.5q0 -61 -17.5 -83.5t-74.5 -22.5q-58 0 -75 21.5t-17 84.5zM477 1294q0 61 17.5 84t74.5 23q55 0 73.5 -22.5t18.5 -84.5q0 -61 -17 -83.5t-75 -22.5q-57 0 -74.5 21.5t-17.5 84.5z" />
<glyph unicode="&#xa9;" horiz-adv-x="1153" d="M61 883q0 266 125 390t392 124q266 0 390 -124t124 -390t-124 -391t-390 -125q-267 0 -392 124.5t-125 391.5zM127 883q0 -172 44 -271.5t141.5 -143.5t265.5 -44q167 0 263.5 44t140.5 143.5t44 271.5q0 170 -44 269t-140.5 143t-263.5 44q-168 0 -265.5 -44 t-141.5 -143t-44 -269zM348 879q0 176 54.5 248.5t187.5 72.5q39 0 90 -7t74 -17l-25 -115q-53 14 -125 14q-53 0 -73.5 -11t-20.5 -40v-326q31 -8 80 -8q80 0 151 21l13 -125q-51 -25 -164 -25q-133 0 -187.5 72t-54.5 246z" />
<glyph unicode="&#xaa;" horiz-adv-x="796" d="M63 936q0 117 31 166t125 65.5t316 16.5h20v213q-66 16 -172 16t-264 -37l-19 107q55 20 143.5 32.5t168.5 12.5q159 0 223.5 -48t64.5 -169l-4 -594h-63l-39 80q-57 -49 -128 -72t-161 -23q-131 0 -186.5 53.5t-55.5 180.5zM98 477v35q0 49 16.5 64.5t67.5 15.5h477v-37 q0 -49 -15 -63.5t-71 -14.5h-475zM193 815h231q76 0 103.5 20.5t27.5 73.5v183h-229q-78 0 -105.5 -19.5t-27.5 -77.5v-180z" />
<glyph unicode="&#xab;" horiz-adv-x="825" d="M51 432v158l291 307l53 -45l-194 -340l194 -340l-53 -45zM430 432v158l291 307l53 -45l-194 -340l194 -340l-53 -45z" />
<glyph unicode="&#xac;" horiz-adv-x="1085" d="M176 569v140h733v-377h-118v237h-615z" />
<glyph unicode="&#xad;" horiz-adv-x="716" d="M72 492v77q0 45 19.5 55.5t76.5 10.5h479v-78q0 -45 -19.5 -55t-78.5 -10h-477z" />
<glyph unicode="&#xae;" horiz-adv-x="1153" d="M61 883q0 266 125 390t392 124q266 0 390 -124t124 -390t-124 -391t-390 -125t-391.5 124.5t-125.5 391.5zM127 883q0 -172 44 -271.5t141.5 -143.5t265.5 -44t264 44t140 143.5t44 271.5q0 170 -44 269t-140.5 143t-263.5 44q-168 0 -265.5 -44t-141.5 -143t-44 -269z M352 575v615h262q203 0 203 -205q0 -70 -23.5 -117t-68.5 -67l117 -226h-168l-88 203h-86v-203h-148zM500 891h90q41 0 57.5 9t16.5 36v92q0 27 -15.5 35t-58.5 8h-90v-180z" />
<glyph unicode="&#xaf;" horiz-adv-x="1228" d="M172 1208zM172 1294v60h387q57 0 72.5 -16.5t15.5 -67.5v-62h-387q-57 0 -72.5 18.5t-15.5 67.5z" />
<glyph unicode="&#xb0;" horiz-adv-x="833" d="M125 1087q0 148 69.5 219.5t223.5 71.5q152 0 221.5 -71.5t69.5 -219.5q0 -150 -69 -221t-222 -71q-154 0 -223.5 71.5t-69.5 220.5zM287 944h129q68 0 97.5 13.5t29.5 66.5v205h-117q-76 0 -107.5 -13.5t-31.5 -64.5v-207z" />
<glyph unicode="&#xb1;" horiz-adv-x="1087" d="M176 0v140h733v-140h-733zM176 0zM178 655v140h297v297h139v-297h297v-140h-297v-297h-139v297h-297z" />
<glyph unicode="&#xb2;" horiz-adv-x="866" d="M135 664v98q0 119 26.5 174.5t119 104.5t333.5 139v234q-55 10 -137 10q-141 0 -305 -27l-14 86q119 33 278 33q152 0 221.5 -49t69.5 -158q0 -92 -27.5 -140t-126 -99.5t-335.5 -143.5v-170h473v-92h-576zM135 664z" />
<glyph unicode="&#xb3;" horiz-adv-x="804" d="M106 643zM106 676l11 86q133 -25 282 -24q125 0 160 8v283l-250 28v60l250 34v263q-41 10 -123 10q-145 0 -282 -27l-11 86q104 33 269 33q262 0 262 -227q0 -68 -26.5 -121t-76.5 -80v-6q53 -29 78 -77t25 -124q0 -86 -23.5 -136t-92.5 -75.5t-200 -25.5 q-150 -1 -252 32z" />
<glyph unicode="&#xb4;" horiz-adv-x="1228" d="M283 1165zM283 1225l297 215q10 8 14 8q6 0 13 -8l79 -101q14 -16 15 -22q0 -8 -15 -21l-49 -39q-16 -12 -45 -20l-272 -72z" />
<glyph unicode="&#xb5;" horiz-adv-x="1181" d="M201 -338v1362h164v-909h243q94 0 151.5 34.5t57.5 141.5v733h164v-1024h-74l-47 104q-53 -57 -137 -80.5t-162 -23.5h-223l-66 -338h-71z" />
<glyph unicode="&#xb6;" horiz-adv-x="1236" d="M160 954q0 326 370 326h527v-137h-103v-1143h-153v1143h-258v-1143h-301v66l186 63v512q-133 16 -200.5 96t-67.5 217z" />
<glyph unicode="&#xb7;" horiz-adv-x="452" d="M111 479q0 68 22.5 96.5t91.5 28.5q68 0 92.5 -28.5t24.5 -96.5q0 -70 -23.5 -97.5t-93.5 -27.5t-92 27t-22 98z" />
<glyph unicode="&#xb8;" horiz-adv-x="1228" d="M-7 -317l13 84h76q49 0 68.5 13t19.5 48v215h24q51 -29 82 -93.5t31 -139.5q0 -72 -51.5 -116t-137.5 -44q-59 0 -125 33zM0 0z" />
<glyph unicode="&#xb9;" horiz-adv-x="702" d="M96 664zM96 1379v98l326 39v-760h178v-92h-489v92h206v649z" />
<glyph unicode="&#xba;" horiz-adv-x="1011" d="M156 1147q0 180 27.5 268t100 122t222.5 34q154 0 226.5 -34t99 -121t26.5 -269q0 -180 -27.5 -268t-100.5 -122t-224 -34q-150 0 -222.5 34t-100 122t-27.5 268zM203 479v35q0 49 17.5 64.5t72.5 15.5h520v-37q0 -49 -17.5 -63.5t-74.5 -14.5h-518zM301 844h330 q49 0 65.5 8t16.5 31v567h-330q-47 0 -64.5 -8t-17.5 -31v-567z" />
<glyph unicode="&#xbb;" horiz-adv-x="825" d="M51 172l195 340l-195 340l53 45l291 -305v-158l-291 -307zM430 172l195 340l-195 340l53 45l291 -305v-158l-291 -307z" />
<glyph unicode="&#xbc;" horiz-adv-x="1929" d="M96 0zM96 1174v98l326 39v-760h178v-92h-489v92h206v649zM604 -82l477 1393q8 27 27.5 39t60.5 12h31l-478 -1393q-16 -28 -32.5 -39.5t-55.5 -11.5h-30zM1126 193v51l349 587h233v-548h94v-90h-94v-193h-106v193h-476zM1264 283h338v469h-60z" />
<glyph unicode="&#xbd;" horiz-adv-x="1968" d="M96 0zM96 1174v98l326 39v-760h178v-92h-489v92h206v649zM604 -82l477 1393q8 27 27.5 39t60.5 12h31l-478 -1393q-16 -28 -32.5 -39.5t-55.5 -11.5h-30zM1237 0v98q0 119 26.5 174.5t119 104.5t333.5 139v234q-55 10 -137 10q-141 0 -305 -27l-14 86q119 33 278 33 q152 0 221.5 -49t69.5 -158q0 -92 -27.5 -140t-126 -99.5t-335.5 -143.5v-170h473v-92h-576z" />
<glyph unicode="&#xbe;" horiz-adv-x="2031" d="M106 0zM106 471l11 86q131 -25 282 -25q125 0 160 9v282l-250 29v59l250 35v262q-41 10 -123 11q-145 0 -282 -27l-11 86q104 33 269 33q262 0 262 -228q0 -68 -26.5 -121t-76.5 -79v-6q53 -29 78 -77t25 -124q0 -86 -23.5 -136.5t-92.5 -76t-200 -25.5q-150 0 -252 33z M707 -82l477 1393q8 27 27.5 39t60.5 12h31l-478 -1393q-16 -28 -32.5 -39.5t-55.5 -11.5h-30zM1228 193v51l349 587h233v-548h94v-90h-94v-193h-106v193h-476zM1366 283h338v469h-60z" />
<glyph unicode="&#xbf;" horiz-adv-x="811" d="M39 4q0 100 22.5 150.5t96 91.5t248.5 104l8 305h102l21 -360q2 -25 -24 -41t-110 -47l-194 -70v-270q86 -12 192 -12q119 0 324 41l20 -111q-176 -53 -323 -53q-141 0 -224 26.5t-121 86t-38 159.5zM346 928q0 72 24.5 99.5t94.5 27.5q72 0 95.5 -28t23.5 -99 q0 -72 -23.5 -100.5t-95.5 -28.5q-70 0 -94.5 29.5t-24.5 99.5z" />
<glyph unicode="&#xc0;" horiz-adv-x="1091" d="M35 0l389 1280h244l389 -1280h-164l-90 303h-514l-90 -303h-164zM35 0zM330 438h432l-207 695h-18zM338 1548q0 6 15 23l79 100q6 8 13 8q4 0 14 -8l297 -215l-39 -59l-272 71q-27 6 -43 21l-51 39q-12 12 -13 20z" />
<glyph unicode="&#xc1;" horiz-adv-x="1091" d="M35 0l389 1280h244l389 -1280h-164l-90 303h-514l-90 -303h-164zM35 0zM330 438h432l-207 695h-18zM385 1481l297 215q10 8 14 8q6 0 13 -8l79 -101q14 -16 15 -22q0 -8 -15 -21l-49 -39q-16 -12 -45 -20l-272 -72z" />
<glyph unicode="&#xc2;" horiz-adv-x="1091" d="M35 0l389 1280h244l389 -1280h-164l-90 303h-514l-90 -303h-164zM35 0zM315 1466l201 230q8 10 18 10h25q10 0 18 -10l201 -230l-65 -63l-166 127l-166 -127zM330 438h432l-207 695h-18z" />
<glyph unicode="&#xc3;" horiz-adv-x="1091" d="M35 0l389 1280h244l389 -1280h-164l-90 303h-514l-90 -303h-164zM35 0zM271 1526q100 76 149 103.5t80 27.5q25 0 46 -14.5t95 -73.5l129 65l51 -84q-88 -70 -141 -100.5t-88 -30.5q-27 0 -50.5 14.5t-90.5 73.5l-129 -65zM330 438h432l-207 695h-18z" />
<glyph unicode="&#xc4;" horiz-adv-x="1091" d="M35 0l389 1280h244l389 -1280h-164l-90 303h-514l-90 -303h-164zM35 0zM273 1550q0 61 17 84t75 23q55 0 73.5 -22.5t18.5 -84.5q0 -61 -17.5 -83.5t-74.5 -22.5q-58 0 -75 21.5t-17 84.5zM330 438h432l-207 695h-18zM637 1550q0 61 17.5 84t74.5 23q55 0 73.5 -22.5 t18.5 -84.5q0 -61 -17 -83.5t-75 -22.5q-57 0 -74.5 21.5t-17.5 84.5z" />
<glyph unicode="&#xc5;" horiz-adv-x="1091" d="M35 0l389 1280h244l389 -1280h-164l-90 303h-514l-90 -303h-164zM35 0zM330 438h432l-207 695h-18zM350 1561q0 98 46 146t151 48q100 0 146 -48t46 -146q0 -100 -46 -148.5t-146 -48.5q-105 0 -151 48t-46 149zM457 1462h90q45 0 65.5 9.5t20.5 44.5v141h-84 q-49 0 -70.5 -9.5t-21.5 -41.5v-144z" />
<glyph unicode="&#xc6;" horiz-adv-x="1519" d="M35 0l332 1280h940l-27 -156h-537l111 -417h367v-150h-330l104 -401h414v-156h-547l-74 297h-507l-72 -297h-174zM319 453h431l-166 680h-97z" />
<glyph unicode="&#xc7;" horiz-adv-x="993" d="M147 639q0 279 37 419t135.5 196.5t294.5 56.5q66 0 152 -11.5t141 -29.5l-20 -137q-76 16 -174.5 26t-157.5 10q-88 0 -136 -11t-72.5 -45t-24.5 -101v-875q106 -33 260 -33q156 0 340 52l18 -133q-74 -29 -152.5 -41.5t-185.5 -12.5q41 -76 41 -159q0 -72 -51 -116 t-137 -44q-59 0 -125 33l12 84h76q49 0 68.5 13t19.5 48v145q-147 12 -223 77t-106 201t-30 388z" />
<glyph unicode="&#xc8;" horiz-adv-x="1052" d="M201 0v1280h733l-19 -137h-550v-436h499v-134h-499v-436h579v-137h-743zM201 0zM368 1548q0 6 15 23l79 100q6 8 13 8q4 0 14 -8l297 -215l-39 -59l-272 71q-27 6 -43 21l-51 39q-12 12 -13 20z" />
<glyph unicode="&#xc9;" horiz-adv-x="1052" d="M201 0v1280h733l-19 -137h-550v-436h499v-134h-499v-436h579v-137h-743zM201 0zM416 1481l297 215q10 8 14 8q6 0 13 -8l79 -101q14 -16 15 -22q0 -8 -15 -21l-49 -39q-16 -12 -45 -20l-272 -72z" />
<glyph unicode="&#xca;" horiz-adv-x="1052" d="M201 0v1280h733l-19 -137h-550v-436h499v-134h-499v-436h579v-137h-743zM201 0zM346 1466l201 230q8 10 18 10h25q10 0 18 -10l201 -230l-65 -63l-166 127l-166 -127z" />
<glyph unicode="&#xcb;" horiz-adv-x="1052" d="M201 0v1280h733l-19 -137h-550v-436h499v-134h-499v-436h579v-137h-743zM201 0zM304 1550q0 61 17 84t75 23q55 0 73.5 -22.5t18.5 -84.5q0 -61 -17.5 -83.5t-74.5 -22.5q-58 0 -75 21.5t-17 84.5zM668 1550q0 61 17.5 84t74.5 23q55 0 73.5 -22.5t18.5 -84.5 q0 -61 -17 -83.5t-75 -22.5q-57 0 -74.5 21.5t-17.5 84.5z" />
<glyph unicode="&#xcc;" d="M73 1548q0 6 15 23l79 100q6 8 13 8q4 0 14 -8l297 -215l-39 -59l-272 71q-27 6 -43 21l-51 39q-12 12 -13 20zM74 0zM201 0v1280h164v-1280h-164z" />
<glyph unicode="&#xcd;" d="M121 0zM121 1481l297 215q10 8 14 8q6 0 13 -8l79 -101q14 -16 15 -22q0 -8 -15 -21l-49 -39q-16 -12 -45 -20l-272 -72zM201 0v1280h164v-1280h-164z" />
<glyph unicode="&#xce;" d="M51 0zM51 1466l201 230q8 10 18 10h25q10 0 18 -10l201 -230l-65 -63l-166 127l-166 -127zM201 0v1280h164v-1280h-164z" />
<glyph unicode="&#xcf;" d="M8 0zM9 1550q0 61 17 84t75 23q55 0 73.5 -22.5t18.5 -84.5q0 -61 -17.5 -83.5t-74.5 -22.5q-58 0 -75 21.5t-17 84.5zM201 0v1280h164v-1280h-164zM373 1550q0 61 17.5 84t74.5 23q55 0 73.5 -22.5t18.5 -84.5q0 -61 -17 -83.5t-75 -22.5q-57 0 -74.5 21.5t-17.5 84.5z " />
<glyph unicode="&#xd0;" horiz-adv-x="1265" d="M70 584v34q0 49 14 64.5t61 15.5h56v582h436q209 0 308 -49t136 -180t37 -412q0 -279 -37 -410t-136 -180t-308 -49h-436v584h-131zM365 139h415q90 0 125 34t35 120v694q0 86 -35 120t-125 34h-415v-443h215v-36q0 -49 -14.5 -63.5t-63.5 -14.5h-137v-445z" />
<glyph unicode="&#xd1;" horiz-adv-x="1347" d="M211 0v1280h158l538 -868q35 -59 43 -76t11 -47h12v991h164v-1280h-158l-539 868q-35 59 -43 76t-10 47h-12v-991h-164zM211 0zM424 1526q100 76 149 103.5t80 27.5q25 0 46 -14.5t95 -73.5l129 65l51 -84q-88 -70 -141 -100.5t-88 -30.5q-27 0 -50.5 14.5t-90.5 73.5 l-129 -65z" />
<glyph unicode="&#xd2;" horiz-adv-x="1292" d="M147 0zM147 639q0 295 37 433t139.5 188.5t323.5 50.5q219 0 320.5 -51.5t139.5 -188.5t38 -432t-38 -432t-139.5 -187.5t-320.5 -50.5q-221 0 -323.5 50.5t-139.5 187.5t-37 432zM322 109h469q100 0 139 34.5t39 122.5v905h-471q-100 0 -138 -33.5t-38 -123.5v-905z M438 1548q0 6 15 23l79 100q6 8 13 8q4 0 14 -8l297 -215l-39 -59l-272 71q-27 6 -43 21l-51 39q-12 12 -13 20z" />
<glyph unicode="&#xd3;" horiz-adv-x="1292" d="M147 0zM147 639q0 295 37 433t139.5 188.5t323.5 50.5q219 0 320.5 -51.5t139.5 -188.5t38 -432t-38 -432t-139.5 -187.5t-320.5 -50.5q-221 0 -323.5 50.5t-139.5 187.5t-37 432zM322 109h469q100 0 139 34.5t39 122.5v905h-471q-100 0 -138 -33.5t-38 -123.5v-905z M485 1481l297 215q10 8 14 8q6 0 13 -8l79 -101q14 -16 15 -22q0 -8 -15 -21l-49 -39q-16 -12 -45 -20l-272 -72z" />
<glyph unicode="&#xd4;" horiz-adv-x="1292" d="M147 0zM147 639q0 295 37 433t139.5 188.5t323.5 50.5q219 0 320.5 -51.5t139.5 -188.5t38 -432t-38 -432t-139.5 -187.5t-320.5 -50.5q-221 0 -323.5 50.5t-139.5 187.5t-37 432zM322 109h469q100 0 139 34.5t39 122.5v905h-471q-100 0 -138 -33.5t-38 -123.5v-905z M415 1466l201 230q8 10 18 10h25q10 0 18 -10l201 -230l-65 -63l-166 127l-166 -127z" />
<glyph unicode="&#xd5;" horiz-adv-x="1292" d="M147 0zM147 639q0 295 37 433t139.5 188.5t323.5 50.5q219 0 320.5 -51.5t139.5 -188.5t38 -432t-38 -432t-139.5 -187.5t-320.5 -50.5q-221 0 -323.5 50.5t-139.5 187.5t-37 432zM322 109h469q100 0 139 34.5t39 122.5v905h-471q-100 0 -138 -33.5t-38 -123.5v-905z M371 1526q100 76 149 103.5t80 27.5q25 0 46 -14.5t95 -73.5l129 65l51 -84q-88 -70 -141 -100.5t-88 -30.5q-27 0 -50.5 14.5t-90.5 73.5l-129 -65z" />
<glyph unicode="&#xd6;" horiz-adv-x="1292" d="M147 0zM147 639q0 295 37 433t139.5 188.5t323.5 50.5q219 0 320.5 -51.5t139.5 -188.5t38 -432t-38 -432t-139.5 -187.5t-320.5 -50.5q-221 0 -323.5 50.5t-139.5 187.5t-37 432zM322 109h469q100 0 139 34.5t39 122.5v905h-471q-100 0 -138 -33.5t-38 -123.5v-905z M373 1550q0 61 17 84t75 23q55 0 73.5 -22.5t18.5 -84.5q0 -61 -17.5 -83.5t-74.5 -22.5q-58 0 -75 21.5t-17 84.5zM737 1550q0 61 17.5 84t74.5 23q55 0 73.5 -22.5t18.5 -84.5q0 -61 -17 -83.5t-75 -22.5q-57 0 -74.5 21.5t-17.5 84.5z" />
<glyph unicode="&#xd7;" horiz-adv-x="1085" d="M190 383l256 256l-256 256l97 96l256 -256l256 256l98 -96l-256 -256l256 -256l-98 -96l-256 256l-256 -256z" />
<glyph unicode="&#xd8;" horiz-adv-x="1292" d="M147 639q0 295 37 433t139.5 188.5t323.5 50.5q143 0 232 -21l39 88q14 33 33.5 45.5t54.5 12.5h55l-82 -183q96 -57 131 -194t35 -420q0 -295 -38 -432t-139.5 -187.5t-320.5 -50.5q-152 0 -231 19l-39 -86q-14 -33 -32.5 -44.5t-55.5 -11.5h-56l80 181 q-68 37 -103.5 110.5t-49 192.5t-13.5 309zM322 109h28l475 1062h-327q-100 0 -138 -33.5t-38 -123.5v-905zM469 109h322q100 0 139 34.5t39 122.5v905h-27z" />
<glyph unicode="&#xd9;" horiz-adv-x="1308" d="M180 0zM180 369v911h164v-1171h322q125 0 187 9t87 31.5t25 67.5v1063h163v-911q0 -168 -37.5 -251t-137 -116t-298.5 -33q-200 0 -299.5 33t-137.5 116t-38 251zM446 1548q0 6 15 23l79 100q6 8 13 8q4 0 14 -8l297 -215l-39 -59l-272 71q-27 6 -43 21l-51 39 q-12 12 -13 20z" />
<glyph unicode="&#xda;" horiz-adv-x="1308" d="M180 0zM180 369v911h164v-1171h322q125 0 187 9t87 31.5t25 67.5v1063h163v-911q0 -168 -37.5 -251t-137 -116t-298.5 -33q-200 0 -299.5 33t-137.5 116t-38 251zM494 1481l297 215q10 8 14 8q6 0 13 -8l79 -101q14 -16 15 -22q0 -8 -15 -21l-49 -39q-16 -12 -45 -20 l-272 -72z" />
<glyph unicode="&#xdb;" horiz-adv-x="1308" d="M180 0zM180 369v911h164v-1171h322q125 0 187 9t87 31.5t25 67.5v1063h163v-911q0 -168 -37.5 -251t-137 -116t-298.5 -33q-200 0 -299.5 33t-137.5 116t-38 251zM424 1466l201 230q8 10 18 10h25q10 0 18 -10l201 -230l-65 -63l-166 127l-166 -127z" />
<glyph unicode="&#xdc;" horiz-adv-x="1308" d="M180 0zM180 369v911h164v-1171h322q125 0 187 9t87 31.5t25 67.5v1063h163v-911q0 -168 -37.5 -251t-137 -116t-298.5 -33q-200 0 -299.5 33t-137.5 116t-38 251zM381 1550q0 61 17 84t75 23q55 0 73.5 -22.5t18.5 -84.5q0 -61 -17.5 -83.5t-74.5 -22.5q-58 0 -75 21.5 t-17 84.5zM745 1550q0 61 17.5 84t74.5 23q55 0 73.5 -22.5t18.5 -84.5q0 -61 -17 -83.5t-75 -22.5q-57 0 -74.5 21.5t-17.5 84.5z" />
<glyph unicode="&#xdd;" horiz-adv-x="966" d="M23 0zM23 1280h170l290 -662l291 662h170l-379 -834v-446h-164v446zM322 1481l297 215q10 8 14 8q6 0 13 -8l79 -101q14 -16 15 -22q0 -8 -15 -21l-49 -39q-16 -12 -45 -20l-272 -72z" />
<glyph unicode="&#xde;" horiz-adv-x="1060" d="M201 0v1280h164v-223h321q129 0 199.5 -39t101.5 -130t31 -255q0 -223 -68.5 -317.5t-232.5 -94.5h-352v-221h-164zM365 356h327q88 0 121 18.5t33 67.5v396q0 49 -33 67.5t-121 18.5h-327v-568z" />
<glyph unicode="&#xdf;" horiz-adv-x="1267" d="M111 907v117h151q10 133 48 211t115 112.5t202 34.5q211 0 311 -73.5t100 -229.5q0 -94 -52 -186t-187 -238q152 -66 228.5 -119t108 -113.5t31.5 -150.5q0 -160 -88 -231.5t-282 -71.5q-125 0 -291 51l31 138q68 -25 147.5 -40.5t151.5 -15.5q102 0 168 17v282 q-164 80 -230.5 117t-88 62.5t-21.5 62.5q0 43 22.5 80t67.5 88q59 68 89.5 122t30.5 128q0 96 -64.5 142t-201.5 46q-66 0 -182 -18v-1231h-164v907h-151z" />
<glyph unicode="&#xe0;" horiz-adv-x="1107" d="M125 0zM125 281q0 156 39 219t157.5 83.5t407.5 20.5h25v279q-82 25 -228 24q-158 0 -333 -47l-23 123q66 27 176.5 43t212.5 16q137 0 214 -25.5t111 -85t34 -161.5v-770h-72l-47 102q-72 -63 -162 -91.5t-207 -28.5q-166 0 -235.5 68.5t-69.5 230.5zM272 115h314 q98 0 133 26.5t35 100.5v243h-310q-100 0 -136 -26.5t-36 -98.5v-245zM350 1292q0 6 15 23l79 100q6 8 13 8q4 0 14 -8l297 -215l-39 -59l-272 71q-27 6 -43 21l-51 39q-12 12 -13 20z" />
<glyph unicode="&#xe1;" horiz-adv-x="1107" d="M125 0zM125 281q0 156 39 219t157.5 83.5t407.5 20.5h25v279q-82 25 -228 24q-158 0 -333 -47l-23 123q66 27 176.5 43t212.5 16q137 0 214 -25.5t111 -85t34 -161.5v-770h-72l-47 102q-72 -63 -162 -91.5t-207 -28.5q-166 0 -235.5 68.5t-69.5 230.5zM272 115h314 q98 0 133 26.5t35 100.5v243h-310q-100 0 -136 -26.5t-36 -98.5v-245zM397 1225l297 215q10 8 14 8q6 0 13 -8l79 -101q14 -16 15 -22q0 -8 -15 -21l-49 -39q-16 -12 -45 -20l-272 -72z" />
<glyph unicode="&#xe2;" horiz-adv-x="1107" d="M125 0zM125 281q0 156 39 219t157.5 83.5t407.5 20.5h25v279q-82 25 -228 24q-158 0 -333 -47l-23 123q66 27 176.5 43t212.5 16q137 0 214 -25.5t111 -85t34 -161.5v-770h-72l-47 102q-72 -63 -162 -91.5t-207 -28.5q-166 0 -235.5 68.5t-69.5 230.5zM272 115h314 q98 0 133 26.5t35 100.5v243h-310q-100 0 -136 -26.5t-36 -98.5v-245zM327 1210l201 230q8 10 18 10h25q10 0 18 -10l201 -230l-65 -63l-166 127l-166 -127z" />
<glyph unicode="&#xe3;" horiz-adv-x="1107" d="M125 0zM125 281q0 156 39 219t157.5 83.5t407.5 20.5h25v279q-82 25 -228 24q-158 0 -333 -47l-23 123q66 27 176.5 43t212.5 16q137 0 214 -25.5t111 -85t34 -161.5v-770h-72l-47 102q-72 -63 -162 -91.5t-207 -28.5q-166 0 -235.5 68.5t-69.5 230.5zM272 115h314 q98 0 133 26.5t35 100.5v243h-310q-100 0 -136 -26.5t-36 -98.5v-245zM283 1270q100 76 149 103.5t80 27.5q25 0 46 -14.5t95 -73.5l129 65l51 -84q-88 -70 -141 -100.5t-88 -30.5q-27 0 -50.5 14.5t-90.5 73.5l-129 -65z" />
<glyph unicode="&#xe4;" horiz-adv-x="1107" d="M125 0zM125 281q0 156 39 219t157.5 83.5t407.5 20.5h25v279q-82 25 -228 24q-158 0 -333 -47l-23 123q66 27 176.5 43t212.5 16q137 0 214 -25.5t111 -85t34 -161.5v-770h-72l-47 102q-72 -63 -162 -91.5t-207 -28.5q-166 0 -235.5 68.5t-69.5 230.5zM272 115h314 q98 0 133 26.5t35 100.5v243h-310q-100 0 -136 -26.5t-36 -98.5v-245zM285 1294q0 61 17 84t75 23q55 0 73.5 -22.5t18.5 -84.5q0 -61 -17.5 -83.5t-74.5 -22.5q-58 0 -75 21.5t-17 84.5zM649 1294q0 61 17.5 84t74.5 23q55 0 73.5 -22.5t18.5 -84.5q0 -61 -17 -83.5 t-75 -22.5q-57 0 -74.5 21.5t-17.5 84.5z" />
<glyph unicode="&#xe5;" horiz-adv-x="1107" d="M125 0zM125 281q0 156 39 219t157.5 83.5t407.5 20.5h25v279q-82 25 -228 24q-158 0 -333 -47l-23 123q66 27 176.5 43t212.5 16q137 0 214 -25.5t111 -85t34 -161.5v-770h-72l-47 102q-72 -63 -162 -91.5t-207 -28.5q-166 0 -235.5 68.5t-69.5 230.5zM272 115h314 q98 0 133 26.5t35 100.5v243h-310q-100 0 -136 -26.5t-36 -98.5v-245zM362 1305q0 98 46 146t151 48q100 0 146 -48t46 -146q0 -100 -46 -148.5t-146 -48.5q-105 0 -151 48t-46 149zM469 1206h90q45 0 65.5 9.5t20.5 44.5v141h-84q-49 0 -70.5 -9.5t-21.5 -41.5v-144z" />
<glyph unicode="&#xe6;" horiz-adv-x="1710" d="M125 281q0 156 39 219t157.5 83.5t407.5 20.5h25v279q-82 25 -228 24q-158 0 -333 -47l-23 123q66 27 176.5 43t212.5 16q117 0 189.5 -18t113.5 -59q45 41 117 59t182 18q162 0 245 -25.5t116.5 -89t33.5 -184.5q0 -156 -40.5 -219t-165.5 -83.5t-430 -20.5v-279 q92 -25 235 -24q82 0 161 10t191 37l23 -123q-74 -27 -184.5 -43t-227.5 -16q-131 0 -202.5 28.5t-108.5 98.5q-76 -66 -166 -96.5t-211 -30.5q-166 0 -235.5 68.5t-69.5 230.5zM272 115h314q98 0 133 26.5t35 100.5v243h-310q-100 0 -136 -26.5t-36 -98.5v-245zM920 539 h311q102 0 140 26.5t38 98.5v237h-313q-102 0 -139 -26.5t-37 -100.5v-235z" />
<glyph unicode="&#xe7;" horiz-adv-x="929" d="M135 512q0 227 27.5 336.5t99.5 151.5t221 42q184 0 330 -34l-22 -131q-160 31 -302 30q-104 0 -145 -39t-41 -137v-590q80 -25 229 -24q66 0 128.5 10t154.5 37l21 -123q-117 -51 -299 -57q49 -76 49 -174q0 -72 -51.5 -116t-137.5 -44q-59 0 -125 33l13 84h75 q49 0 69 13t20 48v154q-133 4 -199 49t-90.5 154.5t-24.5 326.5z" />
<glyph unicode="&#xe8;" horiz-adv-x="1095" d="M135 0zM135 512q0 211 36 323.5t123 159.5t251 47q162 0 244.5 -25.5t116.5 -88t34 -185.5q0 -156 -40 -219t-165 -83.5t-430 -20.5v-279q88 -25 234 -24q84 0 161.5 10t190.5 37l22 -123q-70 -27 -180 -43t-229 -16q-156 0 -232.5 43t-106.5 154.5t-30 332.5zM305 539 h309q104 0 141.5 26.5t37.5 98.5v237h-312q-102 0 -139 -26.5t-37 -100.5v-235zM336 1292q0 6 15 23l79 100q6 8 13 8q4 0 14 -8l297 -215l-39 -59l-272 71q-27 6 -43 21l-51 39q-12 12 -13 20z" />
<glyph unicode="&#xe9;" horiz-adv-x="1095" d="M135 0zM135 512q0 211 36 323.5t123 159.5t251 47q162 0 244.5 -25.5t116.5 -88t34 -185.5q0 -156 -40 -219t-165 -83.5t-430 -20.5v-279q88 -25 234 -24q84 0 161.5 10t190.5 37l22 -123q-70 -27 -180 -43t-229 -16q-156 0 -232.5 43t-106.5 154.5t-30 332.5zM305 539 h309q104 0 141.5 26.5t37.5 98.5v237h-312q-102 0 -139 -26.5t-37 -100.5v-235zM383 1225l297 215q10 8 14 8q6 0 13 -8l79 -101q14 -16 15 -22q0 -8 -15 -21l-49 -39q-16 -12 -45 -20l-272 -72z" />
<glyph unicode="&#xea;" horiz-adv-x="1095" d="M135 0zM135 512q0 211 36 323.5t123 159.5t251 47q162 0 244.5 -25.5t116.5 -88t34 -185.5q0 -156 -40 -219t-165 -83.5t-430 -20.5v-279q88 -25 234 -24q84 0 161.5 10t190.5 37l22 -123q-70 -27 -180 -43t-229 -16q-156 0 -232.5 43t-106.5 154.5t-30 332.5zM305 539 h309q104 0 141.5 26.5t37.5 98.5v237h-312q-102 0 -139 -26.5t-37 -100.5v-235zM313 1210l201 230q8 10 18 10h25q10 0 18 -10l201 -230l-65 -63l-166 127l-166 -127z" />
<glyph unicode="&#xeb;" horiz-adv-x="1095" d="M135 0zM135 512q0 211 36 323.5t123 159.5t251 47q162 0 244.5 -25.5t116.5 -88t34 -185.5q0 -156 -40 -219t-165 -83.5t-430 -20.5v-279q88 -25 234 -24q84 0 161.5 10t190.5 37l22 -123q-70 -27 -180 -43t-229 -16q-156 0 -232.5 43t-106.5 154.5t-30 332.5zM271 1294 q0 61 17 84t75 23q55 0 73.5 -22.5t18.5 -84.5q0 -61 -17.5 -83.5t-74.5 -22.5q-58 0 -75 21.5t-17 84.5zM305 539h309q104 0 141.5 26.5t37.5 98.5v237h-312q-102 0 -139 -26.5t-37 -100.5v-235zM635 1294q0 61 17.5 84t74.5 23q55 0 73.5 -22.5t18.5 -84.5 q0 -61 -17 -83.5t-75 -22.5q-57 0 -74.5 21.5t-17.5 84.5z" />
<glyph unicode="&#xec;" d="M73 1292q0 6 15 23l79 100q6 8 13 8q4 0 14 -8l297 -215l-39 -59l-272 71q-27 6 -43 21l-51 39q-12 12 -13 20zM74 0zM201 0v1018l164 26v-1044h-164z" />
<glyph unicode="&#xed;" d="M121 0zM121 1225l297 215q10 8 14 8q6 0 13 -8l79 -101q14 -16 15 -22q0 -8 -15 -21l-49 -39q-16 -12 -45 -20l-272 -72zM201 0v1018l164 26v-1044h-164z" />
<glyph unicode="&#xee;" d="M51 0zM51 1210l201 230q8 10 18 10h25q10 0 18 -10l201 -230l-65 -63l-166 127l-166 -127zM201 0v1018l164 26v-1044h-164z" />
<glyph unicode="&#xef;" d="M8 0zM9 1294q0 61 17 84t75 23q55 0 73.5 -22.5t18.5 -84.5q0 -61 -17.5 -83.5t-74.5 -22.5q-58 0 -75 21.5t-17 84.5zM201 0v1018l164 26v-1044h-164zM373 1294q0 61 17.5 84t74.5 23q55 0 73.5 -22.5t18.5 -84.5q0 -61 -17 -83.5t-75 -22.5q-57 0 -74.5 21.5 t-17.5 84.5z" />
<glyph unicode="&#xf0;" horiz-adv-x="1126" d="M147 440q0 195 32 290t118 132t262 37h246q-16 80 -60 182l-172 -57l-16 49q-10 37 -10 53q0 31 31 39l106 35q-33 59 -84 135l135 37q39 -53 82 -127l184 62l17 -52q10 -35 10 -53q0 -29 -31 -39l-116 -39q92 -201 92 -364v-336q0 -190 -32 -281.5t-118 -126t-264 -34.5 q-176 0 -262 36.5t-118 132t-32 289.5zM317 121h388q59 0 78.5 10t19.5 41v588h-389q-57 0 -77 -10.5t-20 -40.5v-588z" />
<glyph unicode="&#xf1;" horiz-adv-x="1171" d="M201 0v1024h71l47 -102q74 63 164 91.5t211 28.5q287 0 287 -161v-881h-164v909h-260q-113 0 -152.5 -27.5t-39.5 -103.5v-778h-164zM201 0zM330 1270q100 76 149 103.5t80 27.5q25 0 46 -14.5t95 -73.5l129 65l51 -84q-88 -70 -141 -100.5t-88 -30.5q-27 0 -50.5 14.5 t-90.5 73.5l-129 -65z" />
<glyph unicode="&#xf2;" horiz-adv-x="1120" d="M135 0zM135 512q0 227 33 336.5t121 151.5t270 42q184 0 272.5 -40.5t121 -150.5t32.5 -339q0 -227 -32.5 -336.5t-122 -151.5t-271.5 -42t-270 42t-121 151.5t-33 336.5zM303 121h412q61 0 81.5 10t20.5 41v731h-411q-61 0 -82 -10t-21 -41v-731zM350 1292q0 6 15 23 l79 100q6 8 13 8q4 0 14 -8l297 -215l-39 -59l-272 71q-27 6 -43 21l-51 39q-12 12 -13 20z" />
<glyph unicode="&#xf3;" horiz-adv-x="1120" d="M135 0zM135 512q0 227 33 336.5t121 151.5t270 42q184 0 272.5 -40.5t121 -150.5t32.5 -339q0 -227 -32.5 -336.5t-122 -151.5t-271.5 -42t-270 42t-121 151.5t-33 336.5zM303 121h412q61 0 81.5 10t20.5 41v731h-411q-61 0 -82 -10t-21 -41v-731zM397 1225l297 215 q10 8 14 8q6 0 13 -8l79 -101q14 -16 15 -22q0 -8 -15 -21l-49 -39q-16 -12 -45 -20l-272 -72z" />
<glyph unicode="&#xf4;" horiz-adv-x="1120" d="M135 0zM135 512q0 227 33 336.5t121 151.5t270 42q184 0 272.5 -40.5t121 -150.5t32.5 -339q0 -227 -32.5 -336.5t-122 -151.5t-271.5 -42t-270 42t-121 151.5t-33 336.5zM303 121h412q61 0 81.5 10t20.5 41v731h-411q-61 0 -82 -10t-21 -41v-731zM327 1210l201 230 q8 10 18 10h25q10 0 18 -10l201 -230l-65 -63l-166 127l-166 -127z" />
<glyph unicode="&#xf5;" horiz-adv-x="1120" d="M135 0zM135 512q0 227 33 336.5t121 151.5t270 42q184 0 272.5 -40.5t121 -150.5t32.5 -339q0 -227 -32.5 -336.5t-122 -151.5t-271.5 -42t-270 42t-121 151.5t-33 336.5zM283 1270q100 76 149 103.5t80 27.5q25 0 46 -14.5t95 -73.5l129 65l51 -84q-88 -70 -141 -100.5 t-88 -30.5q-27 0 -50.5 14.5t-90.5 73.5l-129 -65zM303 121h412q61 0 81.5 10t20.5 41v731h-411q-61 0 -82 -10t-21 -41v-731z" />
<glyph unicode="&#xf6;" horiz-adv-x="1120" d="M135 0zM135 512q0 227 33 336.5t121 151.5t270 42q184 0 272.5 -40.5t121 -150.5t32.5 -339q0 -227 -32.5 -336.5t-122 -151.5t-271.5 -42t-270 42t-121 151.5t-33 336.5zM285 1294q0 61 17 84t75 23q55 0 73.5 -22.5t18.5 -84.5q0 -61 -17.5 -83.5t-74.5 -22.5 q-58 0 -75 21.5t-17 84.5zM303 121h412q61 0 81.5 10t20.5 41v731h-411q-61 0 -82 -10t-21 -41v-731zM649 1294q0 61 17.5 84t74.5 23q55 0 73.5 -22.5t18.5 -84.5q0 -61 -17 -83.5t-75 -22.5q-57 0 -74.5 21.5t-17.5 84.5z" />
<glyph unicode="&#xf7;" horiz-adv-x="1085" d="M176 569v140h733v-140h-733zM459 281q0 53 16.5 73.5t69.5 20.5q51 0 68.5 -21.5t17.5 -72.5t-17.5 -72t-68.5 -21q-53 0 -69.5 19.5t-16.5 73.5zM459 954q0 54 16.5 74.5t69.5 20.5q51 0 68.5 -21.5t17.5 -73.5q0 -51 -17.5 -71.5t-68.5 -20.5q-53 0 -69.5 19.5 t-16.5 72.5z" />
<glyph unicode="&#xf8;" horiz-adv-x="1120" d="M135 512q0 227 33 336.5t121 151.5t270 42q123 0 195 -16l75 156q14 31 33 41t56 10h55l-119 -244q76 -47 103.5 -154.5t27.5 -322.5q0 -227 -32.5 -336.5t-122 -151.5t-271.5 -42q-125 0 -192 16l-78 -158q-14 -31 -32.5 -41t-55.5 -10h-56l121 248q-76 47 -103.5 155.5 t-27.5 319.5zM303 121h6l383 782h-286q-61 0 -82 -10t-21 -41v-731zM426 121h289q61 0 81.5 10t20.5 41v731h-6z" />
<glyph unicode="&#xf9;" horiz-adv-x="1171" d="M190 0zM190 180v844h164v-909h260q113 0 153 26.5t40 104.5v778h164v-1024h-72l-45 102q-80 -63 -177 -91.5t-224 -28.5q-135 0 -199 48t-64 150zM377 1292q0 6 15 23l79 100q6 8 13 8q4 0 14 -8l297 -215l-39 -59l-272 71q-27 6 -43 21l-51 39q-12 12 -13 20z" />
<glyph unicode="&#xfa;" horiz-adv-x="1171" d="M190 0zM190 180v844h164v-909h260q113 0 153 26.5t40 104.5v778h164v-1024h-72l-45 102q-80 -63 -177 -91.5t-224 -28.5q-135 0 -199 48t-64 150zM424 1225l297 215q10 8 14 8q6 0 13 -8l79 -101q14 -16 15 -22q0 -8 -15 -21l-49 -39q-16 -12 -45 -20l-272 -72z" />
<glyph unicode="&#xfb;" horiz-adv-x="1171" d="M190 0zM190 180v844h164v-909h260q113 0 153 26.5t40 104.5v778h164v-1024h-72l-45 102q-80 -63 -177 -91.5t-224 -28.5q-135 0 -199 48t-64 150zM354 1210l201 230q8 10 18 10h25q10 0 18 -10l201 -230l-65 -63l-166 127l-166 -127z" />
<glyph unicode="&#xfc;" horiz-adv-x="1171" d="M190 0zM190 180v844h164v-909h260q113 0 153 26.5t40 104.5v778h164v-1024h-72l-45 102q-80 -63 -177 -91.5t-224 -28.5q-135 0 -199 48t-64 150zM312 1294q0 61 17 84t75 23q55 0 73.5 -22.5t18.5 -84.5q0 -61 -17.5 -83.5t-74.5 -22.5q-58 0 -75 21.5t-17 84.5z M676 1294q0 61 17.5 84t74.5 23q55 0 73.5 -22.5t18.5 -84.5q0 -61 -17 -83.5t-75 -22.5q-57 0 -74.5 21.5t-17.5 84.5z" />
<glyph unicode="&#xfd;" horiz-adv-x="890" d="M6 0zM6 -336l6 88l121 15q84 12 129 32.5t74 62.5t53 122l21 69h-88l-308 971h164l258 -834h21l258 834h164l-308 -971q-49 -158 -102 -246t-124 -125.5t-175 -37.5q-88 0 -164 20zM285 1225l297 215q10 8 14 8q6 0 13 -8l79 -101q14 -16 15 -22q0 -8 -15 -21l-49 -39 q-16 -12 -45 -20l-272 -72z" />
<glyph unicode="&#xfe;" horiz-adv-x="1155" d="M201 -367v1698l164 31v-371q43 29 114.5 40t186.5 11q153 0 227 -40.5t100.5 -150.5t26.5 -339q0 -231 -27.5 -344t-101.5 -156t-225 -43q-115 0 -186.5 11.5t-114.5 42.5v-367zM365 109h387q59 0 78.5 10t19.5 41v743h-389q-55 0 -75.5 -8t-20.5 -31v-755z" />
<glyph unicode="&#xff;" horiz-adv-x="890" d="M6 0zM6 -336l6 88l121 15q84 12 129 32.5t74 62.5t53 122l21 69h-88l-308 971h164l258 -834h21l258 834h164l-308 -971q-49 -158 -102 -246t-124 -125.5t-175 -37.5q-88 0 -164 20zM172 1294q0 61 17 84t75 23q55 0 73.5 -22.5t18.5 -84.5q0 -61 -17.5 -83.5t-74.5 -22.5 q-58 0 -75 21.5t-17 84.5zM536 1294q0 61 17.5 84t74.5 23q55 0 73.5 -22.5t18.5 -84.5q0 -61 -17 -83.5t-75 -22.5q-57 0 -74.5 21.5t-17.5 84.5z" />
<glyph unicode="&#x152;" horiz-adv-x="1822" d="M147 639q0 281 38 412t140.5 180t321.5 49h1057l-18 -137h-551v-436h499v-134h-499v-436h579v-137h-1067q-221 0 -323.5 48t-139.5 179t-37 412zM322 137h469q100 0 139 35t39 123v848h-471q-100 0 -138 -34t-38 -124v-848z" />
<glyph unicode="&#x153;" horiz-adv-x="1773" d="M135 512q0 227 33 336.5t121 151.5t270 42q145 0 225 -24.5t121 -91.5q43 63 120 89.5t198 26.5q162 0 244.5 -25.5t116.5 -88t34 -185.5q0 -156 -40 -219t-165 -83.5t-430 -20.5v-279q92 -25 234 -24q83 0 162 10t190 37l22 -123q-74 -27 -184.5 -43t-224.5 -16 q-113 0 -180.5 24.5t-104.5 83.5q-43 -61 -122 -84.5t-216 -23.5q-182 0 -270 42t-121 151.5t-33 336.5zM303 121h412q61 0 81.5 10t20.5 41v731h-411q-61 0 -82 -10t-21 -41v-731zM983 539h309q104 0 141 26.5t37 98.5v237h-311q-102 0 -139 -26.5t-37 -100.5v-235z" />
<glyph unicode="&#x178;" horiz-adv-x="966" d="M23 0zM23 1280h170l290 -662l291 662h170l-379 -834v-446h-164v446zM209 1550q0 61 17 84t75 23q55 0 73.5 -22.5t18.5 -84.5q0 -61 -17.5 -83.5t-74.5 -22.5q-58 0 -75 21.5t-17 84.5zM573 1550q0 61 17.5 84t74.5 23q55 0 73.5 -22.5t18.5 -84.5q0 -61 -17 -83.5 t-75 -22.5q-57 0 -74.5 21.5t-17.5 84.5z" />
<glyph unicode="&#x2c6;" horiz-adv-x="1228" d="M161 1210l201 230q8 10 18 10h25q10 0 18 -10l201 -230l-65 -63l-166 127l-166 -127zM162 1147z" />
<glyph unicode="&#x2dc;" horiz-adv-x="1228" d="M193 1163zM193 1270q100 76 149 103.5t80 27.5q25 0 46 -14.5t95 -73.5l129 65l51 -84q-88 -70 -141 -100.5t-88 -30.5q-27 0 -50.5 14.5t-90.5 73.5l-129 -65z" />
<glyph unicode="&#x2000;" horiz-adv-x="877" />
<glyph unicode="&#x2001;" horiz-adv-x="1755" />
<glyph unicode="&#x2002;" horiz-adv-x="877" />
<glyph unicode="&#x2003;" horiz-adv-x="1755" />
<glyph unicode="&#x2004;" horiz-adv-x="585" />
<glyph unicode="&#x2005;" horiz-adv-x="438" />
<glyph unicode="&#x2006;" horiz-adv-x="292" />
<glyph unicode="&#x2007;" horiz-adv-x="292" />
<glyph unicode="&#x2008;" horiz-adv-x="219" />
<glyph unicode="&#x2009;" horiz-adv-x="351" />
<glyph unicode="&#x200a;" horiz-adv-x="97" />
<glyph unicode="&#x2010;" horiz-adv-x="716" d="M72 492v77q0 45 19.5 55.5t76.5 10.5h479v-78q0 -45 -19.5 -55t-78.5 -10h-477z" />
<glyph unicode="&#x2011;" horiz-adv-x="716" d="M72 492v77q0 45 19.5 55.5t76.5 10.5h479v-78q0 -45 -19.5 -55t-78.5 -10h-477z" />
<glyph unicode="&#x2012;" horiz-adv-x="716" d="M72 492v77q0 45 19.5 55.5t76.5 10.5h479v-78q0 -45 -19.5 -55t-78.5 -10h-477z" />
<glyph unicode="&#x2013;" horiz-adv-x="1071" d="M72 492v77q0 45 19.5 55.5t76.5 10.5h833v-78q0 -45 -19 -55t-79 -10h-831z" />
<glyph unicode="&#x2014;" horiz-adv-x="1601" d="M72 492v77q0 45 19.5 55.5t76.5 10.5h1364v-78q0 -45 -19.5 -55t-78.5 -10h-1362z" />
<glyph unicode="&#x2018;" horiz-adv-x="452" d="M111 1047q0 45 51 172l65 143l74 -23l-35 -170q43 -8 59.5 -33.5t16.5 -88.5q0 -72 -25.5 -98.5t-95.5 -26.5q-61 0 -85.5 27.5t-24.5 97.5z" />
<glyph unicode="&#x2019;" horiz-adv-x="452" d="M111 924zM111 1239q0 72 25.5 98.5t94.5 26.5q61 0 86 -28t25 -97q0 -45 -51 -172l-66 -144l-73 23l34 170q-43 8 -59 33.5t-16 89.5z" />
<glyph unicode="&#x201a;" horiz-adv-x="452" d="M111 0zM111 113q0 72 25.5 98.5t94.5 26.5q61 0 86 -28t25 -97q0 -45 -51 -172l-66 -144l-73 23l34 170q-43 8 -59 33.5t-16 89.5z" />
<glyph unicode="&#x201c;" horiz-adv-x="768" d="M111 1047q0 45 51 172l65 143l74 -23l-35 -170q43 -8 59.5 -33.5t16.5 -88.5q0 -72 -25.5 -98.5t-95.5 -26.5q-61 0 -85.5 27.5t-24.5 97.5zM426 1047q0 45 51 172l66 143l73 -23l-34 -170q43 -8 59 -33.5t16 -88.5q0 -72 -25.5 -98.5t-94.5 -26.5q-61 0 -86 27.5 t-25 97.5z" />
<glyph unicode="&#x201d;" horiz-adv-x="768" d="M111 924zM111 1239q0 72 25.5 98.5t94.5 26.5q61 0 86 -28t25 -97q0 -45 -51 -172l-66 -144l-73 23l34 170q-43 8 -59 33.5t-16 89.5zM426 1239q0 72 25.5 98.5t94.5 26.5q61 0 86 -28t25 -97q0 -45 -51 -172l-66 -144l-73 23l34 170q-43 8 -59 33.5t-16 89.5z" />
<glyph unicode="&#x201e;" horiz-adv-x="765" d="M111 0zM111 113q0 72 25.5 98.5t94.5 26.5q61 0 86 -28t25 -97q0 -45 -51 -172l-66 -144l-73 23l34 170q-43 8 -59 33.5t-16 89.5zM426 113q0 72 25.5 98.5t94.5 26.5q61 0 86 -28t25 -97q0 -45 -51 -172l-66 -144l-73 23l34 170q-43 8 -59 33.5t-16 89.5z" />
<glyph unicode="&#x2022;" horiz-adv-x="540" d="M141 670q0 69 27 98t104 29q74 0 100.5 -29t26.5 -98q0 -70 -25.5 -96.5t-101.5 -26.5q-78 0 -104.5 26.5t-26.5 96.5z" />
<glyph unicode="&#x2026;" horiz-adv-x="1222" d="M111 0zM111 113q0 67 22.5 96t91.5 29q68 0 92.5 -29t24.5 -96q0 -70 -23.5 -97.5t-93.5 -27.5t-92 26.5t-22 98.5zM496 113q0 67 22.5 96t91.5 29q68 0 92.5 -29t24.5 -96q0 -70 -23.5 -97.5t-93.5 -27.5t-92 26.5t-22 98.5zM881 113q0 67 22.5 96t91.5 29 q68 0 92.5 -29t24.5 -96q0 -70 -23.5 -97.5t-93.5 -27.5t-92 26.5t-22 98.5z" />
<glyph unicode="&#x202f;" horiz-adv-x="351" />
<glyph unicode="&#x2039;" horiz-adv-x="446" d="M51 432v158l291 307l53 -45l-194 -340l194 -340l-53 -45z" />
<glyph unicode="&#x203a;" horiz-adv-x="446" d="M51 172l195 340l-195 340l53 45l291 -305v-158l-291 -307z" />
<glyph unicode="&#x205f;" horiz-adv-x="438" />
<glyph unicode="&#x20ac;" horiz-adv-x="1054" d="M61 446l15 105h133v88v92h-117l14 107h109q12 188 57 289.5t139.5 142.5t264.5 41q66 0 151.5 -11.5t141.5 -29.5l-21 -137q-76 16 -174 26t-158 10q-88 0 -136 -11t-72.5 -45t-24.5 -101v-174h444l-14 -107h-430v-180h414l-13 -105h-401v-309q106 -33 260 -33 q156 0 340 52l18 -133q-74 -29 -153.5 -41.5t-188.5 -12.5q-166 0 -257 42t-134 143.5t-55 291.5h-152z" />
<glyph unicode="&#x2122;" horiz-adv-x="1855" d="M53 1417v109h609v-109h-240v-723h-129v723h-240zM799 694l61 832h180l207 -627h10l211 627h179l63 -832h-127l-49 662h-10l-219 -662h-105l-219 662h-8l-47 -662h-127z" />
<glyph unicode="&#x25fc;" horiz-adv-x="1024" d="M0 0v1024h1024v-1024h-1024z" />
</font>
</defs>
</svg>
