<?xml version="1.0" standalone="no"?>
<!DOCTYPE svg PUBLIC "-//W3C//DTD SVG 1.1//EN" "http://www.w3.org/Graphics/SVG/1.1/DTD/svg11.dtd" >
<svg xmlns="http://www.w3.org/2000/svg" xmlns:xlink="http://www.w3.org/1999/xlink" version="1.1">
<metadata></metadata>
<defs>
<font id="changaextralight" horiz-adv-x="559" >
<font-face units-per-em="2048" ascent="1638" descent="-410" />
<missing-glyph horiz-adv-x="548" />
<glyph unicode="&#xfb01;" horiz-adv-x="1222" d="M117 0zM117 926v98h157q10 143 30 219t59.5 107.5t113.5 31.5q100 0 176 -20l-8 -113l-237 21v-246h178v-98h-178v-926h-134v926h-157zM852 1325q0 55 19 74.5t77 19.5q53 0 71.5 -19.5t18.5 -74.5q0 -53 -17.5 -71.5t-72.5 -18.5q-58 0 -77 18.5t-19 71.5zM877 0v1022 l133 25v-1047h-133z" />
<glyph unicode="&#xfb02;" horiz-adv-x="1191" d="M117 0zM117 926v98h157q10 143 30 219t59.5 107.5t113.5 31.5q100 0 176 -20l-8 -113l-237 21v-246h178v-98h-178v-926h-134v926h-157zM863 113v1218l133 31v-1260q53 -6 92 -8l-10 -92q-57 -18 -103 -18q-113 0 -112 129z" />
<glyph unicode="&#xfb03;" horiz-adv-x="1886" d="M117 0zM117 926v98h157q10 143 30 219t59.5 107.5t113.5 31.5q100 0 176 -20l-8 -113l-237 21v-246h178v-98h-178v-926h-134v926h-157zM781 926v98h157q10 143 30 219t59.5 107.5t113.5 31.5q100 0 176 -20l-8 -113l-237 21v-246h178v-98h-178v-926h-134v926h-157z M1516 1325q0 55 19 74.5t77 19.5q53 0 71.5 -19.5t18.5 -74.5q0 -53 -17.5 -71.5t-72.5 -18.5q-58 0 -77 18.5t-19 71.5zM1540 0v1022l133 25v-1047h-133z" />
<glyph unicode="&#xfb04;" horiz-adv-x="1855" d="M117 0zM117 926v98h157q10 143 30 219t59.5 107.5t113.5 31.5q100 0 176 -20l-8 -113l-237 21v-246h178v-98h-178v-926h-134v926h-157zM781 926v98h157q10 143 30 219t59.5 107.5t113.5 31.5q100 0 176 -20l-8 -113l-237 21v-246h178v-98h-178v-926h-134v926h-157z M1526 113v1218l133 31v-1260q53 -6 92 -8l-10 -92q-57 -18 -103 -18q-113 0 -112 129z" />
<glyph horiz-adv-x="0" />
<glyph unicode="&#xd;" horiz-adv-x="1552" />
<glyph unicode=" "  horiz-adv-x="548" />
<glyph unicode="&#x09;" horiz-adv-x="548" />
<glyph unicode="&#xa0;" horiz-adv-x="548" />
<glyph unicode="!" horiz-adv-x="479" d="M131 104q0 66 21.5 93.5t85.5 27.5q61 0 83.5 -27.5t22.5 -93.5t-21.5 -91t-84.5 -25q-66 0 -86.5 24.5t-20.5 91.5zM143 1290q0 31 39 31h109q43 0 43 -31l-55 -913h-80z" />
<glyph unicode="&#x22;" horiz-adv-x="753" d="M133 1180v96q0 55 76 55h16q76 0 76 -55v-96l-61 -338h-45zM453 1180v96q0 55 75 55h17q76 0 76 -55v-96l-62 -338h-45z" />
<glyph unicode="#" horiz-adv-x="1458" d="M68 346l16 39q14 35 33.5 45t54.5 10h172l156 396h-232l17 41q14 35 33.5 45t54.5 10h166l149 379q12 29 29.5 40t58.5 11h41l-170 -430h404l149 379q12 29 29.5 40t58.5 11h41l-170 -430h240l-17 -41q-16 -37 -33.5 -46t-52.5 -9h-176l-155 -396h233l-16 -39 q-16 -37 -34 -46t-52 -9h-168l-150 -377q-12 -29 -29.5 -40t-58.5 -11h-41l170 428h-403l-150 -377q-12 -29 -29.5 -40t-58.5 -11h-41l170 428h-239zM453 440h403l156 396h-404z" />
<glyph unicode="$" horiz-adv-x="1042" d="M137 41l21 102q119 -27 282 -37l41 484q-137 16 -206.5 49t-95 96.5t-25.5 182.5q0 199 74.5 279.5t254.5 80.5h60l22 266h90l-24 -270q104 -6 223 -25l-16 -100q-104 18 -215 25l-41 -480q135 -12 205.5 -46t100.5 -105.5t30 -200.5t-36 -201.5t-121 -104.5t-241 -34 l-22 -268h-90l22 268q-156 6 -293 39zM295 709l197 -11l40 478h-67q-98 0 -170 -11v-456zM530 104h7q96 0 241 13v452l-190 13q-10 0 -17 2z" />
<glyph unicode="%" horiz-adv-x="2299" d="M141 0zM141 874q0 203 21.5 290t89 117t227.5 30q158 0 225.5 -30t89 -116t21.5 -291q0 -209 -20.5 -294.5t-86 -113.5t-229.5 -28q-162 0 -228.5 29t-88 114t-21.5 293zM240 588q0 -43 28.5 -56.5t120.5 -13.5h330v643q0 43 -32 57.5t-128 14.5h-319v-645zM860 -82 l469 1393q6 27 26.5 39t61.5 12h20l-467 -1393q-16 -28 -32.5 -39.5t-57.5 -11.5h-20zM1484 416q0 202 21.5 289.5t89 117t227.5 29.5q158 0 225.5 -29.5t89 -115.5t21.5 -291q0 -209 -20.5 -295t-86 -113.5t-229.5 -27.5q-162 0 -228.5 28.5t-88 113.5t-21.5 294zM1583 129 q0 -43 28.5 -56.5t120.5 -13.5h330v643q0 43 -32 57.5t-128 14.5h-319v-645z" />
<glyph unicode="&#x26;" horiz-adv-x="1138" d="M186 342q0 293 152 346v8l-74 23q4 248 38 371.5t121 172t259 48.5q61 0 133 -11.5t117 -27.5l-17 -115q-55 14 -151 25.5t-168 11.5q-111 0 -150.5 -33t-39.5 -127v-338h716l-18 -114h-119v-803l-59 -8l-31 288q-154 -55 -239 -72.5t-185 -17.5q-152 0 -218.5 87 t-66.5 286zM328 260q0 -94 51 -143t149 -49q92 0 175 13t186 46l-47 455h-514v-322z" />
<glyph unicode="'" horiz-adv-x="436" d="M133 1180v96q0 55 76 55h16q76 0 76 -55v-96l-61 -338h-45z" />
<glyph unicode="(" horiz-adv-x="606" d="M96 639q0 346 98.5 538.5t270.5 278.5l24 -100q-80 -82 -131 -164t-82.5 -216t-31.5 -337t31.5 -337t83 -216t130.5 -166l-24 -98q-172 84 -270.5 277.5t-98.5 539.5z" />
<glyph unicode=")" horiz-adv-x="606" d="M117 -80q80 84 131 166t82.5 216t31.5 337t-31.5 337t-82.5 216t-131 164l24 100q172 -86 270.5 -278.5t98.5 -538.5t-98.5 -539.5t-270.5 -277.5z" />
<glyph unicode="*" horiz-adv-x="1048" d="M121 1130l49 150l88 -29l236 -127l-50 269v90h158v-90l-49 -271l238 129l88 29l49 -150l-88 -26l-265 -37l195 -186l49 -74l-127 -94l-51 75l-117 242l-116 -242l-50 -75l-129 94l50 74l194 186l-264 37z" />
<glyph unicode="+" horiz-adv-x="1085" d="M184 580v118h299v297h119v-297h297v-118h-297v-299h-119v299h-299z" />
<glyph unicode="," horiz-adv-x="438" d="M117 100q0 66 23.5 90.5t82.5 24.5q53 0 76 -25.5t23 -89.5q2 -31 -50 -163l-55 -127l-61 18l30 160q-41 8 -55 31.5t-14 80.5z" />
<glyph unicode="-" horiz-adv-x="716" d="M74 502v59q0 43 17.5 53.5t74.5 10.5h477v-60q0 -43 -17.5 -53t-72.5 -10h-479z" />
<glyph unicode="." horiz-adv-x="438" d="M117 100q0 62 20.5 88.5t81.5 26.5q59 0 81 -26.5t22 -88.5q0 -63 -21.5 -87.5t-81.5 -24.5q-61 0 -81.5 24.5t-20.5 87.5z" />
<glyph unicode="/" horiz-adv-x="827" d="M0 -82l690 1393q14 31 32.5 41t55.5 10h49l-690 -1393q-14 -30 -32.5 -40.5t-55.5 -10.5h-49z" />
<glyph unicode="0" horiz-adv-x="1239" d="M137 639q0 315 32 448.5t128 178.5t324 45q227 0 322 -45t127 -178.5t32 -448.5q0 -324 -30 -455t-124 -173t-327 -42t-328.5 43t-125.5 174t-30 453zM279 190q0 -45 17 -67.5t61 -31.5t135 -9h466v1008q0 45 -18 67.5t-65.5 31.5t-139.5 9h-456v-1008z" />
<glyph unicode="1" horiz-adv-x="819" d="M57 1135v114l443 62v-1200h250v-111h-672v111h289v1065z" />
<glyph unicode="2" horiz-adv-x="1093" d="M127 0v127q0 193 37 279t167 161.5t484 223.5v393q-59 14 -192 14q-221 0 -445 -39l-18 103q147 49 391 49q213 0 309 -75t96 -237q0 -141 -44 -217.5t-182 -152.5t-476 -219v-299h680v-111h-807z" />
<glyph unicode="3" horiz-adv-x="987" d="M76 18l14 103q84 -18 193.5 -28.5t212.5 -10.5q178 0 233 14v477l-358 43v70l358 57v441q-55 14 -178 14q-102 0 -214 -10t-196 -29l-10 103q127 49 373 49q182 0 274 -89t92 -264q0 -102 -38.5 -183t-106.5 -120v-10q76 -45 110.5 -119.5t34.5 -191.5q0 -141 -41 -219 t-136 -112t-269 -34q-231 0 -348 49z" />
<glyph unicode="4" horiz-adv-x="1136" d="M76 307v53l512 920h303v-860h129v-113h-129v-307h-133v307h-682zM252 420h504v760h-88z" />
<glyph unicode="5" horiz-adv-x="1042" d="M137 18l17 103q201 -39 424 -39q143 0 206 14v422l-176 17q-190 20 -278 45.5t-120 70.5t-32 137l21 492h678l-13 -111h-532v-483l121 -12q195 -18 294 -53t139 -103.5t40 -195.5q0 -184 -96.5 -268.5t-309.5 -84.5q-238 0 -383 49z" />
<glyph unicode="6" horiz-adv-x="1118" d="M127 639q0 283 37 423t132 194.5t290 54.5q78 0 187.5 -15.5t162.5 -33.5l-16 -103q-70 16 -176.5 27.5t-200.5 11.5q-86 0 -168 -4t-107 -8v-463h365q188 0 273 -84t85 -270q0 -154 -40 -240t-133 -123t-259 -37q-199 0 -286 47t-116.5 181.5t-29.5 441.5zM268 76h437 q88 0 116.5 17.5t28.5 68.5v444h-436q-88 0 -117 -16.5t-29 -69.5v-444z" />
<glyph unicode="7" horiz-adv-x="931" d="M66 1280h770v-82l-441 -1198h-133l430 1169h-614z" />
<glyph unicode="8" horiz-adv-x="1161" d="M127 350q0 109 29.5 201t81.5 137v14q-47 41 -73 111t-26 156q0 129 42 202.5t138.5 106.5t264.5 33t262 -32t136 -105.5t42 -204.5q0 -106 -23.5 -202.5t-64.5 -158.5v-14q45 -31 71.5 -97.5t26.5 -146.5q0 -168 -33.5 -245.5t-126 -106.5t-290.5 -29q-199 0 -293 30 t-129 107.5t-35 243.5zM266 1112l2 -287l541 -180q25 -8 35 -8q20 0 34.5 11t14.5 26v530h-463q-68 0 -102.5 -7t-48 -26.5t-13.5 -58.5zM268 76h459q68 0 102.5 7t48 26.5t13.5 58.5l2 313l-551 183q-31 12 -49 12q-25 0 -25 -35v-565z" />
<glyph unicode="9" horiz-adv-x="1118" d="M127 915q0 152 40 237t133 122t259 37q199 0 286 -46t116.5 -180.5t29.5 -441.5q0 -283 -36.5 -424t-134 -195.5t-292.5 -54.5q-80 0 -195.5 15.5t-170.5 35.5l12 103q76 -16 188.5 -27.5t208.5 -11.5q90 0 172 4t107 10v461h-365q-186 0 -272 86t-86 270zM268 766 q0 -51 22.5 -68.5t94.5 -17.5h465v442q0 51 -23.5 68.5t-93.5 17.5h-465v-442z" />
<glyph unicode=":" horiz-adv-x="411" d="M117 0zM117 100q0 62 20.5 88.5t81.5 26.5q59 0 81 -26.5t22 -88.5q0 -63 -21.5 -87.5t-81.5 -24.5q-61 0 -81.5 24.5t-20.5 87.5zM117 919q0 62 20.5 88.5t81.5 26.5q59 0 81 -26.5t22 -88.5q0 -63 -21.5 -87.5t-81.5 -24.5q-61 0 -81.5 24.5t-20.5 87.5z" />
<glyph unicode=";" horiz-adv-x="411" d="M117 0zM117 100q0 66 23.5 90.5t82.5 24.5q53 0 76 -25.5t23 -89.5q2 -31 -50 -163l-55 -127l-61 18l30 160q-41 8 -55 31.5t-14 80.5zM117 919q0 62 20.5 88.5t81.5 26.5q59 0 81 -26.5t22 -88.5q0 -63 -21.5 -87.5t-81.5 -24.5q-61 0 -81.5 24.5t-20.5 87.5z" />
<glyph unicode="&#x3c;" horiz-adv-x="1085" d="M186 559v160l715 258v-113l-627 -223v-4l627 -225v-111z" />
<glyph unicode="=" horiz-adv-x="1085" d="M184 389zM184 390v118h715v-118h-715zM184 770v118h715v-118h-715z" />
<glyph unicode="&#x3e;" horiz-adv-x="1085" d="M184 301v113l627 223v4l-627 225v111l715 -258v-160z" />
<glyph unicode="?" horiz-adv-x="778" d="M66 1260q162 51 311 51q201 0 284.5 -60.5t83.5 -206.5q0 -100 -20 -149t-91 -89t-245 -104l-8 -325h-82l-18 373q-2 23 23.5 38t109.5 46l196 71v293q-86 14 -200 14q-111 0 -328 -41zM233 104q0 66 21.5 93.5t85.5 27.5q61 0 83.5 -27.5t22.5 -93.5t-21.5 -91 t-84.5 -25q-66 0 -86.5 24.5t-20.5 91.5z" />
<glyph unicode="@" horiz-adv-x="1632" d="M143 367v163q0 244 83 386.5t232.5 200t368.5 57.5q315 0 457.5 -91.5t142.5 -287.5l3 -795h-58l-39 102q-72 -61 -161 -89.5t-211 -28.5q-164 0 -230.5 65.5t-66.5 226.5q0 158 36.5 220.5t155.5 82t420 19.5h20l2 408q-63 8 -181 14t-230 6q-172 0 -292 -21.5 t-204 -104.5t-84 -251v-483q0 -150 66.5 -224.5t166 -94t253.5 -19.5h399v-119q-176 -33 -313 -33q-272 0 -431 64.5t-232 214t-73 412.5zM782 98h342q101 0 136.5 28t35.5 105v258h-338q-102 0 -139 -27.5t-37 -103.5v-260z" />
<glyph unicode="A" horiz-adv-x="1064" d="M37 0l397 1280h195l397 -1280h-133l-96 315h-531l-96 -315h-133zM301 430h461l-221 733h-19z" />
<glyph unicode="B" horiz-adv-x="1185" d="M213 0v1280h461q164 0 243.5 -77t79.5 -232q0 -125 -25.5 -192.5t-92.5 -116.5v-13q182 -70 182 -289q0 -176 -83 -268t-241 -92h-524zM346 98h387q107 0 154 61.5t47 202.5q0 125 -46 180.5t-153 55.5h-389v-500zM346 690h328q106 0 148 53.5t42 190.5q0 139 -41 193.5 t-147 54.5h-330v-492z" />
<glyph unicode="C" horiz-adv-x="987" d="M158 639q0 283 34.5 422t129 194.5t286.5 55.5q61 0 145.5 -10.5t141.5 -28.5l-18 -115q-76 18 -175.5 27.5t-164.5 9.5q-90 0 -139.5 -11.5t-74 -45t-24.5 -103.5v-921q104 -35 272 -35q154 0 342 51l19 -106q-74 -29 -153 -41.5t-185 -12.5q-186 0 -277.5 56.5 t-125 195.5t-33.5 418z" />
<glyph unicode="D" horiz-adv-x="1255" d="M213 0v1280h420q207 0 301 -47t129 -178t35 -416q0 -283 -35 -413t-130 -178t-300 -48h-420zM346 117h447q90 0 124.5 34.5t34.5 122.5v732q0 90 -34.5 123.5t-124.5 33.5h-447v-1046z" />
<glyph unicode="E" horiz-adv-x="1050" d="M213 0v1280h713l-15 -111h-565v-473h512v-112h-512v-473h592v-111h-725z" />
<glyph unicode="F" horiz-adv-x="907" d="M213 0v1280h647l-14 -111h-500v-493h432v-115h-432v-561h-133z" />
<glyph unicode="G" horiz-adv-x="1163" d="M158 639q0 279 36.5 419t134 196.5t296.5 56.5q70 0 167 -10.5t164 -28.5l-18 -115q-84 18 -200.5 27.5t-192.5 9.5q-94 0 -145.5 -11.5t-77 -45t-25.5 -103.5v-958h594v493h-225v115h335v-651q-98 -35 -201.5 -49.5t-242.5 -14.5q-176 0 -257 48.5t-111.5 185.5 t-30.5 436z" />
<glyph unicode="H" horiz-adv-x="1304" d="M213 0v1280h133v-592h610v592h134v-1280h-134v575h-610v-575h-133z" />
<glyph unicode="I" d="M213 0v1280h133v-1280h-133z" />
<glyph unicode="J" horiz-adv-x="690" d="M47 102h199q49 0 73.5 11.5t24.5 50.5v1005h-205v111h338v-1026q0 -106 -35.5 -161.5t-102.5 -74t-179 -18.5h-94z" />
<glyph unicode="K" horiz-adv-x="1085" d="M213 0v1280h133v-567h324q0 72 24.5 141.5t67.5 153.5l135 272h156l-312 -623l322 -657h-156l-145 307q-45 90 -68.5 156.5t-23.5 138.5h-324v-602h-133z" />
<glyph unicode="L" horiz-adv-x="870" d="M213 0v1280h133v-1169h500v-111h-633z" />
<glyph unicode="M" horiz-adv-x="1615" d="M182 0l88 1280h203l328 -1067h14l330 1067h201l88 -1280h-131l-76 1147h-13l-348 -1147h-114l-349 1147h-12l-78 -1147h-131z" />
<glyph unicode="N" horiz-adv-x="1343" d="M223 0v1280h127l572 -922q6 -10 23.5 -38.5t22.5 -45t7 -36.5h12v1042h133v-1280h-127l-571 922q-6 10 -23.5 38.5t-22.5 45t-7 36.5h-13v-1042h-133z" />
<glyph unicode="O" horiz-adv-x="1286" d="M158 639q0 301 34.5 437t134 185.5t316.5 49.5q215 0 314.5 -49.5t134 -186.5t34.5 -436t-34.5 -435t-134 -185.5t-314.5 -49.5q-217 0 -316.5 49.5t-134 185.5t-34.5 435zM299 82h504q102 0 142 36t40 128v952h-508q-100 0 -139 -36t-39 -128v-952z" />
<glyph unicode="P" horiz-adv-x="1042" d="M213 0v1280h473q123 0 189.5 -38t94 -127t27.5 -253q0 -150 -26.5 -236.5t-88 -125.5t-165.5 -39h-371v-461h-133zM346 575h350q92 0 127 18.5t35 68.5v421q0 49 -35 67.5t-127 18.5h-350v-594z" />
<glyph unicode="Q" horiz-adv-x="1265" d="M158 639q0 301 33.5 437t130 185.5t311.5 49.5q211 0 307 -49.5t131 -186.5t35 -436q0 -197 -14.5 -316.5t-47 -188t-92.5 -101.5l168 -107l-33 -69l-339 112v37l-115 -37q-215 0 -311.5 48.5t-130 184.5t-33.5 437zM303 82h485q96 0 135.5 36t39.5 128v952h-488 q-96 0 -134 -36t-38 -128v-952z" />
<glyph unicode="R" horiz-adv-x="1155" d="M213 0v1280h483q123 0 189.5 -38t94.5 -127t28 -253q0 -170 -41 -257t-136 -111l242 -494h-145l-228 481h-354v-481h-133zM346 596h361q92 0 126.5 18.5t34.5 67.5v401q0 49 -34.5 67.5t-126.5 18.5h-361v-573z" />
<glyph unicode="S" horiz-adv-x="1021" d="M109 10l20 109q76 -17 188.5 -29t208.5 -12q102 0 254 12v475l-198 15q-197 12 -292 43.5t-130 100.5t-35 208t34 222t109.5 120t202.5 37q186 0 389 -31l-16 -104q-142 26 -374 26h-17q-102 0 -181 -10v-479l254 -15q164 -8 248 -41.5t119 -109.5t35 -219 q0 -141 -41 -218t-136.5 -109t-271.5 -32q-197 0 -370 41z" />
<glyph unicode="T" horiz-adv-x="921" d="M37 1169v111h844v-111h-355v-1169h-133v1169h-356z" />
<glyph unicode="U" horiz-adv-x="1308" d="M193 354v926h133v-1198h340q133 0 199.5 9t92 31.5t25.5 67.5v1090h133v-926q0 -164 -37 -243.5t-133 -110.5t-291 -31q-196 0 -292.5 31t-133 110.5t-36.5 243.5z" />
<glyph unicode="V" horiz-adv-x="995" d="M25 1280h133l331 -1163h19l332 1163h133l-377 -1280h-195z" />
<glyph unicode="W" horiz-adv-x="1552" d="M51 1280h133l201 -1163h18l304 1163h139l303 -1163h18l201 1163h133l-231 -1280h-217l-277 1067l-276 -1067h-217z" />
<glyph unicode="X" horiz-adv-x="1013" d="M25 0l403 662l-387 618h149l326 -522l311 522h146l-385 -637l401 -643h-149l-342 549l-328 -549h-145z" />
<glyph unicode="Y" horiz-adv-x="940" d="M25 1280h137l309 -686l307 686h137l-378 -829v-451h-134v451z" />
<glyph unicode="Z" horiz-adv-x="1085" d="M78 0v92l762 1065l-6 12h-650l-18 111h842v-92l-764 -1065l6 -12h711v-111h-883z" />
<glyph unicode="[" horiz-adv-x="528" d="M158 43v1194q0 84 26.5 130t91 65.5t179.5 19.5l12 -106l-170 -17v-1378l170 -17l-12 -106q-115 0 -179.5 19.5t-91 65.5t-26.5 130z" />
<glyph unicode="\" horiz-adv-x="782" d="M-14 1362h92q39 0 55.5 -11.5t32.5 -39.5l631 -1393h-92q-39 0 -55.5 11.5t-33.5 39.5z" />
<glyph unicode="]" horiz-adv-x="528" d="M61 -66l170 17v1378l-170 17l13 106q115 0 179 -19.5t91 -65.5t27 -130v-1194q0 -84 -27 -130t-91.5 -65.5t-178.5 -19.5z" />
<glyph unicode="^" horiz-adv-x="1085" d="M150 246l315 786h158l313 -786h-111l-280 698h-2l-281 -698h-112z" />
<glyph unicode="_" horiz-adv-x="942" d="M51 -84q0 55 23.5 70.5t91.5 15.5h725v-37q0 -57 -22.5 -71.5t-90.5 -14.5h-727v37z" />
<glyph unicode="`" horiz-adv-x="1228" d="M174 1145zM174 1290q0 4 13 23l74 92q6 6 10 6t14 -8l285 -205l-33 -53l-262 72q-16 4 -25.5 9t-15.5 11l-47 37q-12 6 -13 16z" />
<glyph unicode="a" horiz-adv-x="1101" d="M133 276q0 158 37 220.5t155.5 82t419.5 19.5h21v301q-94 29 -244 29q-160 0 -325 -49l-19 104q59 25 169 41t208 16q133 0 207 -24.5t104.5 -79.5t30.5 -156v-780h-55l-39 102q-72 -61 -161 -89.5t-212 -28.5q-164 0 -230.5 65.5t-66.5 226.5zM252 98h342q100 0 136 28 t36 105v258h-338q-102 0 -139 -27.5t-37 -103.5v-260z" />
<glyph unicode="b" horiz-adv-x="1146" d="M213 41v1331l133 23v-398q43 33 116 45.5t195 12.5q152 0 222.5 -41t96 -152.5t25.5 -349.5q0 -236 -26.5 -343.5t-101 -146t-240.5 -38.5h-2q-106 0 -166 8q-111 10 -252 49zM346 102h420q57 0 78.5 7.5t21.5 27.5v799h-422q-59 0 -78.5 -9t-19.5 -40v-785z" />
<glyph unicode="c" horiz-adv-x="929" d="M143 512q0 233 25 341t93.5 147.5t215.5 39.5q176 0 326 -34l-21 -111q-176 33 -313 33q-109 0 -151 -40t-42 -140v-623q88 -29 246 -29q63 0 125 10.5t162 38.5l16 -104q-63 -27 -156.5 -42t-191.5 -15q-147 0 -215.5 39.5t-93.5 148.5t-25 340z" />
<glyph unicode="d" horiz-adv-x="1146" d="M143 512q0 227 25 335.5t92.5 150.5t208.5 42q137 0 213 -11t119 -46v389l133 23v-1395h-55l-35 78q-35 -63 -108.5 -86t-217.5 -23q-170 0 -245.5 38t-102.5 147.5t-27 357.5zM281 88h419q61 0 81 9t20 40v785h-422q-59 0 -78.5 -9.5t-19.5 -40.5v-784z" />
<glyph unicode="e" horiz-adv-x="1087" d="M143 512q0 215 33 325.5t116 156.5t245 46q158 0 238.5 -24.5t113.5 -86t33 -181.5q0 -158 -39 -220.5t-163 -82t-439 -19.5v-301q94 -29 243 -29q82 0 160 10.5t193 38.5l18 -104q-66 -27 -176.5 -42t-229.5 -15q-152 0 -223 42t-97 150.5t-26 335.5zM281 535h337 q106 0 144.5 26.5t38.5 104.5v252h-342q-105 0 -141.5 -28t-36.5 -106v-249z" />
<glyph unicode="f" horiz-adv-x="663" d="M117 926v98h157q10 143 30 219t59.5 107.5t113.5 31.5q100 0 176 -20l-8 -113l-237 21v-246h178v-98h-178v-926h-134v926h-157z" />
<glyph unicode="g" horiz-adv-x="1005" d="M106 676q0 150 33 230.5t113 114.5t229 34q174 0 252 -45l137 104l70 -72l-119 -127q37 -80 37 -239q0 -147 -31.5 -226t-109.5 -113t-221 -36l-13 -182q179 -19 255.5 -38.5t103 -57t26.5 -117.5q0 -92 -35.5 -143.5t-117.5 -73t-232 -21.5q-106 0 -204.5 16.5 t-157.5 43.5l18 110q111 -27 180.5 -37t143.5 -10q98 0 164.5 6t124.5 21v178q-215 12 -304.5 31.5t-89.5 52.5l52 223q-119 6 -184.5 43t-92.5 114t-27 216zM244 410h299q100 0 138 32.5t38 116.5v387h-297q-100 0 -139 -32.5t-39 -116.5v-387z" />
<glyph unicode="h" horiz-adv-x="1165" d="M213 0v1350l131 12v-416q66 51 143.5 72.5t190.5 21.5q285 0 285 -151v-889h-134v932h-297q-109 0 -147.5 -26.5t-38.5 -102.5v-803h-133z" />
<glyph unicode="i" d="M188 0zM189 1325q0 55 19 74.5t77 19.5q53 0 71.5 -19.5t18.5 -74.5q0 -53 -17.5 -71.5t-72.5 -18.5q-58 0 -77 18.5t-19 71.5zM213 0v1022l133 25v-1047h-133z" />
<glyph unicode="j" d="M4 0zM4 -336l10 72q90 0 130 8t54.5 32.5t14.5 80.5v1165l133 25v-1205q0 -100 -54 -148t-169 -48q-72 0 -119 18zM189 1325q0 55 19 74.5t77 19.5q53 0 71.5 -19.5t18.5 -74.5q0 -53 -17.5 -71.5t-72.5 -18.5q-58 0 -77 18.5t-19 71.5z" />
<glyph unicode="k" horiz-adv-x="956" d="M213 0v1331l133 31v-760h195l241 422h140l-271 -473l281 -551h-135l-256 494h-195v-494h-133z" />
<glyph unicode="l" horiz-adv-x="528" d="M199 113v1218l133 31v-1260q53 -6 92 -8l-10 -92q-57 -18 -103 -18q-113 0 -112 129z" />
<glyph unicode="m" horiz-adv-x="1738" d="M213 0v1024h55l39 -102q70 63 153 90.5t197 27.5q227 0 273 -94q63 49 140 71.5t181 22.5h4q281 0 281 -151v-889h-133v932h-256q-109 0 -153 -21.5t-52 -81.5v-829h-133v932h-256q-84 0 -127 -12.5t-61.5 -41t-18.5 -85.5v-793h-133z" />
<glyph unicode="n" horiz-adv-x="1165" d="M213 0v1024h55l39 -102q74 61 161 89.5t210 28.5q285 0 285 -151v-889h-134v932h-276q-84 0 -127 -12.5t-61.5 -41t-18.5 -85.5v-793h-133z" />
<glyph unicode="o" horiz-adv-x="1107" d="M143 512q0 233 30 341t114 147.5t266 39.5q184 0 268 -38.5t113 -146t29 -343.5q0 -233 -30 -341t-114 -147.5t-266 -39.5t-266 39.5t-114 147.5t-30 341zM279 102h448q63 0 83.5 9.5t20.5 40.5v770h-448q-63 0 -83.5 -9.5t-20.5 -40.5v-770z" />
<glyph unicode="p" horiz-adv-x="1146" d="M213 -371v1395h55l37 -84q37 61 115 80.5t237 19.5q154 0 224.5 -38.5t95 -146t24.5 -343.5q0 -238 -25.5 -348.5t-96 -152.5t-222.5 -42q-123 0 -195.5 12.5t-115.5 45.5v-375zM346 88h420q61 0 80.5 9t19.5 40v785h-422q-55 0 -76.5 -7.5t-21.5 -27.5v-799z" />
<glyph unicode="q" horiz-adv-x="1146" d="M143 512q0 236 25 343.5t95.5 146t223.5 38.5q160 0 239 -20.5t116 -81.5l37 86h55v-1372l-133 -23v400q-43 -35 -115 -47.5t-199 -12.5q-152 0 -222 42t-96 152.5t-26 348.5zM281 88h419q62 0 81.5 9t19.5 40v785h-422q-55 0 -76.5 -7.5t-21.5 -27.5v-799z" />
<glyph unicode="r" horiz-adv-x="657" d="M213 0v1024h57l58 -172q102 90 165.5 136t108.5 67l19 -131q-156 -55 -275 -150v-774h-133z" />
<glyph unicode="s" horiz-adv-x="956" d="M106 25l27 118q160 -61 338 -61q76 0 125 6t119 27v299q-289 45 -401.5 77.5t-147.5 88t-35 184.5q0 149 88 220t275 71q156 0 305 -45l-23 -103q-53 14 -124.5 24.5t-129.5 10.5q-129 0 -254 -18v-301q266 -39 384 -74t158 -93.5t40 -176.5q0 -115 -38 -182.5 t-125 -97.5t-236 -30q-150 0 -345 56z" />
<glyph unicode="t" horiz-adv-x="718" d="M123 926v98h158v238l133 34v-272h196v-98h-196v-824q129 -8 153 -8l-10 -92q-102 -18 -164 -18q-113 0 -112 129v813h-158z" />
<glyph unicode="u" horiz-adv-x="1165" d="M203 170v854h133v-926h276q84 0 128 12.5t61.5 42t17.5 87.5v784h133v-1024h-55l-39 102q-78 -61 -173 -89.5t-224 -28.5q-133 0 -195.5 45t-62.5 141z" />
<glyph unicode="v" horiz-adv-x="888" d="M14 1024h133l287 -913h21l286 913h133l-327 -1024h-205z" />
<glyph unicode="w" horiz-adv-x="1368" d="M14 1024h133l228 -913h20l221 913h134l221 -913h20l228 913h133l-273 -1024h-190l-205 823l-205 -823h-192z" />
<glyph unicode="x" horiz-adv-x="995" d="M70 0l354 530l-340 494h137l283 -412l268 412h139l-340 -506l357 -518h-137l-299 434l-283 -434h-139z" />
<glyph unicode="y" horiz-adv-x="868" d="M2 -336l4 72l105 14q88 12 135 32.5t76.5 63.5t56.5 125l24 76h-71l-318 977h133l277 -868h20l277 868h133l-317 -977q-51 -156 -102.5 -242t-117 -122.5t-161.5 -36.5q-90 0 -154 18z" />
<glyph unicode="z" horiz-adv-x="927" d="M86 0v74l600 841l-10 13h-533l-12 96h717v-74l-600 -841l6 -13h575v-96h-743z" />
<glyph unicode="{" horiz-adv-x="616" d="M96 573v127l133 35l-30 490q-2 18 -2 53q0 82 24.5 119t81.5 46t186 9l11 -111l-170 -14l39 -412q2 -14 2 -43q0 -147 -117 -223v-24q117 -76 117 -224q0 -29 -2 -43l-39 -405l170 -14l-11 -111q-121 0 -178 10t-85.5 49t-28.5 127l2 41l30 484z" />
<glyph unicode="|" horiz-adv-x="532" d="M225 -369v1811h80v-1811h-80z" />
<glyph unicode="}" horiz-adv-x="616" d="M117 -61l170 14l-39 405q-2 14 -2 43q0 147 116 224v24q-117 76 -116 223q0 29 2 43l39 412l-170 14l10 111q129 0 186.5 -9t82 -46t24.5 -119q0 -35 -2 -53l-31 -490l133 -35v-127l-133 -34l31 -484q6 -106 -19.5 -154t-84 -60.5t-187.5 -12.5z" />
<glyph unicode="~" horiz-adv-x="1085" d="M184 588v112q72 63 150 64q47 0 91 -16.5t116 -51.5q66 -35 112.5 -52t94.5 -17q78 0 151 67v-112q-73 -66 -151 -66q-47 0 -94.5 17.5t-112.5 52.5q-72 35 -116 51t-91 16q-78 0 -150 -65z" />
<glyph unicode="&#xa1;" horiz-adv-x="479" d="M133 938q0 66 21.5 91.5t85.5 25.5q66 0 86 -24.5t20 -92.5q0 -66 -21.5 -93.5t-84.5 -27.5q-61 0 -84 27.5t-23 93.5zM143 -248l56 914h80l55 -914q0 -31 -39 -31h-109q-43 0 -43 31z" />
<glyph unicode="&#xa2;" horiz-adv-x="929" d="M143 645q0 233 25 341t93.5 148t215.5 40h41l33 370h90l-33 -377q100 -6 195 -28l-21 -111q-176 33 -313 33q-109 0 -151 -40t-42 -140v-623q88 -29 246 -29q63 0 125 10.5t162 39.5l16 -105q-57 -22 -140 -38.5t-171 -18.5l-31 -383h-90l31 385q-121 6 -179.5 50 t-80 151.5t-21.5 324.5z" />
<glyph unicode="&#xa3;" horiz-adv-x="1028" d="M129 0v61l113 50l43 495h-156v80h162l10 121q18 188 63.5 296.5t130.5 158t226 49.5q33 0 106.5 -12.5t137.5 -26.5l-29 -115q-59 16 -139 26.5t-144 10.5q-72 0 -112.5 -20.5t-62 -68.5t-32.5 -136l-22 -283h301l-6 -80h-303l-41 -495h551l18 -111h-815z" />
<glyph unicode="&#xa4;" horiz-adv-x="1400" d="M158 61l204 279q-43 45 -59 129t-16 233q0 145 16 229.5t59 129.5l-204 282l80 52l202 -283q84 31 262 31q176 0 259 -31l202 283l80 -52l-205 -282q41 -45 57.5 -129t16.5 -230q0 -147 -16.5 -231t-57.5 -129l205 -281l-84 -51l-201 283q-78 -29 -256 -29 q-182 0 -260 29l-202 -283zM457 473q0 -47 30.5 -61.5t126.5 -14.5h330v535q0 49 -35 65.5t-133 16.5h-319v-541z" />
<glyph unicode="&#xa5;" horiz-adv-x="940" d="M25 1280h137l309 -686l307 686h137l-278 -608h199v-80h-234l-65 -141v-45h299v-80h-299v-326h-134v326h-274v80h274v45l-65 141h-209v80h174z" />
<glyph unicode="&#xa6;" horiz-adv-x="532" d="M225 319h80v-688h-80v688zM225 754v688h80v-688h-80z" />
<glyph unicode="&#xa7;" horiz-adv-x="946" d="M109 -193l26 119q160 -61 338 -61q78 0 127 6t117 27v299q-289 47 -401.5 81.5t-147.5 96t-35 200.5q0 119 49 207q-29 31 -38 74t-9 119q0 150 87 220.5t276 70.5q150 0 305 -45l-23 -103q-53 16 -123.5 25.5t-130.5 9.5q-143 0 -254 -18v-301q264 -41 382 -80 t159 -102.5t41 -190.5q0 -74 -12.5 -125t-40.5 -90q29 -31 40 -74t11 -111q0 -115 -38 -182t-125 -97t-236 -30q-141 0 -344 55zM285 393q164 -25 261 -45t156 -43v332q-176 29 -268 47t-149 39v-330z" />
<glyph unicode="&#xa8;" horiz-adv-x="1228" d="M119 1194zM119 1292q0 59 15.5 80t66.5 21t66.5 -20.5t15.5 -80.5q0 -57 -15.5 -77.5t-66.5 -20.5t-66.5 20.5t-15.5 77.5zM475 1292q0 59 15.5 80t66.5 21t66.5 -20.5t15.5 -80.5q0 -57 -15.5 -77.5t-66.5 -20.5t-66.5 20.5t-15.5 77.5z" />
<glyph unicode="&#xa9;" horiz-adv-x="1153" d="M61 883q0 266 125 390t392 124q266 0 390 -124t124 -390t-124 -391t-390 -125q-267 0 -392 124.5t-125 391.5zM123 883q0 -174 44 -273.5t142.5 -144.5t268.5 -45t268 45t142 145.5t44 272.5t-44 271t-142 144t-268 45t-268.5 -44t-142.5 -144t-44 -272zM352 877 q0 176 53.5 248.5t182.5 72.5q41 0 91 -7t73 -15l-23 -111q-57 14 -127 14q-53 0 -73.5 -11t-20.5 -40v-336q27 -8 80 -8q80 0 151 21l13 -121q-53 -23 -164 -23q-129 0 -182.5 72t-53.5 244z" />
<glyph unicode="&#xaa;" horiz-adv-x="784" d="M68 932q0 121 29.5 169t123.5 63.5t326 15.5h14v231q-68 16 -184 16q-113 0 -256 -34l-17 90q51 18 137.5 30.5t161.5 12.5q107 0 166.5 -19.5t86 -64.5t26.5 -125l-4 -600h-49l-35 80q-57 -49 -127 -72t-162 -23q-129 0 -183 52.5t-54 177.5zM106 502v18q0 47 14.5 60.5 t63.5 13.5h455v-21q0 -47 -12.5 -59t-63.5 -12h-457zM172 803h256q78 0 105.5 20.5t27.5 77.5v195h-252q-78 0 -107.5 -21.5t-29.5 -79.5v-192z" />
<glyph unicode="&#xab;" horiz-adv-x="782" d="M51 434v154l279 299l39 -37l-195 -338l195 -338l-39 -37zM414 434v154l278 299l39 -37l-194 -338l194 -338l-39 -37z" />
<glyph unicode="&#xac;" horiz-adv-x="1085" d="M184 580v118h715v-350h-98v232h-617z" />
<glyph unicode="&#xad;" horiz-adv-x="716" d="M74 502v59q0 43 17.5 53.5t74.5 10.5h477v-60q0 -43 -17.5 -53t-72.5 -10h-479z" />
<glyph unicode="&#xae;" horiz-adv-x="1153" d="M61 883q0 266 125 390t392 124q266 0 390 -124t124 -390t-124 -391t-390 -125t-391.5 124.5t-125.5 391.5zM123 883q0 -174 44 -273.5t142.5 -144.5t268.5 -45t268 45t142 145.5t44 272.5t-44 271t-142 144t-268 45t-268.5 -44t-142.5 -144t-44 -272zM354 575v615h256 q203 0 203 -203q0 -70 -24.5 -117t-69.5 -67l117 -228h-160l-88 207h-94v-207h-140zM496 887h96q43 0 59.5 10t16.5 37v100q0 27 -15.5 35t-60.5 8h-96v-190z" />
<glyph unicode="&#xaf;" horiz-adv-x="1228" d="M180 1212zM180 1294v52h373q57 0 70.5 -15.5t13.5 -62.5v-56h-371q-55 0 -70.5 18.5t-15.5 63.5z" />
<glyph unicode="&#xb0;" horiz-adv-x="833" d="M133 1087q0 144 67.5 213.5t217.5 69.5q147 0 214.5 -69.5t67.5 -213.5q0 -143 -67.5 -213.5t-214.5 -70.5q-150 0 -217.5 70.5t-67.5 213.5zM287 944h129q68 0 97.5 13.5t29.5 66.5v205h-117q-76 0 -107.5 -13.5t-31.5 -64.5v-207z" />
<glyph unicode="&#xb1;" horiz-adv-x="1087" d="M184 0v118h715v-118h-715zM184 0zM186 654v118h299v297h119v-297h297v-118h-297v-299h-119v299h-299z" />
<glyph unicode="&#xb2;" horiz-adv-x="856" d="M137 664v86q0 125 25.5 181.5t118 105.5t340.5 141v250q-55 10 -138 10q-145 0 -311 -26l-10 71q98 33 270 33q147 0 215 -49t68 -154q0 -92 -28 -140t-125 -99.5t-339 -145.5v-186h475v-78h-561zM137 664z" />
<glyph unicode="&#xb3;" horiz-adv-x="794" d="M109 643zM109 676l8 72q133 -25 284 -25q127 0 162 9v303l-250 28v50l250 34v281q-41 10 -123 10q-147 0 -284 -26l-9 71q90 33 261 33q252 0 251 -229q0 -66 -26.5 -118t-73.5 -79v-6q53 -31 76.5 -78t23.5 -125q0 -86 -22.5 -136t-89 -75.5t-199.5 -25.5 q-155 -1 -239 32z" />
<glyph unicode="&#xb4;" horiz-adv-x="1228" d="M293 1174zM293 1227l285 205q10 8 14 8t11 -6l73 -95q12 -14 13 -20q0 -8 -13 -19l-47 -36q-14 -10 -43 -19l-262 -71z" />
<glyph unicode="&#xb5;" horiz-adv-x="1175" d="M213 -338v1362h133v-926h266q96 0 156.5 37t60.5 150v739h134v-1024h-58l-41 106q-55 -57 -142 -81.5t-163 -24.5h-233l-66 -338h-47z" />
<glyph unicode="&#xb6;" horiz-adv-x="1236" d="M172 967q0 313 363 313h509v-111h-102v-1169h-123v1169h-282v-1169h-283v61l180 62v543q-262 35 -262 301z" />
<glyph unicode="&#xb7;" horiz-adv-x="438" d="M117 473q0 62 20.5 88.5t81.5 26.5q59 0 81 -26.5t22 -88.5q0 -63 -21.5 -88t-81.5 -25q-61 0 -81.5 25t-20.5 88z" />
<glyph unicode="&#xb8;" horiz-adv-x="1228" d="M-8 -317l10 73h82q47 0 67.5 13.5t20.5 44.5v229h12q47 -31 77 -96.5t30 -141.5q0 -70 -51.5 -111.5t-135.5 -41.5q-49 0 -112 31zM0 0z" />
<glyph unicode="&#xb9;" horiz-adv-x="686" d="M96 664zM96 1395v82l305 39v-774h179v-78h-469v78h202v680z" />
<glyph unicode="&#xba;" horiz-adv-x="1001" d="M164 1147q0 184 24.5 271t94 120t219.5 33q152 0 221.5 -32t93 -118t23.5 -274q0 -184 -24.5 -271.5t-94.5 -120t-219 -32.5q-150 0 -219.5 32.5t-94 120t-24.5 271.5zM211 502v18q0 47 16.5 60.5t69.5 13.5h496v-21q0 -47 -13.5 -59t-68.5 -12h-500zM281 827h356 q51 0 67.5 8.5t16.5 30.5v600h-356q-49 0 -66.5 -8t-17.5 -31v-600z" />
<glyph unicode="&#xbb;" horiz-adv-x="782" d="M51 174l195 338l-195 338l39 37l279 -297v-154l-279 -299zM414 174l194 338l-194 338l39 37l278 -297v-154l-278 -299z" />
<glyph unicode="&#xbc;" horiz-adv-x="1890" d="M96 0zM96 1190v82l305 39v-774h179v-78h-469v78h202v680zM590 -82l469 1393q6 27 26.5 39t61.5 12h20l-467 -1393q-16 -28 -32.5 -39.5t-57.5 -11.5h-20zM1100 197v41l360 593h205v-557h94v-77h-94v-197h-88v197h-477zM1222 274h357v490h-62z" />
<glyph unicode="&#xbd;" horiz-adv-x="1929" d="M96 0zM96 1190v82l305 39v-774h179v-78h-469v78h202v680zM590 -82l469 1393q6 27 26.5 39t61.5 12h20l-467 -1393q-16 -28 -32.5 -39.5t-57.5 -11.5h-20zM1210 0v86q0 125 25.5 181.5t118 105.5t340.5 141v250q-55 10 -138 10q-145 0 -311 -26l-10 71q98 33 270 33 q147 0 215 -49t68 -154q0 -92 -28 -140t-125 -99.5t-339 -145.5v-186h475v-78h-561z" />
<glyph unicode="&#xbe;" horiz-adv-x="1998" d="M109 0zM109 471l8 72q131 -25 284 -25q127 0 162 8v303l-250 29v49l250 35v281q-41 10 -123 10q-147 0 -284 -27l-9 72q90 33 261 33q252 0 251 -230q0 -66 -26.5 -118t-73.5 -78v-6q53 -31 76.5 -78t23.5 -125q0 -86 -22.5 -136.5t-89 -76t-199.5 -25.5q-155 0 -239 33z M699 -82l469 1393q6 27 26.5 39t61.5 12h20l-467 -1393q-16 -28 -32.5 -39.5t-57.5 -11.5h-20zM1209 197v41l360 593h205v-557h94v-77h-94v-197h-88v197h-477zM1331 274h357v490h-62z" />
<glyph unicode="&#xbf;" horiz-adv-x="778" d="M33 -2q0 100 20.5 149.5t91 89t244.5 103.5l8 326h82l19 -373q2 -23 -23.5 -38t-109.5 -46l-197 -72v-293q86 -14 201 -14q111 0 327 41l17 -88q-162 -51 -312 -51q-201 0 -284.5 60.5t-83.5 205.5zM332 938q0 66 21.5 91.5t84.5 25.5q66 0 86.5 -24.5t20.5 -92.5 q0 -66 -21.5 -93.5t-85.5 -27.5q-61 0 -83.5 27.5t-22.5 93.5z" />
<glyph unicode="&#xc0;" horiz-adv-x="1064" d="M37 0l397 1280h195l397 -1280h-133l-96 315h-531l-96 -315h-133zM37 0zM301 430h461l-221 733h-19zM335 1546q0 4 13 23l74 92q6 6 10 6t14 -8l285 -205l-33 -53l-262 72q-16 4 -25.5 9t-15.5 11l-47 37q-12 6 -13 16z" />
<glyph unicode="&#xc1;" horiz-adv-x="1064" d="M37 0l397 1280h195l397 -1280h-133l-96 315h-531l-96 -315h-133zM37 0zM301 430h461l-221 733h-19zM379 1483l285 205q10 8 14 8t11 -6l73 -95q12 -14 13 -20q0 -8 -13 -19l-47 -36q-14 -10 -43 -19l-262 -71z" />
<glyph unicode="&#xc2;" horiz-adv-x="1064" d="M37 0l397 1280h195l397 -1280h-133l-96 315h-531l-96 -315h-133zM37 0zM301 430h461l-221 733h-19zM310 1466l200 226q6 10 17 10h14q6 0 16 -10l201 -226l-61 -57l-164 125l-162 -125z" />
<glyph unicode="&#xc3;" horiz-adv-x="1064" d="M37 0l397 1280h195l397 -1280h-133l-96 315h-531l-96 -315h-133zM37 0zM270 1526q90 70 136 95.5t77 25.5q23 0 44 -13.5t97 -72.5l125 61l47 -76q-147 -121 -215 -121q-24 0 -46.5 14.5t-92.5 73.5l-125 -63zM301 430h461l-221 733h-19z" />
<glyph unicode="&#xc4;" horiz-adv-x="1064" d="M37 0l397 1280h195l397 -1280h-133l-96 315h-531l-96 -315h-133zM37 0zM272 1548q0 59 15.5 80t66.5 21t66.5 -20.5t15.5 -80.5q0 -57 -15.5 -77.5t-66.5 -20.5t-66.5 20.5t-15.5 77.5zM301 430h461l-221 733h-19zM628 1548q0 59 15.5 80t66.5 21t66.5 -20.5t15.5 -80.5 q0 -57 -15.5 -77.5t-66.5 -20.5t-66.5 20.5t-15.5 77.5z" />
<glyph unicode="&#xc5;" horiz-adv-x="1064" d="M37 0l397 1280h195l397 -1280h-133l-96 315h-531l-96 -315h-133zM37 0zM301 430h461l-221 733h-19zM342 1559q0 96 45 142t146 46q100 0 144 -46t44 -142t-44 -143.5t-144 -47.5q-101 0 -146 47t-45 144zM441 1460h94q45 0 65.5 9.5t20.5 43.5v144h-88q-49 0 -70.5 -9.5 t-21.5 -41.5v-146z" />
<glyph unicode="&#xc6;" horiz-adv-x="1495" d="M37 0l332 1280h907l-25 -133h-546l116 -449h367v-131h-334l111 -432h413v-135h-518l-78 307h-528l-76 -307h-141zM289 442h459l-177 721h-104z" />
<glyph unicode="&#xc7;" horiz-adv-x="987" d="M158 639q0 283 34.5 422t129 194.5t286.5 55.5q61 0 145.5 -10.5t141.5 -28.5l-18 -115q-76 18 -175.5 27.5t-164.5 9.5q-90 0 -139.5 -11.5t-74 -45t-24.5 -103.5v-921q104 -35 272 -35q154 0 342 51l19 -106q-74 -29 -153 -41.5t-185 -12.5h-6q41 -70 41 -164 q0 -70 -51.5 -111.5t-135.5 -41.5q-47 0 -112 31l10 73h82q47 0 67.5 13.5t20.5 44.5v157q-147 12 -222 76t-102.5 200t-27.5 392z" />
<glyph unicode="&#xc8;" horiz-adv-x="1050" d="M213 0v1280h713l-15 -111h-565v-473h512v-112h-512v-473h592v-111h-725zM213 0zM382 1546q0 4 13 23l74 92q6 6 10 6t14 -8l285 -205l-33 -53l-262 72q-16 4 -25.5 9t-15.5 11l-47 37q-12 6 -13 16z" />
<glyph unicode="&#xc9;" horiz-adv-x="1050" d="M213 0v1280h713l-15 -111h-565v-473h512v-112h-512v-473h592v-111h-725zM213 0zM426 1483l285 205q10 8 14 8t11 -6l73 -95q12 -14 13 -20q0 -8 -13 -19l-47 -36q-14 -10 -43 -19l-262 -71z" />
<glyph unicode="&#xca;" horiz-adv-x="1050" d="M213 0v1280h713l-15 -111h-565v-473h512v-112h-512v-473h592v-111h-725zM213 0zM357 1466l200 226q6 10 17 10h14q6 0 16 -10l201 -226l-61 -57l-164 125l-162 -125z" />
<glyph unicode="&#xcb;" horiz-adv-x="1050" d="M213 0v1280h713l-15 -111h-565v-473h512v-112h-512v-473h592v-111h-725zM213 0zM320 1548q0 59 15.5 80t66.5 21t66.5 -20.5t15.5 -80.5q0 -57 -15.5 -77.5t-66.5 -20.5t-66.5 20.5t-15.5 77.5zM676 1548q0 59 15.5 80t66.5 21t66.5 -20.5t15.5 -80.5q0 -57 -15.5 -77.5 t-66.5 -20.5t-66.5 20.5t-15.5 77.5z" />
<glyph unicode="&#xcc;" d="M83 1546q0 4 13 23l74 92q6 6 10 6t14 -8l285 -205l-33 -53l-262 72q-16 4 -25.5 9t-15.5 11l-47 37q-12 6 -13 16zM84 0zM213 0v1280h133v-1280h-133z" />
<glyph unicode="&#xcd;" d="M127 0zM127 1483l285 205q10 8 14 8t11 -6l73 -95q12 -14 13 -20q0 -8 -13 -19l-47 -36q-14 -10 -43 -19l-262 -71zM213 0v1280h133v-1280h-133z" />
<glyph unicode="&#xce;" d="M57 0zM58 1466l200 226q6 10 17 10h14q6 0 16 -10l201 -226l-61 -57l-164 125l-162 -125zM213 0v1280h133v-1280h-133z" />
<glyph unicode="&#xcf;" d="M20 0zM21 1548q0 59 15.5 80t66.5 21t66.5 -20.5t15.5 -80.5q0 -57 -15.5 -77.5t-66.5 -20.5t-66.5 20.5t-15.5 77.5zM213 0v1280h133v-1280h-133zM377 1548q0 59 15.5 80t66.5 21t66.5 -20.5t15.5 -80.5q0 -57 -15.5 -77.5t-66.5 -20.5t-66.5 20.5t-15.5 77.5z" />
<glyph unicode="&#xd0;" horiz-adv-x="1255" d="M78 596v18q0 45 13 59.5t59 14.5h63v592h420q207 0 301 -47t129 -178t35 -416q0 -283 -35 -413t-130 -178t-300 -48h-420v596h-135zM346 117h447q90 0 124.5 34.5t34.5 122.5v732q0 90 -34.5 123.5t-124.5 33.5h-447v-475h217v-20q0 -47 -11 -59.5t-58 -12.5h-148v-479z " />
<glyph unicode="&#xd1;" horiz-adv-x="1343" d="M223 0v1280h127l572 -922q6 -10 23.5 -38.5t22.5 -45t7 -36.5h12v1042h133v-1280h-127l-571 922q-6 10 -23.5 38.5t-22.5 45t-7 36.5h-13v-1042h-133zM223 0zM438 1526q90 70 136 95.5t77 25.5q23 0 44 -13.5t97 -72.5l125 61l47 -76q-147 -121 -215 -121 q-24 0 -46.5 14.5t-92.5 73.5l-125 -63z" />
<glyph unicode="&#xd2;" horiz-adv-x="1286" d="M158 0zM158 639q0 301 34.5 437t134 185.5t316.5 49.5q215 0 314.5 -49.5t134 -186.5t34.5 -436t-34.5 -435t-134 -185.5t-314.5 -49.5q-217 0 -316.5 49.5t-134 185.5t-34.5 435zM299 82h504q102 0 142 36t40 128v952h-508q-100 0 -139 -36t-39 -128v-952zM446 1546 q0 4 13 23l74 92q6 6 10 6t14 -8l285 -205l-33 -53l-262 72q-16 4 -25.5 9t-15.5 11l-47 37q-12 6 -13 16z" />
<glyph unicode="&#xd3;" horiz-adv-x="1286" d="M158 0zM158 639q0 301 34.5 437t134 185.5t316.5 49.5q215 0 314.5 -49.5t134 -186.5t34.5 -436t-34.5 -435t-134 -185.5t-314.5 -49.5q-217 0 -316.5 49.5t-134 185.5t-34.5 435zM299 82h504q102 0 142 36t40 128v952h-508q-100 0 -139 -36t-39 -128v-952zM489 1483 l285 205q10 8 14 8t11 -6l73 -95q12 -14 13 -20q0 -8 -13 -19l-47 -36q-14 -10 -43 -19l-262 -71z" />
<glyph unicode="&#xd4;" horiz-adv-x="1286" d="M158 0zM158 639q0 301 34.5 437t134 185.5t316.5 49.5q215 0 314.5 -49.5t134 -186.5t34.5 -436t-34.5 -435t-134 -185.5t-314.5 -49.5q-217 0 -316.5 49.5t-134 185.5t-34.5 435zM299 82h504q102 0 142 36t40 128v952h-508q-100 0 -139 -36t-39 -128v-952zM420 1466 l200 226q6 10 17 10h14q6 0 16 -10l201 -226l-61 -57l-164 125l-162 -125z" />
<glyph unicode="&#xd5;" horiz-adv-x="1286" d="M158 0zM158 639q0 301 34.5 437t134 185.5t316.5 49.5q215 0 314.5 -49.5t134 -186.5t34.5 -436t-34.5 -435t-134 -185.5t-314.5 -49.5q-217 0 -316.5 49.5t-134 185.5t-34.5 435zM299 82h504q102 0 142 36t40 128v952h-508q-100 0 -139 -36t-39 -128v-952zM381 1526 q90 70 136 95.5t77 25.5q23 0 44 -13.5t97 -72.5l125 61l47 -76q-147 -121 -215 -121q-24 0 -46.5 14.5t-92.5 73.5l-125 -63z" />
<glyph unicode="&#xd6;" horiz-adv-x="1286" d="M158 0zM158 639q0 301 34.5 437t134 185.5t316.5 49.5q215 0 314.5 -49.5t134 -186.5t34.5 -436t-34.5 -435t-134 -185.5t-314.5 -49.5q-217 0 -316.5 49.5t-134 185.5t-34.5 435zM299 82h504q102 0 142 36t40 128v952h-508q-100 0 -139 -36t-39 -128v-952zM383 1548 q0 59 15.5 80t66.5 21t66.5 -20.5t15.5 -80.5q0 -57 -15.5 -77.5t-66.5 -20.5t-66.5 20.5t-15.5 77.5zM739 1548q0 59 15.5 80t66.5 21t66.5 -20.5t15.5 -80.5q0 -57 -15.5 -77.5t-66.5 -20.5t-66.5 20.5t-15.5 77.5z" />
<glyph unicode="&#xd7;" horiz-adv-x="1085" d="M201 381l258 258l-258 258l84 84l258 -258l256 258l84 -84l-258 -258l258 -258l-84 -84l-256 258l-258 -258z" />
<glyph unicode="&#xd8;" horiz-adv-x="1286" d="M158 639q0 301 34.5 437t134 185.5t316.5 49.5q147 0 238 -21l39 88q14 33 33.5 45.5t54.5 12.5h49l-82 -185q88 -55 119.5 -192t31.5 -420q0 -299 -34.5 -435t-134 -185.5t-314.5 -49.5q-147 0 -237 21l-39 -88q-14 -33 -33 -44.5t-55 -11.5h-50l82 181 q-63 39 -96 111.5t-45 190t-12 310.5zM299 82h37l502 1116h-361q-100 0 -139 -36t-39 -128v-952zM449 82h354q102 0 142 36t40 128v952h-35z" />
<glyph unicode="&#xd9;" horiz-adv-x="1308" d="M193 0zM193 354v926h133v-1198h340q133 0 199.5 9t92 31.5t25.5 67.5v1090h133v-926q0 -164 -37 -243.5t-133 -110.5t-291 -31q-196 0 -292.5 31t-133 110.5t-36.5 243.5zM460 1546q0 4 13 23l74 92q6 6 10 6t14 -8l285 -205l-33 -53l-262 72q-16 4 -25.5 9t-15.5 11 l-47 37q-12 6 -13 16z" />
<glyph unicode="&#xda;" horiz-adv-x="1308" d="M193 0zM193 354v926h133v-1198h340q133 0 199.5 9t92 31.5t25.5 67.5v1090h133v-926q0 -164 -37 -243.5t-133 -110.5t-291 -31q-196 0 -292.5 31t-133 110.5t-36.5 243.5zM504 1483l285 205q10 8 14 8t11 -6l73 -95q12 -14 13 -20q0 -8 -13 -19l-47 -36q-14 -10 -43 -19 l-262 -71z" />
<glyph unicode="&#xdb;" horiz-adv-x="1308" d="M193 0zM193 354v926h133v-1198h340q133 0 199.5 9t92 31.5t25.5 67.5v1090h133v-926q0 -164 -37 -243.5t-133 -110.5t-291 -31q-196 0 -292.5 31t-133 110.5t-36.5 243.5zM435 1466l200 226q6 10 17 10h14q6 0 16 -10l201 -226l-61 -57l-164 125l-162 -125z" />
<glyph unicode="&#xdc;" horiz-adv-x="1308" d="M193 0zM193 354v926h133v-1198h340q133 0 199.5 9t92 31.5t25.5 67.5v1090h133v-926q0 -164 -37 -243.5t-133 -110.5t-291 -31q-196 0 -292.5 31t-133 110.5t-36.5 243.5zM397 1548q0 59 15.5 80t66.5 21t66.5 -20.5t15.5 -80.5q0 -57 -15.5 -77.5t-66.5 -20.5 t-66.5 20.5t-15.5 77.5zM753 1548q0 59 15.5 80t66.5 21t66.5 -20.5t15.5 -80.5q0 -57 -15.5 -77.5t-66.5 -20.5t-66.5 20.5t-15.5 77.5z" />
<glyph unicode="&#xdd;" horiz-adv-x="940" d="M25 0zM25 1280h137l309 -686l307 686h137l-378 -829v-451h-134v451zM315 1483l285 205q10 8 14 8t11 -6l73 -95q12 -14 13 -20q0 -8 -13 -19l-47 -36q-14 -10 -43 -19l-262 -71z" />
<glyph unicode="&#xde;" horiz-adv-x="1042" d="M213 0v1280h133v-231h340q123 0 189.5 -38t94 -127t27.5 -253q0 -150 -26.5 -237t-88 -126t-165.5 -39h-371v-229h-133zM346 344h350q92 0 127 18.5t35 67.5v418q0 49 -35 67.5t-127 18.5h-350v-590z" />
<glyph unicode="&#xdf;" horiz-adv-x="1251" d="M117 926v98h157q12 197 90 277.5t254 80.5q209 0 304.5 -72.5t95.5 -226.5q0 -94 -54.5 -189t-195.5 -245q156 -70 234.5 -122t110.5 -110.5t32 -148.5q0 -158 -86 -228.5t-279 -70.5q-103 1 -291 54l27 118q68 -27 153 -43t162 -16q104 0 181 16v303q-168 84 -234.5 122 t-88 61.5t-21.5 56.5q0 43 22.5 79t67.5 87q61 70 94 128t33 138q0 100 -67.5 148.5t-213.5 48.5q-74 0 -196 -21v-1249h-134v926h-157z" />
<glyph unicode="&#xe0;" horiz-adv-x="1101" d="M133 0zM133 276q0 158 37 220.5t155.5 82t419.5 19.5h21v301q-94 29 -244 29q-160 0 -325 -49l-19 104q59 25 169 41t208 16q133 0 207 -24.5t104.5 -79.5t30.5 -156v-780h-55l-39 102q-72 -61 -161 -89.5t-212 -28.5q-164 0 -230.5 65.5t-66.5 226.5zM252 98h342 q100 0 136 28t36 105v258h-338q-102 0 -139 -27.5t-37 -103.5v-260zM358 1290q0 4 13 23l74 92q6 6 10 6t14 -8l285 -205l-33 -53l-262 72q-16 4 -25.5 9t-15.5 11l-47 37q-12 6 -13 16z" />
<glyph unicode="&#xe1;" horiz-adv-x="1101" d="M133 0zM133 276q0 158 37 220.5t155.5 82t419.5 19.5h21v301q-94 29 -244 29q-160 0 -325 -49l-19 104q59 25 169 41t208 16q133 0 207 -24.5t104.5 -79.5t30.5 -156v-780h-55l-39 102q-72 -61 -161 -89.5t-212 -28.5q-164 0 -230.5 65.5t-66.5 226.5zM252 98h342 q100 0 136 28t36 105v258h-338q-102 0 -139 -27.5t-37 -103.5v-260zM401 1227l285 205q10 8 14 8t11 -6l73 -95q12 -14 13 -20q0 -8 -13 -19l-47 -36q-14 -10 -43 -19l-262 -71z" />
<glyph unicode="&#xe2;" horiz-adv-x="1101" d="M133 0zM133 276q0 158 37 220.5t155.5 82t419.5 19.5h21v301q-94 29 -244 29q-160 0 -325 -49l-19 104q59 25 169 41t208 16q133 0 207 -24.5t104.5 -79.5t30.5 -156v-780h-55l-39 102q-72 -61 -161 -89.5t-212 -28.5q-164 0 -230.5 65.5t-66.5 226.5zM252 98h342 q100 0 136 28t36 105v258h-338q-102 0 -139 -27.5t-37 -103.5v-260zM332 1210l200 226q6 10 17 10h14q6 0 16 -10l201 -226l-61 -57l-164 125l-162 -125z" />
<glyph unicode="&#xe3;" horiz-adv-x="1101" d="M133 0zM133 276q0 158 37 220.5t155.5 82t419.5 19.5h21v301q-94 29 -244 29q-160 0 -325 -49l-19 104q59 25 169 41t208 16q133 0 207 -24.5t104.5 -79.5t30.5 -156v-780h-55l-39 102q-72 -61 -161 -89.5t-212 -28.5q-164 0 -230.5 65.5t-66.5 226.5zM252 98h342 q100 0 136 28t36 105v258h-338q-102 0 -139 -27.5t-37 -103.5v-260zM293 1270q90 70 136 95.5t77 25.5q23 0 44 -13.5t97 -72.5l125 61l47 -76q-147 -121 -215 -121q-24 0 -46.5 14.5t-92.5 73.5l-125 -63z" />
<glyph unicode="&#xe4;" horiz-adv-x="1101" d="M133 0zM133 276q0 158 37 220.5t155.5 82t419.5 19.5h21v301q-94 29 -244 29q-160 0 -325 -49l-19 104q59 25 169 41t208 16q133 0 207 -24.5t104.5 -79.5t30.5 -156v-780h-55l-39 102q-72 -61 -161 -89.5t-212 -28.5q-164 0 -230.5 65.5t-66.5 226.5zM252 98h342 q100 0 136 28t36 105v258h-338q-102 0 -139 -27.5t-37 -103.5v-260zM295 1292q0 59 15.5 80t66.5 21t66.5 -20.5t15.5 -80.5q0 -57 -15.5 -77.5t-66.5 -20.5t-66.5 20.5t-15.5 77.5zM651 1292q0 59 15.5 80t66.5 21t66.5 -20.5t15.5 -80.5q0 -57 -15.5 -77.5t-66.5 -20.5 t-66.5 20.5t-15.5 77.5z" />
<glyph unicode="&#xe5;" horiz-adv-x="1101" d="M133 0zM133 276q0 158 37 220.5t155.5 82t419.5 19.5h21v301q-94 29 -244 29q-160 0 -325 -49l-19 104q59 25 169 41t208 16q133 0 207 -24.5t104.5 -79.5t30.5 -156v-780h-55l-39 102q-72 -61 -161 -89.5t-212 -28.5q-164 0 -230.5 65.5t-66.5 226.5zM252 98h342 q100 0 136 28t36 105v258h-338q-102 0 -139 -27.5t-37 -103.5v-260zM364 1303q0 96 45 142t146 46q100 0 144 -46t44 -142t-44 -143.5t-144 -47.5q-101 0 -146 47t-45 144zM463 1204h94q45 0 65.5 9.5t20.5 43.5v144h-88q-49 0 -70.5 -9.5t-21.5 -41.5v-146z" />
<glyph unicode="&#xe6;" horiz-adv-x="1708" d="M133 276q0 158 37 220.5t155.5 82t419.5 19.5h21v301q-94 29 -244 29q-160 0 -325 -49l-19 104q59 25 169 41t208 16q123 0 194.5 -19.5t106.5 -66.5q45 45 115.5 65.5t187.5 20.5q158 0 239 -24.5t113.5 -86t32.5 -181.5q0 -158 -39 -220.5t-162.5 -82t-441.5 -19.5 v-301q102 -29 246 -29q82 0 158.5 10.5t191.5 38.5l21 -104q-70 -27 -180.5 -42t-225.5 -15q-131 0 -199.5 27.5t-101.5 97.5q-74 -66 -165 -95.5t-216 -29.5q-164 0 -230.5 65.5t-66.5 226.5zM252 98h342q100 0 136 28t36 105v258h-338q-102 0 -139 -27.5t-37 -103.5v-260z M901 535h340q106 0 144 27.5t38 103.5v252h-342q-104 0 -142 -28t-38 -106v-249z" />
<glyph unicode="&#xe7;" horiz-adv-x="929" d="M143 512q0 233 25 341t93.5 147.5t215.5 39.5q176 0 326 -34l-21 -111q-176 33 -313 33q-109 0 -151 -40t-42 -140v-623q88 -29 246 -29q63 0 125 10.5t162 38.5l16 -104q-113 -47 -301 -57q49 -76 49 -179q0 -70 -51 -111.5t-135 -41.5q-49 0 -113 31l11 73h82 q47 0 67.5 13.5t20.5 44.5v170q-135 2 -200 44t-88.5 150.5t-23.5 333.5z" />
<glyph unicode="&#xe8;" horiz-adv-x="1087" d="M143 0zM143 512q0 215 33 325.5t116 156.5t245 46q158 0 238.5 -24.5t113.5 -86t33 -181.5q0 -158 -39 -220.5t-163 -82t-439 -19.5v-301q94 -29 243 -29q82 0 160 10.5t193 38.5l18 -104q-66 -27 -176.5 -42t-229.5 -15q-152 0 -223 42t-97 150.5t-26 335.5zM281 535 h337q106 0 144.5 26.5t38.5 104.5v252h-342q-105 0 -141.5 -28t-36.5 -106v-249zM342 1290q0 4 13 23l74 92q6 6 10 6t14 -8l285 -205l-33 -53l-262 72q-16 4 -25.5 9t-15.5 11l-47 37q-12 6 -13 16z" />
<glyph unicode="&#xe9;" horiz-adv-x="1087" d="M143 0zM143 512q0 215 33 325.5t116 156.5t245 46q158 0 238.5 -24.5t113.5 -86t33 -181.5q0 -158 -39 -220.5t-163 -82t-439 -19.5v-301q94 -29 243 -29q82 0 160 10.5t193 38.5l18 -104q-66 -27 -176.5 -42t-229.5 -15q-152 0 -223 42t-97 150.5t-26 335.5zM281 535 h337q106 0 144.5 26.5t38.5 104.5v252h-342q-105 0 -141.5 -28t-36.5 -106v-249zM385 1227l285 205q10 8 14 8t11 -6l73 -95q12 -14 13 -20q0 -8 -13 -19l-47 -36q-14 -10 -43 -19l-262 -71z" />
<glyph unicode="&#xea;" horiz-adv-x="1087" d="M143 0zM143 512q0 215 33 325.5t116 156.5t245 46q158 0 238.5 -24.5t113.5 -86t33 -181.5q0 -158 -39 -220.5t-163 -82t-439 -19.5v-301q94 -29 243 -29q82 0 160 10.5t193 38.5l18 -104q-66 -27 -176.5 -42t-229.5 -15q-152 0 -223 42t-97 150.5t-26 335.5zM281 535 h337q106 0 144.5 26.5t38.5 104.5v252h-342q-105 0 -141.5 -28t-36.5 -106v-249zM316 1210l200 226q6 10 17 10h14q6 0 16 -10l201 -226l-61 -57l-164 125l-162 -125z" />
<glyph unicode="&#xeb;" horiz-adv-x="1087" d="M143 0zM143 512q0 215 33 325.5t116 156.5t245 46q158 0 238.5 -24.5t113.5 -86t33 -181.5q0 -158 -39 -220.5t-163 -82t-439 -19.5v-301q94 -29 243 -29q82 0 160 10.5t193 38.5l18 -104q-66 -27 -176.5 -42t-229.5 -15q-152 0 -223 42t-97 150.5t-26 335.5zM279 1292 q0 59 15.5 80t66.5 21t66.5 -20.5t15.5 -80.5q0 -57 -15.5 -77.5t-66.5 -20.5t-66.5 20.5t-15.5 77.5zM281 535h337q106 0 144.5 26.5t38.5 104.5v252h-342q-105 0 -141.5 -28t-36.5 -106v-249zM635 1292q0 59 15.5 80t66.5 21t66.5 -20.5t15.5 -80.5q0 -57 -15.5 -77.5 t-66.5 -20.5t-66.5 20.5t-15.5 77.5z" />
<glyph unicode="&#xec;" d="M83 1290q0 4 13 23l74 92q6 6 10 6t14 -8l285 -205l-33 -53l-262 72q-16 4 -25.5 9t-15.5 11l-47 37q-12 6 -13 16zM84 0zM213 0v1022l133 25v-1047h-133z" />
<glyph unicode="&#xed;" d="M127 0zM127 1227l285 205q10 8 14 8t11 -6l73 -95q12 -14 13 -20q0 -8 -13 -19l-47 -36q-14 -10 -43 -19l-262 -71zM213 0v1022l133 25v-1047h-133z" />
<glyph unicode="&#xee;" d="M57 0zM58 1210l200 226q6 10 17 10h14q6 0 16 -10l201 -226l-61 -57l-164 125l-162 -125zM213 0v1022l133 25v-1047h-133z" />
<glyph unicode="&#xef;" d="M20 0zM21 1292q0 59 15.5 80t66.5 21t66.5 -20.5t15.5 -80.5q0 -57 -15.5 -77.5t-66.5 -20.5t-66.5 20.5t-15.5 77.5zM213 0v1022l133 25v-1047h-133zM377 1292q0 59 15.5 80t66.5 21t66.5 -20.5t15.5 -80.5q0 -57 -15.5 -77.5t-66.5 -20.5t-66.5 20.5t-15.5 77.5z" />
<glyph unicode="&#xf0;" horiz-adv-x="1116" d="M158 440q0 201 28.5 294t109.5 128t257 35h262q-18 92 -61 190l-172 -57l-15 47q-10 35 -10 47q0 29 29 37l110 37q-37 68 -86 135l107 29q51 -72 84 -129l186 61l17 -45q10 -35 10 -49q0 -25 -29 -37l-127 -41q92 -195 92 -344v-366q0 -190 -28.5 -277.5t-110.5 -119 t-258 -31.5t-257 34.5t-109.5 128t-28.5 293.5zM295 102h420q61 0 80.5 9.5t19.5 40.5v626h-422q-59 0 -78.5 -9t-19.5 -40v-627z" />
<glyph unicode="&#xf1;" horiz-adv-x="1165" d="M213 0v1024h55l39 -102q74 61 161 89.5t210 28.5q285 0 285 -151v-889h-134v932h-276q-84 0 -127 -12.5t-61.5 -41t-18.5 -85.5v-793h-133zM213 0zM342 1270q90 70 136 95.5t77 25.5q23 0 44 -13.5t97 -72.5l125 61l47 -76q-147 -121 -215 -121q-24 0 -46.5 14.5 t-92.5 73.5l-125 -63z" />
<glyph unicode="&#xf2;" horiz-adv-x="1107" d="M143 0zM143 512q0 233 30 341t114 147.5t266 39.5q184 0 268 -38.5t113 -146t29 -343.5q0 -233 -30 -341t-114 -147.5t-266 -39.5t-266 39.5t-114 147.5t-30 341zM279 102h448q63 0 83.5 9.5t20.5 40.5v770h-448q-63 0 -83.5 -9.5t-20.5 -40.5v-770zM358 1290q0 4 13 23 l74 92q6 6 10 6t14 -8l285 -205l-33 -53l-262 72q-16 4 -25.5 9t-15.5 11l-47 37q-12 6 -13 16z" />
<glyph unicode="&#xf3;" horiz-adv-x="1107" d="M143 0zM143 512q0 233 30 341t114 147.5t266 39.5q184 0 268 -38.5t113 -146t29 -343.5q0 -233 -30 -341t-114 -147.5t-266 -39.5t-266 39.5t-114 147.5t-30 341zM279 102h448q63 0 83.5 9.5t20.5 40.5v770h-448q-63 0 -83.5 -9.5t-20.5 -40.5v-770zM401 1227l285 205 q10 8 14 8t11 -6l73 -95q12 -14 13 -20q0 -8 -13 -19l-47 -36q-14 -10 -43 -19l-262 -71z" />
<glyph unicode="&#xf4;" horiz-adv-x="1107" d="M143 0zM143 512q0 233 30 341t114 147.5t266 39.5q184 0 268 -38.5t113 -146t29 -343.5q0 -233 -30 -341t-114 -147.5t-266 -39.5t-266 39.5t-114 147.5t-30 341zM279 102h448q63 0 83.5 9.5t20.5 40.5v770h-448q-63 0 -83.5 -9.5t-20.5 -40.5v-770zM332 1210l200 226 q6 10 17 10h14q6 0 16 -10l201 -226l-61 -57l-164 125l-162 -125z" />
<glyph unicode="&#xf5;" horiz-adv-x="1107" d="M143 0zM143 512q0 233 30 341t114 147.5t266 39.5q184 0 268 -38.5t113 -146t29 -343.5q0 -233 -30 -341t-114 -147.5t-266 -39.5t-266 39.5t-114 147.5t-30 341zM279 102h448q63 0 83.5 9.5t20.5 40.5v770h-448q-63 0 -83.5 -9.5t-20.5 -40.5v-770zM293 1270 q90 70 136 95.5t77 25.5q23 0 44 -13.5t97 -72.5l125 61l47 -76q-147 -121 -215 -121q-24 0 -46.5 14.5t-92.5 73.5l-125 -63z" />
<glyph unicode="&#xf6;" horiz-adv-x="1107" d="M143 0zM143 512q0 233 30 341t114 147.5t266 39.5q184 0 268 -38.5t113 -146t29 -343.5q0 -233 -30 -341t-114 -147.5t-266 -39.5t-266 39.5t-114 147.5t-30 341zM279 102h448q63 0 83.5 9.5t20.5 40.5v770h-448q-63 0 -83.5 -9.5t-20.5 -40.5v-770zM295 1292 q0 59 15.5 80t66.5 21t66.5 -20.5t15.5 -80.5q0 -57 -15.5 -77.5t-66.5 -20.5t-66.5 20.5t-15.5 77.5zM651 1292q0 59 15.5 80t66.5 21t66.5 -20.5t15.5 -80.5q0 -57 -15.5 -77.5t-66.5 -20.5t-66.5 20.5t-15.5 77.5z" />
<glyph unicode="&#xf7;" horiz-adv-x="1085" d="M184 580v118h715v-118h-715zM467 289q0 47 15.5 66.5t60.5 19.5t61.5 -20.5t16.5 -65.5q0 -47 -16.5 -65.5t-61.5 -18.5t-60.5 18.5t-15.5 65.5zM467 942q0 47 15.5 66.5t60.5 19.5t61.5 -20.5t16.5 -65.5q0 -47 -16.5 -65.5t-61.5 -18.5t-60.5 18.5t-15.5 65.5z" />
<glyph unicode="&#xf8;" horiz-adv-x="1107" d="M141 -211l123 248q-72 45 -96.5 151.5t-24.5 323.5q0 233 30 341t114 147.5t266 39.5q129 0 201 -16l77 158q14 31 33 41t56 10h49l-123 -246q69 -47 93 -153.5t24 -321.5q0 -233 -30 -341t-114 -147.5t-266 -39.5q-127 0 -195 16l-79 -160q-14 -31 -33 -41t-56 -10h-49z M279 102h18l405 820h-319q-63 0 -83.5 -9.5t-20.5 -40.5v-770zM408 102h319q63 0 83.5 9.5t20.5 40.5v770h-16z" />
<glyph unicode="&#xf9;" horiz-adv-x="1165" d="M203 0zM203 170v854h133v-926h276q84 0 128 12.5t61.5 42t17.5 87.5v784h133v-1024h-55l-39 102q-78 -61 -173 -89.5t-224 -28.5q-133 0 -195.5 45t-62.5 141zM387 1290q0 4 13 23l74 92q6 6 10 6t14 -8l285 -205l-33 -53l-262 72q-16 4 -25.5 9t-15.5 11l-47 37 q-12 6 -13 16z" />
<glyph unicode="&#xfa;" horiz-adv-x="1165" d="M203 0zM203 170v854h133v-926h276q84 0 128 12.5t61.5 42t17.5 87.5v784h133v-1024h-55l-39 102q-78 -61 -173 -89.5t-224 -28.5q-133 0 -195.5 45t-62.5 141zM430 1227l285 205q10 8 14 8t11 -6l73 -95q12 -14 13 -20q0 -8 -13 -19l-47 -36q-14 -10 -43 -19l-262 -71z " />
<glyph unicode="&#xfb;" horiz-adv-x="1165" d="M203 0zM203 170v854h133v-926h276q84 0 128 12.5t61.5 42t17.5 87.5v784h133v-1024h-55l-39 102q-78 -61 -173 -89.5t-224 -28.5q-133 0 -195.5 45t-62.5 141zM361 1210l200 226q6 10 17 10h14q6 0 16 -10l201 -226l-61 -57l-164 125l-162 -125z" />
<glyph unicode="&#xfc;" horiz-adv-x="1165" d="M203 0zM203 170v854h133v-926h276q84 0 128 12.5t61.5 42t17.5 87.5v784h133v-1024h-55l-39 102q-78 -61 -173 -89.5t-224 -28.5q-133 0 -195.5 45t-62.5 141zM324 1292q0 59 15.5 80t66.5 21t66.5 -20.5t15.5 -80.5q0 -57 -15.5 -77.5t-66.5 -20.5t-66.5 20.5 t-15.5 77.5zM680 1292q0 59 15.5 80t66.5 21t66.5 -20.5t15.5 -80.5q0 -57 -15.5 -77.5t-66.5 -20.5t-66.5 20.5t-15.5 77.5z" />
<glyph unicode="&#xfd;" horiz-adv-x="868" d="M2 0zM2 -336l4 72l105 14q88 12 135 32.5t76.5 63.5t56.5 125l24 76h-71l-318 977h133l277 -868h20l277 868h133l-317 -977q-51 -156 -102.5 -242t-117 -122.5t-161.5 -36.5q-90 0 -154 18zM280 1227l285 205q10 8 14 8t11 -6l73 -95q12 -14 13 -20q0 -8 -13 -19l-47 -36 q-14 -10 -43 -19l-262 -71z" />
<glyph unicode="&#xfe;" horiz-adv-x="1146" d="M213 -371v1702l133 31v-375q43 33 114.5 43t196.5 10q154 0 224.5 -38.5t95 -146t24.5 -343.5q0 -238 -25.5 -348.5t-96 -152.5t-222.5 -42q-123 0 -195.5 12.5t-115.5 45.5v-375zM346 88h420q61 0 80.5 9t19.5 40v785h-422q-55 0 -76.5 -7.5t-21.5 -27.5v-799z" />
<glyph unicode="&#xff;" horiz-adv-x="868" d="M2 0zM2 -336l4 72l105 14q88 12 135 32.5t76.5 63.5t56.5 125l24 76h-71l-318 977h133l277 -868h20l277 868h133l-317 -977q-51 -156 -102.5 -242t-117 -122.5t-161.5 -36.5q-90 0 -154 18zM174 1292q0 59 15.5 80t66.5 21t66.5 -20.5t15.5 -80.5q0 -57 -15.5 -77.5 t-66.5 -20.5t-66.5 20.5t-15.5 77.5zM530 1292q0 59 15.5 80t66.5 21t66.5 -20.5t15.5 -80.5q0 -57 -15.5 -77.5t-66.5 -20.5t-66.5 20.5t-15.5 77.5z" />
<glyph unicode="&#x152;" horiz-adv-x="1822" d="M158 639q0 285 35.5 416t134 178t315.5 47h1055l-15 -111h-565v-473h512v-112h-512v-473h592v-111h-1067q-217 0 -316.5 46t-134 176t-34.5 417zM299 111h504q102 0 142 35.5t40 127.5v895h-508q-100 0 -139 -35.5t-39 -127.5v-895z" />
<glyph unicode="&#x153;" horiz-adv-x="1767" d="M143 512q0 233 30 341t114 147.5t266 39.5q154 0 232.5 -26.5t115.5 -102.5q41 70 117 99.5t203 29.5q158 0 238.5 -24.5t112.5 -86t32 -181.5q0 -160 -38 -221.5t-162 -81t-441 -19.5v-301q102 -29 245 -29q82 0 159 10.5t192 38.5l18 -104q-70 -27 -179.5 -42 t-223.5 -15q-117 0 -181.5 25.5t-99.5 92.5q-41 -68 -118 -93t-222 -25q-182 0 -266 39.5t-114 147.5t-30 341zM279 102h448q63 0 83.5 9.5t20.5 40.5v770h-448q-63 0 -83.5 -9.5t-20.5 -40.5v-770zM963 535h340q106 0 144 27.5t38 103.5v252h-342q-105 0 -142.5 -28 t-37.5 -106v-249z" />
<glyph unicode="&#x178;" horiz-adv-x="940" d="M25 0zM25 1280h137l309 -686l307 686h137l-378 -829v-451h-134v451zM209 1548q0 59 15.5 80t66.5 21t66.5 -20.5t15.5 -80.5q0 -57 -15.5 -77.5t-66.5 -20.5t-66.5 20.5t-15.5 77.5zM565 1548q0 59 15.5 80t66.5 21t66.5 -20.5t15.5 -80.5q0 -57 -15.5 -77.5t-66.5 -20.5 t-66.5 20.5t-15.5 77.5z" />
<glyph unicode="&#x2c6;" horiz-adv-x="1228" d="M170 1153zM170 1210l200 226q6 10 17 10h14q6 0 16 -10l201 -226l-61 -57l-164 125l-162 -125z" />
<glyph unicode="&#x2dc;" horiz-adv-x="1228" d="M207 1169zM207 1270q90 70 136 95.5t77 25.5q23 0 44 -13.5t97 -72.5l125 61l47 -76q-147 -121 -215 -121q-24 0 -46.5 14.5t-92.5 73.5l-125 -63z" />
<glyph unicode="&#x2000;" horiz-adv-x="873" />
<glyph unicode="&#x2001;" horiz-adv-x="1747" />
<glyph unicode="&#x2002;" horiz-adv-x="873" />
<glyph unicode="&#x2003;" horiz-adv-x="1747" />
<glyph unicode="&#x2004;" horiz-adv-x="582" />
<glyph unicode="&#x2005;" horiz-adv-x="436" />
<glyph unicode="&#x2006;" horiz-adv-x="291" />
<glyph unicode="&#x2007;" horiz-adv-x="291" />
<glyph unicode="&#x2008;" horiz-adv-x="218" />
<glyph unicode="&#x2009;" horiz-adv-x="349" />
<glyph unicode="&#x200a;" horiz-adv-x="97" />
<glyph unicode="&#x2010;" horiz-adv-x="716" d="M74 502v59q0 43 17.5 53.5t74.5 10.5h477v-60q0 -43 -17.5 -53t-72.5 -10h-479z" />
<glyph unicode="&#x2011;" horiz-adv-x="716" d="M74 502v59q0 43 17.5 53.5t74.5 10.5h477v-60q0 -43 -17.5 -53t-72.5 -10h-479z" />
<glyph unicode="&#x2012;" horiz-adv-x="716" d="M74 502v59q0 43 17.5 53.5t74.5 10.5h477v-60q0 -43 -17.5 -53t-72.5 -10h-479z" />
<glyph unicode="&#x2013;" horiz-adv-x="1052" d="M74 502v59q0 43 17.5 53.5t74.5 10.5h813v-60q0 -43 -17.5 -53t-72.5 -10h-815z" />
<glyph unicode="&#x2014;" horiz-adv-x="1583" d="M74 502v59q0 43 17.5 53.5t74.5 10.5h1343v-60q0 -43 -17 -53t-73 -10h-1345z" />
<glyph unicode="&#x2018;" horiz-adv-x="438" d="M117 1047q-2 31 49 163l55 127l62 -18l-31 -160q41 -8 55.5 -31.5t14.5 -80.5q0 -63 -24 -89t-83 -26q-53 0 -75.5 25.5t-22.5 89.5z" />
<glyph unicode="&#x2019;" horiz-adv-x="438" d="M117 934zM117 1224q0 66 23.5 90.5t82.5 24.5q53 0 76 -25.5t23 -89.5q2 -31 -50 -163l-55 -127l-61 18l30 160q-41 8 -55 31.5t-14 80.5z" />
<glyph unicode="&#x201a;" horiz-adv-x="438" d="M117 0zM117 100q0 66 23.5 90.5t82.5 24.5q53 0 76 -25.5t23 -89.5q2 -31 -50 -163l-55 -127l-61 18l30 160q-41 8 -55 31.5t-14 80.5z" />
<glyph unicode="&#x201c;" horiz-adv-x="729" d="M117 1047q-2 31 49 163l55 127l62 -18l-31 -160q41 -8 55.5 -31.5t14.5 -80.5q0 -63 -24 -89t-83 -26q-53 0 -75.5 25.5t-22.5 89.5zM408 1047q-2 31 49 163l55 127l61 -18l-30 -160q41 -8 55 -31.5t14 -80.5q0 -63 -23.5 -89t-82.5 -26q-53 0 -75.5 25.5t-22.5 89.5z " />
<glyph unicode="&#x201d;" horiz-adv-x="729" d="M117 934zM117 1224q0 66 23.5 90.5t82.5 24.5q53 0 76 -25.5t23 -89.5q2 -31 -50 -163l-55 -127l-61 18l30 160q-41 8 -55 31.5t-14 80.5zM408 1224q0 66 23.5 90.5t82.5 24.5q53 0 76 -25.5t23 -89.5q2 -31 -50 -163l-55 -127l-61 18l30 160q-41 8 -55 31.5t-14 80.5z " />
<glyph unicode="&#x201e;" horiz-adv-x="724" d="M117 0zM117 100q0 66 23.5 90.5t82.5 24.5q53 0 76 -25.5t23 -89.5q2 -31 -50 -163l-55 -127l-61 18l30 160q-41 8 -55 31.5t-14 80.5zM406 100q0 66 23.5 90.5t82.5 24.5q53 0 76 -25.5t23 -89.5q2 -31 -50 -163l-55 -127l-61 18l30 160q-41 8 -55 31.5t-14 80.5z" />
<glyph unicode="&#x2022;" horiz-adv-x="514" d="M147 690q0 60 23 83.5t88 23.5q63 0 86 -23.5t23 -83.5q0 -59 -22.5 -81.5t-86.5 -22.5q-66 0 -88.5 22.5t-22.5 81.5z" />
<glyph unicode="&#x2026;" horiz-adv-x="1171" d="M117 0zM117 100q0 62 20.5 88.5t81.5 26.5q59 0 81 -26.5t22 -88.5q0 -63 -21.5 -87.5t-81.5 -24.5q-61 0 -81.5 24.5t-20.5 87.5zM484 100q0 62 20.5 88.5t81.5 26.5q59 0 81 -26.5t22 -88.5q0 -63 -21.5 -87.5t-81.5 -24.5q-61 0 -81.5 24.5t-20.5 87.5zM850 100 q0 62 20.5 88.5t81.5 26.5q59 0 81 -26.5t22 -88.5q0 -63 -21.5 -87.5t-81.5 -24.5q-61 0 -81.5 24.5t-20.5 87.5z" />
<glyph unicode="&#x202f;" horiz-adv-x="349" />
<glyph unicode="&#x2039;" horiz-adv-x="419" d="M51 434v154l279 299l39 -37l-195 -338l195 -338l-39 -37z" />
<glyph unicode="&#x203a;" horiz-adv-x="419" d="M51 174l195 338l-195 338l39 37l279 -297v-154l-279 -299z" />
<glyph unicode="&#x205f;" horiz-adv-x="436" />
<glyph unicode="&#x20ac;" horiz-adv-x="1048" d="M70 449l14 96h135v94v98h-119l15 101h108q12 190 54 290.5t133.5 141.5t259.5 41q61 0 145 -10.5t141 -28.5l-18 -115q-76 18 -175 27.5t-165 9.5q-90 0 -139 -11.5t-74 -45t-25 -103.5v-196h457l-14 -101h-443v-192h426l-12 -96h-414v-336q104 -35 273 -35q154 0 342 51 l18 -106q-74 -29 -152.5 -41.5t-185.5 -12.5q-162 0 -251 42t-130 143.5t-51 294.5h-153z" />
<glyph unicode="&#x2122;" horiz-adv-x="1845" d="M55 1436v90h598v-90h-245v-742h-107v742h-246zM801 694l61 832h158l219 -658h10l224 658h155l64 -832h-107l-51 703h-10l-234 -703h-90l-233 703h-9l-51 -703h-106z" />
<glyph unicode="&#x25fc;" horiz-adv-x="1024" d="M0 0v1024h1024v-1024h-1024z" />
</font>
</defs>
</svg>
